<svg width="24" height="25" viewBox="0 0 24 25" fill="none" xmlns="http://www.w3.org/2000/svg">
<path d="M17.4336 1.68736H6.58934C3.83234 1.68736 1.58984 3.92986 1.58984 6.68686V17.5311C1.58984 20.2881 3.83234 22.5306 6.58934 22.5306H17.4336C20.1906 22.5306 22.4331 20.2881 22.4331 17.5311V6.68761C22.4331 3.93061 20.1906 1.68736 17.4336 1.68736ZM12.0118 5.09011C14.7801 5.09011 17.0331 7.34311 17.0331 10.1121C17.0331 12.8804 14.7801 15.1334 12.0118 15.1334C9.24359 15.1334 6.99059 12.8811 6.99059 10.1121C6.98984 7.34311 9.24284 5.09011 12.0118 5.09011ZM20.1831 17.5311C20.1831 19.0469 18.9493 20.2806 17.4336 20.2806H6.58934C5.07359 20.2806 3.83984 19.0469 3.83984 17.5311V17.2116C4.42409 15.8219 5.34359 14.5836 6.53684 13.6416C7.69934 15.4386 9.71684 16.6326 12.0118 16.6326C14.3068 16.6326 16.3236 15.4386 17.4868 13.6424C18.6801 14.5844 19.5988 15.8226 20.1838 17.2116V17.5311H20.1831Z" fill="#7F848C"/>
</svg>
