<svg width="30" height="31" viewBox="0 0 30 31" fill="none" xmlns="http://www.w3.org/2000/svg">
<g clip-path="url(#clip0)">
<path d="M30 22.4642C30 24.1094 28.6935 25.2707 27.0968 25.2707H2.90323C1.30645 25.2707 0 24.1094 0 22.4642V7.75454C0 6.10938 1.30645 4.94809 2.90323 4.94809H27.0968C28.6935 4.94809 30 6.10938 30 7.75454V22.4642Z" fill="#29337A"/>
<path d="M2.90234 4.94809H27.0959C28.6927 4.94809 29.9991 6.10938 29.9991 7.75454V22.4642C29.9991 24.1094 28.4507 25.2707 26.854 25.2707" fill="#1B265B"/>
<path d="M2.90234 4.94809H27.0959C28.6927 4.94809 29.9991 6.10938 29.9991 7.75454V13.1739" fill="#111D49"/>
<path d="M30 22.4158C30 24.061 28.6935 25.2707 27.0968 25.2707H2.90323C1.30645 25.2707 0 24.0126 0 22.3674" fill="#111D49"/>
<path d="M16.4519 15.1094L26.7583 4.94809H23.8551L15.0003 13.8029L6.14541 4.94809H3.24219L13.5486 15.1094L3.24219 25.2707H6.14541L15.0003 16.4158L23.8551 25.2707H26.7583L16.4519 15.1094Z" fill="white"/>
<path d="M6.1938 22.3674L3.24219 25.2707H6.14541L9.04863 22.3674H6.1938Z" fill="#D9ECED"/>
<path d="M20.9512 22.3674L23.8544 25.2707H26.7576L23.806 22.3674H20.9512Z" fill="#D9ECED"/>
<path d="M24.8712 23.4803L16.4519 15.2062L26.7583 4.94809H23.8551L15.0003 13.8029L6.14541 4.94809H3.24219L5.17767 6.7868L24.8712 23.4803Z" fill="#D9ECED"/>
<path d="M30 13.1739H16.9355V4.94809H13.0645V13.1739H0V17.0449H13.0645V25.2707H16.9355V17.0449H30V13.1739Z" fill="white"/>
<path d="M16.9354 22.3674H13.0645V25.2707H16.9354V22.3674Z" fill="#D9ECED"/>
<path d="M16.9343 4.94809H13.0633V13.1739H12.7246L17.273 17.0449H29.9988V13.1739H16.9343V4.94809Z" fill="#D9ECED"/>
<path d="M30 14.1416H15.9677H16.5484L26.1774 4.94809H25.2097L15.9677 14.1416V4.94809H14.0323V14.1416L4.69355 4.94809H3.82258L13.0645 14.1416H0V16.0771H13.1129L4.06452 25.2707H4.93548L14.0323 16.0771V25.2707H15.9677V16.1739L25.3064 25.2707H26.1774L16.9355 16.0771H30V14.1416Z" fill="#E51D35"/>
<path d="M15.9687 22.3674H14.0332V25.2707H15.9687V22.3674Z" fill="#AF0026"/>
<path d="M6.92125 22.3674L4.06641 25.2707H4.93737L7.8406 22.3674H6.92125Z" fill="#AF0026"/>
<path d="M22.3555 22.3674L25.3071 25.2707H26.178L23.2264 22.3674H22.3555Z" fill="#AF0026"/>
<path d="M16.8403 14.1416L26.1791 4.94809H25.2113L15.9694 14.1416V4.94809H14.0339V14.1416L4.69519 4.94809H3.82422L9.1468 10.2223L20.7597 19.9965L16.9371 16.0771H30.0016V14.1416H15.9694H16.8403Z" fill="#AF0026"/>
</g>
<defs>
<clipPath id="clip0">
<rect y="0.109375" width="30" height="30" fill="white"/>
</clipPath>
</defs>
</svg>
