<svg width="24" height="25" viewBox="0 0 24 25" fill="none" xmlns="http://www.w3.org/2000/svg">
<g clip-path="url(#clip0)">
<path d="M22.2343 4.10931C22.2343 5.9043 20.7793 7.35944 18.9843 7.35944C17.1893 7.35944 15.7344 5.9043 15.7344 4.10931C15.7344 2.31451 17.1893 0.859375 18.9843 0.859375C20.7793 0.859375 22.2343 2.31451 22.2343 4.10931Z" fill="#7F848C"/>
<path d="M18.9843 8.10944C16.7783 8.10944 14.9844 6.31537 14.9844 4.10931C14.9844 1.90344 16.7783 0.109375 18.9843 0.109375C21.1904 0.109375 22.9843 1.90344 22.9843 4.10931C22.9843 6.31537 21.1904 8.10944 18.9843 8.10944ZM18.9843 1.60938C17.6053 1.60938 16.4844 2.73145 16.4844 4.10931C16.4844 5.48737 17.6053 6.60944 18.9843 6.60944C20.3633 6.60944 21.4843 5.48737 21.4843 4.10931C21.4843 2.73145 20.3633 1.60938 18.9843 1.60938Z" fill="#7F848C"/>
<path d="M22.2343 20.1094C22.2343 21.9042 20.7793 23.3594 18.9843 23.3594C17.1893 23.3594 15.7344 21.9042 15.7344 20.1094C15.7344 18.3145 17.1893 16.8593 18.9843 16.8593C20.7793 16.8593 22.2343 18.3145 22.2343 20.1094Z" fill="#7F848C"/>
<path d="M18.9843 24.1094C16.7783 24.1094 14.9844 22.3153 14.9844 20.1094C14.9844 17.9034 16.7783 16.1093 18.9843 16.1093C21.1904 16.1093 22.9843 17.9034 22.9843 20.1094C22.9843 22.3153 21.1904 24.1094 18.9843 24.1094ZM18.9843 17.6093C17.6053 17.6093 16.4844 18.7314 16.4844 20.1094C16.4844 21.4873 17.6053 22.6094 18.9843 22.6094C20.3633 22.6094 21.4843 21.4873 21.4843 20.1094C21.4843 18.7314 20.3633 17.6093 18.9843 17.6093Z" fill="#7F848C"/>
<path d="M8.23444 12.1094C8.23444 13.9044 6.7793 15.3593 4.98431 15.3593C3.18951 15.3593 1.73438 13.9044 1.73438 12.1094C1.73438 10.3144 3.18951 8.85944 4.98431 8.85944C6.7793 8.85944 8.23444 10.3144 8.23444 12.1094Z" fill="#7F848C"/>
<path d="M4.98431 16.1093C2.77844 16.1093 0.984375 14.3154 0.984375 12.1094C0.984375 9.90332 2.77844 8.10944 4.98431 8.10944C7.19037 8.10944 8.98444 9.90332 8.98444 12.1094C8.98444 14.3154 7.19037 16.1093 4.98431 16.1093ZM4.98431 9.60944C3.60535 9.60944 2.48438 10.7313 2.48438 12.1094C2.48438 13.4874 3.60535 14.6093 4.98431 14.6093C6.36346 14.6093 7.48444 13.4874 7.48444 12.1094C7.48444 10.7313 6.36346 9.60944 4.98431 9.60944Z" fill="#7F848C"/>
<path d="M7.3467 11.6292C6.99862 11.6292 6.6606 11.4481 6.47658 11.1242C6.20357 10.6452 6.37166 10.0342 6.85067 9.76009L16.1295 4.47017C16.6085 4.19515 17.2196 4.36324 17.4937 4.84407C17.7667 5.32308 17.5986 5.9341 17.1196 6.20821L7.84054 11.4981C7.68453 11.5871 7.51461 11.6292 7.3467 11.6292Z" fill="#7F848C"/>
<path d="M16.6236 19.8795C16.4555 19.8795 16.2856 19.8374 16.1296 19.7484L6.85053 14.4585C6.37153 14.1855 6.20362 13.5745 6.47663 13.0944C6.74854 12.6144 7.36048 12.4454 7.84058 12.7205L17.1196 18.0104C17.5986 18.2834 17.7665 18.8944 17.4935 19.3745C17.3086 19.6984 16.9706 19.8795 16.6236 19.8795Z" fill="#7F848C"/>
</g>
<defs>
<clipPath id="clip0">
<rect y="0.109375" width="24" height="24" fill="white"/>
</clipPath>
</defs>
</svg>
