<svg width="22" height="22" viewBox="0 0 22 22" fill="none" xmlns="http://www.w3.org/2000/svg">
<path d="M16.4336 0.687317H5.58934C2.83234 0.687317 0.589844 2.92982 0.589844 5.68682V16.5311C0.589844 19.2881 2.83234 21.5306 5.58934 21.5306H16.4336C19.1906 21.5306 21.4331 19.2881 21.4331 16.5311V5.68757C21.4331 2.93057 19.1906 0.687317 16.4336 0.687317ZM5.71009 18.1563C4.71859 18.1563 3.91159 17.3501 3.91159 16.3593C3.91159 15.3686 4.71859 14.5623 5.71009 14.5623C6.70084 14.5623 7.50709 15.3686 7.50709 16.3593C7.50709 17.3501 6.70159 18.1563 5.71009 18.1563ZM5.71009 12.9063C4.71859 12.9063 3.91159 12.1001 3.91159 11.1093C3.91159 10.1186 4.71859 9.31232 5.71009 9.31232C6.70084 9.31232 7.50709 10.1186 7.50709 11.1093C7.50709 12.1001 6.70159 12.9063 5.71009 12.9063ZM5.71009 7.65632C4.71859 7.65632 3.91159 6.85007 3.91159 5.85932C3.91159 4.86857 4.71859 4.06232 5.71009 4.06232C6.70084 4.06232 7.50709 4.86857 7.50709 5.85932C7.50709 6.85007 6.70159 7.65632 5.71009 7.65632ZM17.0958 17.7281H10.8528C10.1253 17.7281 9.53359 17.1183 9.53359 16.3691C9.53359 15.6198 10.1253 15.0108 10.8528 15.0108H17.0958C17.8113 15.0108 18.3926 15.6198 18.3926 16.3691C18.3926 17.1191 17.8113 17.7281 17.0958 17.7281ZM17.0958 12.4781H10.8528C10.1253 12.4781 9.53359 11.8683 9.53359 11.1191C9.53359 10.3698 10.1253 9.76082 10.8528 9.76082H17.0958C17.8113 9.76082 18.3926 10.3698 18.3926 11.1191C18.3926 11.8691 17.8113 12.4781 17.0958 12.4781ZM17.0958 7.22807H10.8528C10.1253 7.22807 9.53359 6.61832 9.53359 5.86907C9.53359 5.11982 10.1253 4.51082 10.8528 4.51082H17.0958C17.8113 4.51082 18.3926 5.11982 18.3926 5.86907C18.3926 6.61907 17.8113 7.22807 17.0958 7.22807Z" fill="#7F848C"/>
</svg>
