<svg width="23" height="22" viewBox="0 0 23 22" fill="none" xmlns="http://www.w3.org/2000/svg">
<g clip-path="url(#clip0)">
<path d="M20.0742 2.57812C20.4302 2.57812 20.7188 2.28956 20.7188 1.93359C20.7188 1.57763 20.4302 1.28906 20.0742 1.28906C19.7183 1.28906 19.4297 1.57763 19.4297 1.93359C19.4297 2.28956 19.7183 2.57812 20.0742 2.57812Z" fill="#7F848C"/>
<path d="M21.3633 7.77734C21.7192 7.77734 22.0078 7.48878 22.0078 7.13281C22.0078 6.77685 21.7192 6.48828 21.3633 6.48828C21.0073 6.48828 20.7188 6.77685 20.7188 7.13281C20.7188 7.48878 21.0073 7.77734 21.3633 7.77734Z" fill="#7F848C"/>
<path d="M11.0508 22C15.7488 22 19.9175 18.9635 21.4243 14.5084C21.5162 14.2371 21.4174 13.9375 21.1826 13.7732C20.9485 13.6102 20.6332 13.6203 20.4091 13.8003C19.0199 14.92 17.3438 15.5117 15.5625 15.5117C11.2975 15.5117 7.78516 12.0423 7.78516 7.77734C7.78516 5.11049 9.18203 2.62157 11.4505 1.19212C11.6934 1.03916 11.7778 0.742715 11.6978 0.467027C11.6185 0.19134 11.3378 0 11.0508 0C5.00895 0 0.0078125 4.95816 0.0078125 11C0.0078125 17.0418 5.00895 22 11.0508 22Z" fill="#7F848C"/>
<path d="M12.3398 5.19922C13.4061 5.19922 14.2734 6.06659 14.2734 7.13281C14.2734 7.48907 14.5617 7.77734 14.918 7.77734C15.2742 7.77734 15.5625 7.48907 15.5625 7.13281C15.5625 6.06659 16.4299 5.19922 17.4961 5.19922C17.8523 5.19922 18.1406 4.91094 18.1406 4.55469C18.1406 4.19843 17.8523 3.91016 17.4961 3.91016C16.4299 3.91016 15.5625 2.99982 15.5625 1.93359C15.5625 1.57734 15.2742 1.28906 14.918 1.28906C14.5617 1.28906 14.2734 1.57734 14.2734 1.93359C14.2734 2.99982 13.4061 3.91016 12.3398 3.91016C11.9836 3.91016 11.6953 4.19843 11.6953 4.55469C11.6953 4.91094 11.9836 5.19922 12.3398 5.19922Z" fill="#7F848C"/>
</g>
<defs>
<clipPath id="clip0">
<rect x="0.0078125" width="22" height="22" fill="white"/>
</clipPath>
</defs>
</svg>
