<svg width="30" height="31" viewBox="0 0 30 31" fill="none" xmlns="http://www.w3.org/2000/svg">
<g clip-path="url(#clip0)">
<path d="M0 18.4965V22.4642C0 24.1094 1.30645 25.2707 2.90323 25.2707H27.0968C28.6935 25.2707 30 24.1094 30 22.4642V18.4965H0Z" fill="#E73B36"/>
<path d="M27.0968 4.94809H2.90323C1.30645 4.94809 0 6.10938 0 7.75454V11.7223H30V7.75454C30 6.10938 28.6935 4.94809 27.0968 4.94809Z" fill="#F0F7F6"/>
<path d="M30 11.7223H0V18.4965H30V11.7223Z" fill="#3757A6"/>
<path d="M26.9999 25.2707C28.5967 25.2707 29.9999 24.1094 29.9999 22.4642V18.4965H19.0645L26.9999 25.2707Z" fill="#D31C1C"/>
<path d="M27.0959 4.94809H2.90234L10.9346 11.7223H29.9991V7.75454C29.9991 6.10938 28.6927 4.94809 27.0959 4.94809Z" fill="#DFF2EF"/>
<path d="M19.1125 18.4965H29.9996V11.7223H10.8867L19.1125 18.4965Z" fill="#20448E"/>
<path d="M27.0959 4.94809H2.90234L25.3056 11.7223H29.9991V7.75454C29.9991 6.10938 28.6927 4.94809 27.0959 4.94809Z" fill="#CAEAE4"/>
<path d="M29.9999 13.0771V11.7223H25.0645L29.9999 13.0771Z" fill="#103577"/>
<path d="M30 22.4158C30 24.2061 28.6935 25.2707 27.0968 25.2707H2.90323C1.30645 25.2707 0 24.0126 0 22.3674" fill="#C41010"/>
</g>
<defs>
<clipPath id="clip0">
<rect y="0.109375" width="30" height="30" fill="white"/>
</clipPath>
</defs>
</svg>
