<svg width="23" height="22" viewBox="0 0 23 22" fill="none" xmlns="http://www.w3.org/2000/svg">
<g clip-path="url(#clip0)">
<path d="M21.6516 10.4231C20.9044 10.0492 20.3088 9.37256 20.0923 8.56561C19.8764 7.7587 20.0162 6.89576 20.4769 6.19833C20.6109 5.9944 20.6191 5.73255 20.497 5.52106C20.3749 5.31021 20.1401 5.17864 19.9003 5.20004C19.0695 5.24473 18.2487 4.94008 17.6583 4.34904C17.0673 3.75865 16.7569 2.89803 16.8073 2.06405C16.8218 1.82046 16.6978 1.58946 16.4863 1.46735C16.2741 1.34587 16.0129 1.35344 15.809 1.4875C15.1116 1.94825 14.2493 2.08859 13.4417 1.87207C12.6348 1.65555 11.9582 1.07427 11.5843 0.327127C11.3652 -0.109693 10.6502 -0.109693 10.4312 0.327127C10.0573 1.07427 9.38067 1.65555 8.57372 1.87207C7.76741 2.08859 6.90387 1.94696 6.20644 1.4875C6.00127 1.35344 5.73941 1.34587 5.52917 1.46735C5.31768 1.58946 5.19367 1.82046 5.20815 2.06405C5.25851 2.89803 4.94819 3.75865 4.35715 4.34904C3.76676 4.94008 2.94473 5.24597 2.11513 5.20004C1.87657 5.1881 1.64118 5.30957 1.51842 5.52106C1.3963 5.73255 1.40451 5.9944 1.53857 6.19833C1.99933 6.89572 2.13906 7.75866 1.92314 8.56561C1.70662 9.37252 1.11104 10.0491 0.363895 10.4231C0.145656 10.5326 0.0078125 10.7554 0.0078125 10.9996C0.0078125 11.2439 0.145656 11.4666 0.364066 11.5762C1.11121 11.95 1.7068 12.6267 1.92332 13.4336C2.13919 14.2405 1.99946 15.1035 1.53875 15.8009C1.40468 16.0048 1.39648 16.2667 1.51859 16.4782C1.64071 16.689 1.86793 16.8049 2.1153 16.7992C2.94425 16.7514 3.76693 17.0585 4.35732 17.6502C4.94836 18.2406 5.25868 19.0582 5.20832 19.8922C5.19384 20.1358 5.31785 20.3668 5.52934 20.4889C5.73959 20.6098 6.00139 20.6022 6.20661 20.4688C6.90529 20.0087 7.76947 19.8683 8.57389 20.0842C9.3808 20.3007 10.0574 20.8963 10.4313 21.6434C10.5408 21.8618 10.7636 21.9996 11.0078 21.9996C11.252 21.9996 11.4748 21.8618 11.5844 21.6434C11.9582 20.8962 12.6349 20.3006 13.4418 20.0841C14.2475 19.8663 15.1111 20.008 15.8091 20.4687C16.013 20.6021 16.2742 20.6097 16.4864 20.4888C16.6979 20.3667 16.8219 20.1357 16.8074 19.8921C16.757 19.0581 17.0674 18.2405 17.6584 17.6501C18.2488 17.0591 19.0708 16.7525 19.9004 16.7991C20.1497 16.8136 20.375 16.6896 20.4971 16.4781C20.6192 16.2666 20.611 16.0047 20.477 15.8008C20.0162 15.1034 19.8765 14.2405 20.0924 13.4335C20.3089 12.6266 20.9045 11.95 21.6516 11.5761C21.87 11.4666 22.0078 11.2439 22.0078 10.9996C22.0078 10.7554 21.87 10.5326 21.6516 10.4231ZM11.0078 18.0895C7.09847 18.0895 3.91797 14.909 3.91797 10.9996C3.91797 7.09028 7.09847 3.90978 11.0078 3.90978C14.9172 3.90978 18.0977 7.09028 18.0977 10.9996C18.0977 14.909 14.9172 18.0895 11.0078 18.0895Z" fill="#F2C94C"/>
<path d="M11.0078 16.8008C14.2115 16.8008 16.8086 14.2037 16.8086 11C16.8086 7.79632 14.2115 5.19922 11.0078 5.19922C7.80413 5.19922 5.20703 7.79632 5.20703 11C5.20703 14.2037 7.80413 16.8008 11.0078 16.8008Z" fill="#F2C94C"/>
</g>
<defs>
<clipPath id="clip0">
<rect x="0.0078125" width="22" height="22" fill="white"/>
</clipPath>
</defs>
</svg>
