<svg width="25" height="25" viewBox="0 0 25 25" fill="none" xmlns="http://www.w3.org/2000/svg">
<g clip-path="url(#clip0)">
<path d="M20.6917 23.6985C15.5587 24.2463 10.4101 24.2463 5.2771 23.6985C3.23035 23.48 1.61371 21.8634 1.39526 19.8165C0.847412 14.6835 0.847412 9.5351 1.39526 4.4021C1.61371 2.35535 3.23035 0.738708 5.2771 0.520264C10.4101 -0.0275879 15.5585 -0.0275879 20.6915 0.520264C22.7384 0.738708 24.355 2.35535 24.5735 4.4021C25.1213 9.5351 25.1213 14.6835 24.5735 19.8165C24.355 21.8634 22.7386 23.48 20.6917 23.6985Z" fill="url(#paint0_linear)"/>
<path d="M23.2681 5.27011C23.0744 3.45389 21.6399 2.01926 19.8235 1.82535C15.2686 1.33939 10.7001 1.33939 6.14517 1.82535C4.32895 2.01926 2.89432 3.45389 2.70041 5.27011C2.21445 9.82504 2.21445 14.3935 2.70041 18.9483C2.89432 20.7647 4.32895 22.1993 6.14517 22.393C10.7001 22.8792 15.2686 22.8792 19.8233 22.393C21.6397 22.1993 23.0744 20.7647 23.2681 18.9483C23.7542 14.3935 23.7542 9.82504 23.2681 5.27011Z" fill="url(#paint1_linear)"/>
<path d="M1.34375 19.319C1.36023 19.4849 1.37726 19.6508 1.39502 19.8167C1.61346 21.8634 3.2301 23.48 5.27704 23.6985C10.41 24.2463 15.5584 24.2463 20.6914 23.6985C22.7383 23.48 24.3548 21.8634 24.5732 19.8167C24.591 19.6508 24.608 19.4849 24.6247 19.319H1.34375Z" fill="url(#paint2_linear)"/>
<path d="M24.9791 11.266L17.6672 5.96301C17.1089 6.28217 17.1598 7.0356 16.7892 7.13374C16.5808 7.18959 17.0578 7.40976 16.9355 7.42643C16.3737 6.85056 16.9257 7.57277 16.0574 7.57277C14.4477 8.15813 14.155 8.59716 12.7677 9.14196C12.7677 9.20367 12.7693 9.26465 12.7733 9.32544C12.7816 9.47357 12.8004 9.61914 12.8296 9.76068C12.1164 9.75006 10.2564 13.1611 8.04556 11.266L10.3501 10.2851L9.27529 11.266C9.27529 11.266 6.50307 9.53718 8.30135 11.1571C8.38027 11.2452 7.2853 10.5513 7.38033 10.6368C7.38784 10.6453 7.39571 10.6535 7.40322 10.6619C7.1672 10.646 8.12687 11.9606 7.71598 11.6703C7.71598 11.6703 5.96383 11.5899 7.05093 12.5505L7.92873 13.4358C7.6614 13.4579 7.36568 13.4526 7.16006 13.3625C7.16006 13.3625 7.34206 14.1354 8.04556 14.754L9.27529 15.9901C8.53756 16.4199 10.2038 16.6459 9.27529 17.289L14.7404 24.1094C17.3035 24.1086 18.1323 23.9717 20.6916 23.6985C22.7385 23.48 24.3551 21.8634 24.5736 19.8166C24.8773 16.9694 24.9791 11.266 24.9791 11.266Z" fill="url(#paint3_linear)"/>
<path d="M9.65069 13.9577L14.9889 17.9438L17.6836 6.56738L3.91211 11.925L8.10262 13.2978L15.7504 8.22415L9.65069 13.9577Z" fill="white"/>
<path d="M8.10352 13.3394L9.27164 17.3452L9.67914 13.9866L15.8874 8.36377L8.10352 13.3394Z" fill="#D2D2D7"/>
<path d="M11.3964 15.2976L9.30078 17.345L9.69372 14.0518L11.3964 15.2976Z" fill="#B9B9BE"/>
</g>
<defs>
<linearGradient id="paint0_linear" x1="8.95284" y1="3.48373" x2="15.0231" y2="16.4713" gradientUnits="userSpaceOnUse">
<stop stop-color="#00C3FF"/>
<stop offset="1" stop-color="#00B0ED"/>
</linearGradient>
<linearGradient id="paint1_linear" x1="18.0601" y1="14.8321" x2="-16.8088" y2="-3.87285" gradientUnits="userSpaceOnUse">
<stop stop-color="#069ED2" stop-opacity="0"/>
<stop offset="1" stop-color="#00A2CE"/>
</linearGradient>
<linearGradient id="paint2_linear" x1="12.9841" y1="20.6117" x2="12.9841" y2="23.7565" gradientUnits="userSpaceOnUse">
<stop stop-color="#00B0ED" stop-opacity="0"/>
<stop offset="1" stop-color="#00A2CE"/>
</linearGradient>
<linearGradient id="paint3_linear" x1="23.9259" y1="22.7065" x2="12.2012" y2="10.9818" gradientUnits="userSpaceOnUse">
<stop stop-color="#18B9F1" stop-opacity="0"/>
<stop offset="1" stop-color="#00A2CE"/>
</linearGradient>
<clipPath id="clip0">
<rect x="0.984375" y="0.109375" width="24" height="24" fill="white"/>
</clipPath>
</defs>
</svg>
