<svg width="16" height="16" viewBox="0 0 16 16" fill="none" xmlns="http://www.w3.org/2000/svg">
<path d="M13.6464 2.35364C12.1287 0.835938 10.1234 0 8 0C5.87659 0 3.87133 0.835938 2.35364 2.35364C0.835938 3.87133 0 5.87659 0 8C0 10.1234 0.835938 12.1287 2.35364 13.6464C3.87133 15.1641 5.87659 16 8 16C10.1234 16 12.1287 15.1641 13.6464 13.6464C15.1642 12.1287 16 10.1234 16 8C16 5.87659 15.1642 3.87133 13.6464 2.35364ZM11.0612 12.2857H4.74283L5.91837 8.18367L3.83673 8.59997L3.59184 7.40003L6.28571 6.86129L7.41231 2.93064L8.58769 3.27344L7.63265 6.59184L9.71429 6.17554L9.95918 7.37548L7.26531 7.91422L6.35922 11.0612H11.0612V12.2857Z" fill="#5C9EF2"/>
</svg>
