<svg width="16" height="16" viewBox="0 0 16 16" fill="none" xmlns="http://www.w3.org/2000/svg">
<circle cx="8" cy="8" r="8" fill="#00B047"/>
<path d="M7.60074 8.77955C7.41655 8.77924 7.26726 8.62995 7.26695 8.44576C7.26695 8.33536 7.17747 8.24588 7.06707 8.24588C6.95667 8.24588 6.86719 8.33536 6.86719 8.44576C6.86758 8.77369 7.08542 9.06165 7.40086 9.15136V9.31322C7.40086 9.42362 7.49033 9.5131 7.60074 9.5131C7.71114 9.5131 7.80062 9.42362 7.80062 9.31322V9.15136C8.15291 9.05158 8.37762 8.70733 8.32726 8.34473C8.2769 7.98213 7.96685 7.71214 7.60074 7.71222C7.41639 7.71222 7.26695 7.56278 7.26695 7.37835C7.26695 7.19401 7.41639 7.04457 7.60074 7.04457C7.78508 7.04457 7.93452 7.19401 7.93452 7.37835C7.93452 7.48876 8.02408 7.57823 8.1344 7.57823C8.24481 7.57823 8.33428 7.48876 8.33428 7.37835C8.33389 7.05042 8.11613 6.76247 7.80062 6.67284V6.55291C7.80062 6.44251 7.71114 6.35303 7.60074 6.35303C7.49033 6.35303 7.40086 6.44251 7.40086 6.55291V6.67284C7.04865 6.77254 6.82386 7.11679 6.87422 7.47939C6.92458 7.84206 7.23463 8.11198 7.60074 8.11198C7.78508 8.11198 7.93452 8.26142 7.93452 8.44576C7.93452 8.63011 7.78508 8.77955 7.60074 8.77955Z" fill="white"/>
<path d="M4.81035 10.0629H10.393C10.448 10.0629 10.5007 10.0406 10.5389 10.001L11.3544 9.13945C11.3897 9.10228 11.4091 9.05278 11.4084 9.00156V6.86682C11.4081 6.8163 11.3888 6.76781 11.3544 6.73088L10.5489 5.86937C10.5112 5.82892 10.4584 5.80581 10.4029 5.80542H4.81035C4.7553 5.80542 4.7026 5.82775 4.66442 5.86741L3.84889 6.72885C3.8136 6.7661 3.79424 6.81552 3.79494 6.86682V9.00156C3.79517 9.05262 3.81438 9.10174 3.84889 9.13945L4.66442 10.001C4.70237 10.0409 4.75523 10.0633 4.81035 10.0629ZM4.19267 6.94677L4.89428 6.20518H10.315L11.0066 6.94677V8.92356L10.305 9.66515H4.89624L4.1947 8.92356L4.19267 6.94677Z" fill="white"/>
<path d="M12.1845 5.81756C12.0961 5.34472 11.6841 5.00148 11.2031 5H3.9994C3.44755 5.00023 3.00023 5.44754 3 5.9994V9.86514C3.0007 10.3464 3.34425 10.7589 3.81748 10.8465C3.90586 11.3193 4.31788 11.6626 4.79893 11.6641H12.0006C12.5525 11.6638 12.9998 11.2165 13 10.6647V6.80095C13.0003 6.3196 12.6576 5.90633 12.1845 5.81756ZM3.39976 9.86709V6.00143C3.4007 5.67069 3.66866 5.40273 3.9994 5.40179H11.2011C11.5319 5.40273 11.7997 5.67069 11.8008 6.00143V9.86709C11.7997 10.1979 11.5319 10.4658 11.2011 10.4667H3.9994C3.66866 10.4658 3.4007 10.1979 3.39976 9.86709ZM12.6022 10.6666C12.6013 10.9974 12.3334 11.2653 12.0026 11.2663H4.79893C4.54494 11.2656 4.31867 11.1057 4.23325 10.8665H11.2011C11.753 10.8663 12.2003 10.419 12.2005 9.86709V6.23528C12.4401 6.32023 12.6002 6.54681 12.6003 6.80095V10.6666H12.6022Z" fill="white"/>
</svg>
