<svg width="52" height="47" viewBox="0 0 52 47" fill="none" xmlns="http://www.w3.org/2000/svg">
<path d="M20.9465 31.726L22.4848 29.2442C22.854 28.6494 22.6694 27.8803 22.0746 27.5111C21.4901 27.1419 20.7107 27.3265 20.3415 27.9213L18.8032 30.4031C16.0137 34.9052 12.0347 37.4895 7.87104 37.4895H2.25115C1.55379 37.4895 1 38.0535 1 38.7509C1 39.4482 1.56404 40.0123 2.25115 40.0123H7.8813C12.9372 39.9918 17.6956 36.9767 20.9465 31.726Z" fill="url(#paint0_linear)" stroke="#7F848C" stroke-width="0.2"/>
<path d="M50.8829 7.56459L44.7913 1.4627C44.299 0.970442 43.5094 0.970442 43.0171 1.4627C42.5249 1.95495 42.5249 2.74461 43.0171 3.23686L46.9757 7.1954C46.9654 7.1954 46.9654 7.1954 46.9552 7.1954H41.1404C36.0948 7.1954 31.3261 10.2105 28.0752 15.4612L27.1317 16.9892C26.7625 17.584 26.9471 18.3532 27.5419 18.7223C27.747 18.8454 27.9726 18.9069 28.1982 18.9069C28.6187 18.9069 29.0289 18.6916 29.2648 18.3121L30.2083 16.7841C32.9977 12.282 36.9768 9.70795 41.1404 9.70795H46.9449C46.9552 9.70795 46.9552 9.70795 46.9654 9.70795L43.0069 13.6665C42.5146 14.1587 42.5146 14.9484 43.0069 15.4407C43.253 15.6868 43.5709 15.8098 43.8991 15.8098C44.2273 15.8098 44.5452 15.6868 44.7913 15.4407L50.8932 9.33876C51.3752 8.8465 51.3752 8.04659 50.8829 7.56459ZM48.2063 8.46706C48.2063 8.4568 48.2063 8.4568 48.2063 8.44655C48.2063 8.43629 48.2063 8.43629 48.2063 8.42604L48.2268 8.44655L48.2063 8.46706Z" fill="url(#paint1_linear)" stroke="#7F848C" stroke-width="0.2"/>
<path d="M43.0057 45.7242C43.2518 45.9703 43.5697 46.0934 43.8979 46.0934C44.226 46.0934 44.5439 45.9703 44.7901 45.7242L50.892 39.6223C51.3842 39.13 51.3842 38.3404 50.892 37.8481L44.7901 31.7565C44.2978 31.2642 43.5082 31.2642 43.0159 31.7565C42.5237 32.2487 42.5237 33.0384 43.0159 33.5306L46.9744 37.4892C46.9642 37.4892 46.9642 37.4892 46.9539 37.4892H41.3238C37.1704 37.4892 33.1811 34.9049 30.3917 30.4028L21.1414 15.4608C17.8905 10.1999 13.1217 7.19507 8.07615 7.19507H2.25114C1.55379 7.19507 1 7.75911 1 8.45647C1 9.15383 1.56404 9.71787 2.25114 9.71787H8.06589C12.2193 9.71787 16.2086 12.3022 18.998 16.794L28.2483 31.736C31.4992 36.9969 36.2679 40.012 41.3135 40.012H46.9437C46.9539 40.012 46.9539 40.012 46.9642 40.012L43.0057 43.9705C42.5237 44.4423 42.5237 45.2319 43.0057 45.7242ZM48.2051 38.7198L48.2256 38.7403L48.2051 38.7608C48.2051 38.7506 48.2051 38.7506 48.2051 38.7403C48.2051 38.7301 48.2051 38.7301 48.2051 38.7198Z" fill="url(#paint2_linear)" stroke="#7F848C" stroke-width="0.2"/>
<defs>
<linearGradient id="paint0_linear" x1="1" y1="27.3208" x2="24.2078" y2="31.4989" gradientUnits="userSpaceOnUse">
<stop stop-color="#00B047"/>
<stop offset="1" stop-color="#4CD784"/>
</linearGradient>
<linearGradient id="paint1_linear" x1="26.9414" y1="1.09351" x2="53.2713" y2="4.8816" gradientUnits="userSpaceOnUse">
<stop stop-color="#00B047"/>
<stop offset="1" stop-color="#4CD784"/>
</linearGradient>
<linearGradient id="paint2_linear" x1="1" y1="7.19507" x2="55.5474" y2="14.6248" gradientUnits="userSpaceOnUse">
<stop stop-color="#00B047"/>
<stop offset="1" stop-color="#4CD784"/>
</linearGradient>
</defs>
</svg>
