<svg width="50" height="45" viewBox="0 0 50 45" fill="none" xmlns="http://www.w3.org/2000/svg">
<path d="M6.48595 32.725V32.375H6.13595H4.09063C2.02795 32.375 0.35 30.6971 0.35 28.6344V4.09063C0.35 2.02795 2.02795 0.35 4.09063 0.35H44.9969C47.0596 0.35 48.7376 2.02795 48.7376 4.09063V28.6344C48.7376 30.6971 47.0596 32.375 44.9969 32.375H23.3166H23.1766L23.0753 32.4716L11.0396 43.9304L11.0385 43.9314C11.0197 43.9495 10.9989 43.968 10.9761 43.9873L10.9741 43.989C10.4647 44.4266 9.84296 44.65 9.21312 44.65C8.82884 44.65 8.44011 44.5678 8.069 44.3968L8.06882 44.3967C7.09049 43.9466 6.48595 43.003 6.48595 41.9269V32.725ZM44.9969 28.9844H45.3469V28.6344V4.09063V3.74063H44.9969H4.09063H3.74063V4.09063V28.6344V28.9844H4.09063H8.18126C9.11698 28.9844 9.87658 29.744 9.87658 30.6797V39.539V40.3554L10.4679 39.7925L21.3295 29.4524L21.3299 29.4521C21.645 29.1514 22.0626 28.9844 22.4985 28.9844H44.9969Z" fill="url(#paint0_linear)" stroke="#E8EDF1" stroke-width="0.7"/>
<defs>
<linearGradient id="paint0_linear" x1="0" y1="0" x2="53.554" y2="6.15814" gradientUnits="userSpaceOnUse">
<stop stop-color="#00B047"/>
<stop offset="1" stop-color="#4CD784"/>
</linearGradient>
</defs>
</svg>
