<svg width="41" height="45" viewBox="0 0 41 45" fill="none" xmlns="http://www.w3.org/2000/svg">
<path d="M12.0189 10.3124C12.0189 13.0191 9.81619 15.2218 7.10915 15.2218C4.40212 15.2218 2.19971 13.0191 2.19971 10.3124C2.19971 7.60531 4.40213 5.40259 7.10915 5.40259C9.81618 5.40259 12.0189 7.60533 12.0189 10.3124ZM9.88462 10.3124C9.88462 8.78149 8.64012 7.53655 7.10915 7.53655C5.57854 7.53655 4.33367 8.78146 4.33367 10.3124C4.33367 11.843 5.57856 13.0878 7.10915 13.0878C8.6401 13.0878 9.88462 11.8429 9.88462 10.3124Z" fill="url(#paint0_linear)" stroke="#363C46" stroke-width="0.5"/>
<path d="M26.0934 6.14649C26.0934 9.39734 23.4481 12.0426 20.1969 12.0426C16.9461 12.0426 14.3008 9.39735 14.3008 6.14649C14.3008 2.89528 16.9461 0.25 20.1969 0.25C23.4481 0.25 26.0934 2.89529 26.0934 6.14649ZM23.9591 6.14649C23.9591 4.07174 22.2717 2.38431 20.1969 2.38431C18.1222 2.38431 16.4347 4.07174 16.4347 6.14649C16.4347 8.22088 18.1222 9.90867 20.1969 9.90867C22.2717 9.90867 23.9591 8.22088 23.9591 6.14649Z" fill="url(#paint1_linear)" stroke="#363C46" stroke-width="0.5"/>
<path d="M24.2245 42.6156H23.9745H16.419H16.169V42.3656V30.0356C16.169 29.5155 15.7941 29.0712 15.2815 28.9836L24.2245 42.6156ZM24.2245 42.6156V42.3656M24.2245 42.6156V42.3656M24.2245 42.3656V30.0356C24.2245 29.5154 24.5994 29.0712 25.1122 28.9835M24.2245 42.3656L25.1122 28.9835M25.1122 28.9835C25.8568 28.8566 26.4152 28.1942 26.4152 27.439M25.1122 28.9835L26.4152 27.439M26.4152 27.439V18.834C26.4152 17.9698 25.7124 17.267 24.8482 17.267H15.5453C14.6808 17.267 13.9779 17.9698 13.9779 18.834V20.4243C13.9779 20.4303 13.9781 20.4356 13.9783 20.4393L13.9786 20.4466V27.2831L13.9784 27.2861C13.9782 27.2903 13.9779 27.2963 13.9779 27.3034V27.439C13.9779 28.1942 14.5368 28.8566 15.2814 28.9835L26.4152 27.439ZM28.2499 17.3766L28.3466 17.6011L28.5732 17.5095C28.9385 17.3619 29.3369 17.2798 29.7543 17.2798H37.157C38.9007 17.2798 40.32 18.6988 40.32 20.4428V27.2897C40.32 28.4654 39.6806 29.5049 38.7047 30.0501L38.5766 30.1216V30.2683V40.2147C38.5766 40.8038 38.0987 41.2817 37.5096 41.2817H29.4017C28.8126 41.2817 28.3347 40.8038 28.3347 40.2147V30.2683V30.1217L28.2067 30.0501C28.1144 29.9985 28.0243 29.94 27.9336 29.8764L27.7522 29.7494L27.6042 29.9142C27.2948 30.2586 26.9206 30.545 26.4976 30.7542L26.3585 30.8231V30.9783V43.6829C26.3585 44.272 25.8806 44.7499 25.2915 44.7499H15.102C14.5126 44.7499 14.0351 44.2721 14.0351 43.6829V30.9783V30.823L13.8958 30.7542C13.5019 30.5595 13.1502 30.2972 12.8541 29.9837L12.7113 29.8326L12.5367 29.9454C12.4794 29.9824 12.4218 30.0174 12.3632 30.0501L12.2352 30.1217V30.2683V40.2147C12.2352 40.8038 11.7573 41.2817 11.1683 41.2817H3.06037C2.47129 41.2817 1.99339 40.8038 1.99339 40.2147V30.2683V30.1216L1.86529 30.0501C0.889103 29.5049 0.25 28.4655 0.25 27.2897V20.4428C0.25 18.6988 1.66927 17.2798 3.41296 17.2798H10.8153C11.1806 17.2798 11.5307 17.3425 11.8571 17.4567L12.0737 17.5325L12.1677 17.3232C12.7474 16.0329 14.0433 15.1331 15.5453 15.1331H24.8482C26.3708 15.1331 27.6822 16.0578 28.2499 17.3766ZM11.8439 27.3031H11.844V27.2996V20.4335H11.844L11.844 20.4305C11.8372 19.8687 11.3791 19.4138 10.8157 19.4138H3.41296C2.84525 19.4138 2.38431 19.8754 2.38431 20.4428V27.2897C2.38431 27.7861 2.75057 28.22 3.23963 28.3038L3.23982 28.3038C3.75238 28.3911 4.12735 28.8356 4.12735 29.3554V38.8974V39.1474H4.37735H9.85093H10.1009V38.8974V29.3554C10.1009 28.8356 10.4759 28.3911 10.9885 28.3038L10.9885 28.3038C11.4739 28.2209 11.8371 27.7935 11.8439 27.3031ZM37.3302 28.3038L37.3303 28.3038C37.7351 28.2345 38.0557 27.9254 38.1542 27.5393H38.186V27.2893V20.4428C38.186 19.8752 37.7246 19.4138 37.157 19.4138H29.7547C29.1871 19.4138 28.7257 19.8752 28.7257 20.4428V27.2897C28.7257 27.7862 29.092 28.2201 29.5814 28.3038L29.5815 28.3038C30.0941 28.3911 30.469 28.8356 30.469 29.3554V38.8974V39.1474H30.719H36.1926H36.4426V38.8974V29.3554C36.4426 28.8353 36.8176 28.3911 37.3302 28.3038ZM13.979 27.2779L13.9789 27.2791L13.979 27.2779Z" fill="url(#paint2_linear)" stroke="#363C46" stroke-width="0.5"/>
<path d="M38.3661 10.3124C38.3661 13.0191 36.1634 15.2218 33.4563 15.2218C30.7496 15.2218 28.5469 13.0191 28.5469 10.3124C28.5469 7.60532 30.7496 5.40259 33.4563 5.40259C36.1633 5.40259 38.3661 7.60533 38.3661 10.3124ZM36.2321 10.3124C36.2321 8.78144 34.9872 7.53655 33.4563 7.53655C31.9257 7.53655 30.6808 8.78146 30.6808 10.3124C30.6808 11.843 31.9257 13.0878 33.4563 13.0878C34.9872 13.0878 36.2321 11.843 36.2321 10.3124Z" fill="url(#paint3_linear)" stroke="#363C46" stroke-width="0.5"/>
<defs>
<linearGradient id="paint0_linear" x1="1.94971" y1="5.15259" x2="12.3749" y2="5.26081" gradientUnits="userSpaceOnUse">
<stop stop-color="#00F9C9"/>
<stop offset="1" stop-color="#1EE3BF"/>
</linearGradient>
<linearGradient id="paint1_linear" x1="14.0508" y1="0" x2="26.4697" y2="0.12892" gradientUnits="userSpaceOnUse">
<stop stop-color="#00F9C9"/>
<stop offset="1" stop-color="#1EE3BF"/>
</linearGradient>
<linearGradient id="paint2_linear" x1="0" y1="14.8831" x2="40.9831" y2="15.4562" gradientUnits="userSpaceOnUse">
<stop stop-color="#00F9C9"/>
<stop offset="1" stop-color="#1EE3BF"/>
</linearGradient>
<linearGradient id="paint3_linear" x1="28.2969" y1="5.15259" x2="38.7221" y2="5.26081" gradientUnits="userSpaceOnUse">
<stop stop-color="#00F9C9"/>
<stop offset="1" stop-color="#1EE3BF"/>
</linearGradient>
</defs>
</svg>
