<svg width="45" height="45" viewBox="0 0 45 45" fill="none" xmlns="http://www.w3.org/2000/svg">
<path d="M22.5 0C10.0937 0 0 10.0937 0 22.5C0 34.9063 10.0937 45 22.5 45C34.9063 45 45 34.9063 45 22.5C45 10.0937 34.9063 0 22.5 0ZM22.5 42.1875C11.6441 42.1875 2.81251 33.3559 2.81251 22.5C2.81251 11.6441 11.6441 2.81251 22.5 2.81251C33.3559 2.81251 42.1875 11.6441 42.1875 22.5C42.1875 33.3559 33.3559 42.1875 22.5 42.1875Z" fill="white"/>
<path d="M23.9063 9.84376C23.9063 9.0671 23.2767 8.4375 22.5 8.4375C21.7234 8.4375 21.0938 9.0671 21.0938 9.84376V21.8396C21.0938 22.6352 21.4098 23.3983 21.9724 23.9609L28.949 30.9375C29.4981 31.4866 30.3884 31.4866 30.9375 30.9375C31.4866 30.3883 31.4866 29.498 30.9375 28.9489L24.7849 22.7964C24.2223 22.2338 23.9063 21.4707 23.9063 20.675V9.84376Z" fill="white"/>
</svg>
