<svg width="16" height="16" viewBox="0 0 16 16" fill="none" xmlns="http://www.w3.org/2000/svg">
<path d="M8 0C3.58173 0 0 3.58173 0 8C0 12.4183 3.58173 16 8 16C12.4183 16 16 12.4183 16 8C15.9951 3.58383 12.4162 0.00488283 8 0ZM4.69641 7.42853H6.9821C7.29774 7.42853 7.55357 7.68436 7.55357 8C7.55357 8.31564 7.29774 8.57147 6.9821 8.57147H4.69641C4.38077 8.57147 4.12495 8.31564 4.12495 8C4.12495 7.68436 4.38095 7.42853 4.69641 7.42853ZM11.8416 6.61554L11.1543 10.0541C10.9925 10.8523 10.2916 11.4267 9.47723 11.4286H4.69641C4.38077 11.4286 4.12495 11.1728 4.12495 10.8572C4.12495 10.5415 4.38095 10.2857 4.69641 10.2857H9.47723C9.74736 10.285 9.97981 10.0946 10.0335 9.82984L10.721 6.39128C10.782 6.08436 10.5828 5.78616 10.2761 5.72512C10.2397 5.71797 10.2027 5.71431 10.1657 5.71431H5.83935C5.52371 5.71431 5.26788 5.45849 5.26788 5.14284C5.26788 4.8272 5.52371 4.57138 5.83935 4.57138H10.1657C11.1098 4.57173 11.8749 5.33711 11.8747 6.28124C11.8747 6.39337 11.8635 6.50533 11.8416 6.61554Z" fill="#3170C0"/>
</svg>
