<svg width="16" height="16" viewBox="0 0 16 16" fill="none" xmlns="http://www.w3.org/2000/svg">
<circle cx="8" cy="8" r="8" fill="white"/>
<path d="M8.83747 4.9541H7.95881H6.75391V7.53119H8.83747C9.54793 7.53119 10.126 6.95313 10.126 6.24263C10.126 5.53213 9.54793 4.9541 8.83747 4.9541Z" fill="#F7931A"/>
<path d="M13.6568 2.34313C12.1459 0.832156 10.1369 0 8 0C5.86312 0 3.85416 0.832156 2.34316 2.34313C0.832156 3.85416 0 5.86312 0 8C0 10.1369 0.832125 12.1459 2.34316 13.6569C3.85416 15.1678 5.86312 16 8 16C10.1369 16 12.1459 15.1678 13.6569 13.6569C15.1679 12.1459 16 10.1369 16 8C16 5.86312 15.1679 3.85416 13.6568 2.34313ZM11.0628 9.75725C11.0628 10.8387 10.2876 11.7421 9.26372 11.9418V12.5188C9.26372 12.7777 9.05381 12.9875 8.79497 12.9875C8.53606 12.9875 8.32622 12.7777 8.32622 12.5188V11.9833H7.95819H6.75328V12.5188C6.75328 12.7777 6.54344 12.9875 6.28453 12.9875C6.02569 12.9875 5.81578 12.7777 5.81578 12.5188V11.9833H5.40588C5.14703 11.9833 4.93713 11.7735 4.93713 11.5146C4.93713 11.2557 5.14703 11.0458 5.40588 11.0458H5.81578V8V4.95416H5.40588C5.14703 4.95416 4.93713 4.74428 4.93713 4.48541C4.93713 4.22653 5.14703 4.01666 5.40588 4.01666H5.81578V3.48125C5.81578 3.22237 6.02569 3.0125 6.28453 3.0125C6.54344 3.0125 6.75328 3.22237 6.75328 3.48125V4.01666H7.95819H8.32622V3.48125C8.32622 3.22237 8.53606 3.0125 8.79497 3.0125C9.05381 3.0125 9.26372 3.22237 9.26372 3.48125V4.05816C10.2876 4.25787 11.0628 5.16125 11.0628 6.24266C11.0628 6.95641 10.7248 7.59231 10.2008 7.99997C10.7248 8.40763 11.0628 9.04353 11.0628 9.75725Z" fill="#F7931A"/>
<path d="M8.83747 8.46875H6.75391V11.0458H7.95881H8.83747C9.54793 11.0458 10.126 10.4678 10.126 9.75728C10.126 9.04678 9.54793 8.46875 8.83747 8.46875Z" fill="#F7931A"/>
</svg>
