<svg width="16" height="16" viewBox="0 0 16 16" fill="none" xmlns="http://www.w3.org/2000/svg">
<circle cx="8" cy="8" r="8" fill="#F01010"/>
<path fill-rule="evenodd" clip-rule="evenodd" d="M8.26876 5.07876H7.95891H7.66015C7.5605 5.06658 7.43876 5.06658 7.31722 5.0548C7.28417 5.06658 7.2727 5.10288 7.26167 5.15052C7.25068 5.19847 7.26167 5.23431 7.28417 5.27006L7.41688 5.2821C7.58252 5.31758 7.7042 5.35349 7.7821 5.38965C7.85922 5.43723 7.91438 5.52097 7.93685 5.62868C7.95891 5.73618 7.96989 5.87934 7.95891 6.05882C7.94761 6.30969 7.93685 6.60824 7.92579 6.95482C7.91438 7.3018 7.89247 7.66029 7.87018 8.03081C7.8483 8.60385 7.80062 9.99996 7.65644 10.4134C7.62299 10.5089 7.56786 10.5688 7.50137 10.6052C7.42369 10.6405 7.3349 10.6764 7.22431 10.6888L7.04672 10.7126C7.01369 10.7363 7.00243 10.7726 7.01369 10.8323C7.01369 10.8682 7.02465 10.9038 7.05789 10.9399C7.20187 10.9281 7.3349 10.916 7.479 10.9038H7.90042H8.35469C8.52074 10.916 8.66494 10.9281 8.79781 10.9399C8.83126 10.916 8.85334 10.8802 8.85334 10.8323C8.85334 10.7841 8.8423 10.7485 8.80879 10.7126L8.49869 10.6888C8.3988 10.6764 8.32124 10.6527 8.26596 10.6052C8.23816 10.5808 8.21589 10.5476 8.19922 10.5069C8.13381 10.3371 8.13251 10.0496 8.1359 9.87112C8.14295 9.50061 8.14713 9.1303 8.15801 8.75979C8.16917 8.38927 8.18018 8.06633 8.19106 7.79162C8.20187 7.54067 8.22458 7.27744 8.23536 7.01466C8.24649 6.75199 8.25735 6.4888 8.26876 6.22599H8.2907C8.3794 6.42896 8.46806 6.63233 8.54546 6.85926C8.63409 7.07452 8.7225 7.2897 8.8108 7.49303L9.55235 9.20149C9.6191 9.34534 9.6964 9.52467 9.78466 9.73969C9.88451 9.9667 9.98375 10.1817 10.0726 10.3966C10.1193 10.5105 10.1599 10.6175 10.1943 10.7176C10.2031 10.7176 10.2652 10.9379 10.272 10.9635C10.3147 11.0103 10.3845 11.009 10.4272 10.9635C10.496 10.7855 10.5679 10.6053 10.6479 10.4329C10.8575 9.9248 11.0761 9.4396 11.323 8.95095L12.0424 7.40929C12.0979 7.27744 12.153 7.13417 12.2305 6.97889C12.308 6.81166 12.3853 6.65626 12.452 6.52489C12.5071 6.38136 12.5513 6.28583 12.5732 6.24985H12.5845L12.6069 9.94317C12.6176 10.1341 12.6069 10.277 12.5958 10.3846C12.5869 10.4701 12.5647 10.5514 12.4885 10.593C12.444 10.6527 12.3555 10.6764 12.2114 10.6888L11.9675 10.7126C11.9454 10.7363 11.9344 10.7726 11.9454 10.8323C11.9454 10.8682 11.9566 10.9038 11.9899 10.9399C12.1559 10.9281 12.333 10.916 12.4993 10.9038H12.9872H13.4528C13.6187 10.916 13.7849 10.9281 13.9515 10.9399C13.9848 10.916 13.9957 10.8802 13.9957 10.8323C14.0067 10.7841 13.9957 10.7485 13.9736 10.7126L13.7076 10.6888C13.5856 10.6764 13.497 10.6405 13.4413 10.5807C13.3864 10.5211 13.342 10.4492 13.3309 10.3534C13.3196 10.246 13.3084 10.1138 13.3084 9.97044C13.2858 9.52585 13.2704 9.07404 13.2597 8.62841C13.2484 8.14995 13.2262 7.69609 13.2154 7.26627V6.13042C13.2154 5.9274 13.2262 5.77195 13.2484 5.65227C13.2709 5.54499 13.3262 5.44944 13.4035 5.38965C13.4811 5.34194 13.6137 5.3058 13.7907 5.2821L13.9569 5.27006C13.9792 5.24604 13.99 5.21033 13.9792 5.15052C13.9792 5.11446 13.968 5.07876 13.946 5.0548C13.813 5.06658 13.6801 5.06658 13.5585 5.07876H13.2154H12.9611C12.8612 5.06658 12.7504 5.06658 12.6069 5.0548C12.5958 5.25769 12.5294 5.48521 12.4297 5.74812C12.308 6.02255 12.1643 6.35769 11.9873 6.75199L11.2124 8.43683C11.0114 8.89562 10.8284 9.33214 10.5823 9.76718H10.5602C10.3643 9.36802 10.1838 8.95387 10.0061 8.54472L9.06562 6.51279C8.94404 6.22599 8.83322 5.9513 8.74474 5.7003C8.66714 5.44944 8.63409 5.23431 8.64507 5.0548C8.51236 5.06658 8.39046 5.06658 8.26876 5.07876ZM3.72787 9.62171C3.72787 9.92614 3.71673 10.1578 3.69419 10.3164C3.67188 10.6237 3.48414 10.7243 3.2194 10.7441L3.04981 10.7684C2.99518 10.8275 2.99938 10.9556 3.06154 11C3.41121 10.9767 3.72746 10.9633 4.07826 10.9633C4.45235 10.9633 4.80105 10.9811 5.17404 11C5.19656 10.9756 5.20825 10.9391 5.21947 10.8904C5.21947 10.8295 5.20825 10.7925 5.18551 10.7684L4.9595 10.7441C4.7787 10.7314 4.6545 10.6948 4.58674 10.6338C4.58265 10.6306 4.57862 10.6274 4.57466 10.624C4.50626 10.5627 4.4574 10.469 4.43682 10.324C4.41441 10.1656 4.40306 9.93429 4.41441 9.63027V8.77688C4.16615 8.78916 3.94054 8.77688 3.73731 8.74033L3.72787 9.62171ZM3.00391 5.17088C2.99277 5.21947 3.01546 5.2559 3.04927 5.29276L3.34266 5.32877C3.46663 5.34135 3.55701 5.37774 3.61331 5.43878C3.66964 5.48732 3.70369 5.57282 3.71475 5.70683C3.72623 5.84064 3.73731 6.036 3.73731 6.29135V8.09454C3.96302 8.10698 4.18853 8.10698 4.41441 8.09454V5.60912C4.40306 5.51181 4.41441 5.43878 4.43682 5.37774C4.44805 5.34135 4.49325 5.30445 4.54957 5.29276C4.61722 5.28046 4.73028 5.28045 4.87687 5.28045C5.30546 5.29276 5.63265 5.41426 5.86954 5.67016C6.09521 5.92579 6.2079 6.2793 6.2079 6.71818C6.2196 7.10786 6.12924 7.43682 5.93737 7.70464C5.76813 7.93656 5.51996 8.10698 5.18136 8.19206C4.85438 8.27743 4.39191 8.31411 3.77125 8.30159C3.22959 8.29004 2.64304 8.25323 2 8.18018C2.71092 8.33855 3.24095 8.448 3.57969 8.48448C4.13216 8.55796 4.67364 8.54541 5.18136 8.46041C5.44081 8.42352 5.67782 8.35079 5.89223 8.26541C6.09521 8.16804 6.29841 8.03403 6.51279 7.87552C6.63681 7.77805 6.74956 7.61919 6.85129 7.41241C6.93034 7.21759 6.97537 6.98606 6.98647 6.7056C6.97537 6.40098 6.90761 6.13354 6.78366 5.90162C6.65949 5.67016 6.51279 5.48732 6.32089 5.35377C6.12924 5.23175 5.89223 5.13386 5.6215 5.07298C5.36197 5.02444 5.05729 5 4.70768 5C4.36905 5 4.06453 5 3.79383 5.01205C3.52305 5.02444 3.27488 5.03655 3.06028 5.06083C3.02661 5.08553 3.00391 5.12197 3.00391 5.17088Z" fill="white"/>
</svg>
