<svg width="16" height="16" viewBox="0 0 16 16" fill="none" xmlns="http://www.w3.org/2000/svg">
<circle cx="8" cy="8" r="8" fill="#FFCC00"/>
<path d="M12.4688 7.21294C12.421 6.93733 12.1888 6.77197 11.8529 6.76829C11.7493 6.76682 11.6464 6.77711 11.5457 6.76609C11.3473 6.74551 11.2951 6.81166 11.2966 6.96893C11.3061 7.74063 11.3032 8.51158 11.3002 9.28107C11.298 9.68456 10.9041 10.0991 10.4308 10.2042C8.96089 10.5268 7.49247 10.8546 6.02111 11.1743C5.85575 11.2103 5.68157 11.2287 5.51327 11.2272C5.43977 11.2272 5.33835 11.1714 5.30675 11.117C5.28617 11.081 5.35084 10.9935 5.40156 10.9487C5.46844 10.8943 5.55369 10.8509 5.64115 10.8208C5.91087 10.7245 6.18501 10.637 6.45767 10.5466C7.54907 10.1836 8.64267 9.82493 9.73259 9.45966C10.2243 9.29357 10.4896 8.96578 10.4977 8.55201C10.5227 7.21147 10.5102 5.87093 10.5043 4.52892C10.5043 4.31652 10.394 4.1394 10.1412 4.04753C9.85018 3.94317 9.59442 4.02621 9.3416 4.14675C7.79674 4.8839 6.25262 5.61958 4.7063 6.35526C4.25137 6.57206 3.99781 6.88589 4.00001 7.33273C4.00516 8.60051 4.00149 9.86609 4.00296 11.1324C4.00296 11.1956 4.00957 11.2603 4.02941 11.3205C4.18155 11.7512 4.57621 11.9982 5.12154 11.9982C6.20853 12.0011 7.29918 11.9996 8.3869 11.9996C9.47095 11.9996 10.5513 12.0011 11.6354 11.9982C11.8705 11.9982 12.0874 11.9497 12.2637 11.8041C12.4923 11.6204 12.4805 11.3867 12.4805 11.1537C12.4828 9.919 12.4828 8.68577 12.4813 7.44885C12.4835 7.37168 12.482 7.29084 12.4688 7.21294ZM7.94888 6.8168C8.05838 6.53238 8.29724 6.35452 8.66177 6.30895C8.90284 6.27809 9.11303 6.42728 9.14757 6.64482C9.19975 6.97996 8.78083 7.36948 8.36706 7.36801C8.02164 7.36801 7.82908 7.12621 7.94888 6.8168Z" fill="white"/>
</svg>
