<svg width="1049" height="900" viewBox="0 0 1049 900" fill="none" xmlns="http://www.w3.org/2000/svg">
<g clip-path="url(#clip0)">
<path d="M1187.41 900C1196.91 900.016 1206.03 896.279 1212.79 889.6C1219.55 882.92 1223.42 873.837 1223.55 864.32C1225.05 765.917 1232.95 620.756 1048.04 580.588C898.353 548.203 987.14 281.629 584.184 299.014C294.897 311.371 371.64 555.76 146.853 576.128C-2.83476 589.536 -4.11002 779.269 1.64284 866.195C2.24035 875.362 6.29568 883.957 12.9854 890.236C19.6751 896.514 28.4978 900.005 37.662 900H1187.41Z" fill="#D9E1E8"/>
<path opacity="0.55" d="M1048.04 580.673C898.356 548.203 987.143 281.629 584.187 299.014C515.38 301.855 467.316 318.019 430.957 341.085C443.2 339.466 456.207 338.245 470.065 337.762C873.021 320.518 784.319 587.065 933.95 619.563C1116.88 659.333 1111.07 801.796 1109.48 900.142H1187.42C1196.94 900.157 1206.07 896.401 1212.84 889.691C1219.61 882.981 1223.46 873.862 1223.55 864.32C1225.05 766.002 1232.96 620.841 1048.04 580.673Z" fill="#CDD4DA"/>
<path d="M413.668 -218H407.32V247.313H413.668V-218Z" fill="#D9E1E8"/>
<path d="M869.844 -218H863.496V318.785H869.844V-218Z" fill="#D9E1E8"/>
<path d="M869.247 287.651L395.982 232.285C391.175 231.723 386.305 232.115 381.65 233.44C376.995 234.764 372.646 236.995 368.851 240.005C365.056 243.015 361.89 246.745 359.533 250.982C357.177 255.219 355.676 259.879 355.117 264.698L319.948 567.833C319.387 572.651 319.778 577.532 321.1 582.199C322.421 586.865 324.647 591.225 327.65 595.029C330.652 598.833 334.373 602.007 338.6 604.369C342.826 606.731 347.476 608.235 352.283 608.796L825.548 664.162C830.354 664.724 835.224 664.332 839.88 663.007C844.535 661.683 848.884 659.452 852.679 656.442C856.474 653.432 859.64 649.702 861.997 645.465C864.353 641.228 865.854 636.568 866.413 631.749L901.724 328.472C902.815 318.742 900.007 308.977 893.916 301.322C887.826 293.667 878.953 288.749 869.247 287.651Z" fill="#7F848C"/>
<path d="M898.099 358.499L901.585 328.472C902.678 318.764 899.889 309.018 893.828 301.367C887.768 293.716 878.93 288.784 869.25 287.651L395.985 232.285C391.178 231.723 386.308 232.115 381.653 233.44C376.998 234.764 372.648 236.995 368.854 240.005C365.059 243.015 361.893 246.745 359.536 250.982C357.18 255.219 355.679 259.879 355.12 264.698L351.605 294.724L898.099 358.499Z" fill="#363C46"/>
<g filter="url(#filter0_ii)">
<path d="M407.548 274.044C407.327 275.999 406.532 277.845 405.264 279.348C403.995 280.85 402.311 281.941 400.423 282.483C398.536 283.025 396.53 282.993 394.661 282.392C392.791 281.79 391.142 280.646 389.922 279.104C388.701 277.562 387.965 275.692 387.806 273.73C387.647 271.769 388.072 269.804 389.028 268.085C389.984 266.365 391.428 264.969 393.176 264.073C394.924 263.177 396.898 262.821 398.848 263.05C401.454 263.357 403.832 264.685 405.463 266.746C407.093 268.806 407.843 271.431 407.548 274.044Z" fill="#7F848C"/>
</g>
<g filter="url(#filter1_ii)">
<path d="M454.985 279.612C454.753 281.558 453.951 283.391 452.68 284.881C451.409 286.37 449.727 287.448 447.845 287.98C445.963 288.511 443.966 288.471 442.107 287.865C440.247 287.259 438.609 286.115 437.398 284.576C436.187 283.037 435.459 281.173 435.304 279.219C435.15 277.266 435.577 275.31 436.531 273.599C437.485 271.889 438.923 270.5 440.664 269.608C442.405 268.716 444.371 268.362 446.313 268.59C447.605 268.741 448.854 269.147 449.99 269.783C451.125 270.419 452.124 271.273 452.93 272.297C453.735 273.321 454.331 274.494 454.684 275.749C455.037 277.004 455.139 278.317 454.985 279.612Z" fill="#7F848C"/>
</g>
<g filter="url(#filter2_ii)">
<path d="M504.184 285.35C503.958 287.297 503.162 289.133 501.895 290.627C500.629 292.12 498.949 293.204 497.069 293.741C495.188 294.278 493.191 294.244 491.329 293.644C489.468 293.043 487.826 291.903 486.611 290.368C485.395 288.832 484.662 286.97 484.502 285.016C484.342 283.063 484.764 281.105 485.713 279.392C486.663 277.678 488.098 276.285 489.837 275.389C491.576 274.493 493.541 274.133 495.483 274.356C498.089 274.663 500.468 275.992 502.098 278.052C503.729 280.112 504.479 282.737 504.184 285.35Z" fill="#7F848C"/>
</g>
<path d="M191.29 834.464C191.29 834.464 184.885 828.47 189.193 805.687C193.5 782.905 204.411 761.003 199.055 736.26C193.698 711.517 151.671 649.191 151.53 645.044C151.388 640.896 138.55 717.568 160.287 747.85C182.023 778.132 184.658 788.558 183.695 804.437C182.731 820.317 183.893 833.129 186.302 836.822L191.29 834.464Z" fill="#21CD66"/>
<path d="M187.323 788.643C184.8 798.813 183.27 824.294 187.323 830.402C187.719 830.97 188.258 830.658 188.938 829.578C187.691 825.374 186.898 817.988 189.221 805.688C193.529 782.962 204.44 761.003 199.083 736.26C193.727 711.517 151.7 649.191 151.559 645.044C151.559 645.044 157.878 696.973 179.218 732.737C194.464 758.332 189.873 778.473 187.323 788.643Z" fill="#0FB051"/>
<path d="M198.966 832.902C198.966 832.902 186.61 801.995 207.467 775.235C228.325 748.475 261.85 714.102 262.531 700.495C262.531 700.495 271.032 765.122 243.883 783.416C216.734 801.711 197.634 804.665 202.338 832.788L198.966 832.902Z" fill="#21CD66"/>
<path d="M228.358 770.576C197.978 792.734 195.513 818.272 200.217 830.09C200.376 830.528 200.64 830.921 200.986 831.233C201.332 831.545 201.749 831.767 202.201 831.879C198.12 804.722 217.079 801.625 243.973 783.587C270.867 765.548 262.62 700.666 262.62 700.666C262.62 700.666 258.738 748.248 228.358 770.576Z" fill="#0FB051"/>
<path d="M178.539 833.584C180.958 822.391 181.58 810.884 180.381 799.495C178.284 781.825 159.864 771.883 142.662 753.219C133.82 743.618 131.326 692.854 136.682 688.138C136.682 688.138 106.302 725.068 111.007 752.055C115.711 779.042 165.361 796.683 170.037 809.721C172.785 817.437 174.212 825.562 174.26 833.754L178.539 833.584Z" fill="#21CD66"/>
<path d="M126.534 702.711C116.502 729.953 126.789 762.963 160.144 783.473C184.686 798.557 176.864 829.947 176.864 829.947L180.888 817.562C181.298 811.559 181.166 805.531 180.492 799.552C178.395 781.882 159.974 771.94 142.772 753.276C134.27 744.015 131.437 696.461 136.254 688.876C132.783 693.32 129.539 697.938 126.534 702.711Z" fill="#0FB051"/>
<path d="M136.254 688.877L136.792 688.195C136.579 688.393 136.397 688.623 136.254 688.877Z" fill="#49B4D6"/>
<path d="M205.316 831.538C205.316 831.538 212.43 805.063 230.057 801.512C247.684 797.961 267.861 771.854 268.966 766.741C268.966 766.741 265.991 816.028 205.316 831.538Z" fill="#21CD66"/>
<path d="M229.038 810.346C218.24 815.744 213.763 823.016 212.176 829.635C266.19 812.221 268.854 766.826 268.854 766.826C268.171 768.681 267.216 770.424 266.02 771.996C260.919 781.229 248.082 800.716 229.038 810.346Z" fill="#0FB051"/>
<path d="M243.402 821.709H151.328L162.267 890.654C162.647 893.201 163.925 895.528 165.869 897.212C167.814 898.895 170.296 899.824 172.866 899.83H221.864C224.405 899.801 226.854 898.873 228.778 897.21C230.702 895.546 231.977 893.254 232.378 890.739L243.402 821.709Z" fill="#D1DCE4"/>
<path d="M241.617 833.214L243.402 821.794H151.328L153.142 833.214H241.617Z" fill="#B7C4CD"/>
<path d="M221.044 821.709L210.161 890.739C209.763 893.271 208.477 895.578 206.534 897.244C204.592 898.91 202.119 899.827 199.562 899.83H221.865C224.406 899.801 226.855 898.873 228.779 897.21C230.703 895.546 231.978 893.254 232.379 890.739L243.403 821.709H221.044Z" fill="#B7C4CD"/>
<path d="M878.573 698.847H462.383V783.672H878.573V698.847Z" fill="#363C46"/>
<g style="mix-blend-mode:multiply" opacity="0.29">
<path d="M878.573 698.847H462.383V719.443H878.573V698.847Z" fill="#F98D2B"/>
</g>
<path d="M498.569 698.847H536.544L526.37 719.443H488.367L498.569 698.847Z" fill="#F77E2D"/>
<path d="M584.154 698.847H622.129L611.955 719.443H573.98L584.154 698.847Z" fill="#F77E2D"/>
<path d="M669.74 698.847H707.715L697.541 719.443H659.566L669.74 698.847Z" fill="#F77E2D"/>
<path d="M755.327 698.847H793.273L783.1 719.443H745.125L755.327 698.847Z" fill="#F77E2D"/>
<path d="M878.572 698.847V699.416L868.653 719.443H830.707L840.909 698.847H878.572Z" fill="#F77E2D"/>
<path d="M543.519 783.672H514.188V899.659H543.519V783.672Z" fill="#363C46"/>
<path d="M543.519 783.672H536.859V899.659H543.519V783.672Z" fill="#363C46"/>
<path d="M829.034 783.672H799.703V899.659H829.034V783.672Z" fill="#363C46"/>
<path d="M829.035 783.672H820.363V899.659H829.035V783.672Z" fill="#363C46"/>
<path d="M543.519 783.587H514.188V798.188H543.519V783.587Z" fill="#363C46"/>
<path d="M829.034 783.587H799.703V798.188H829.034V783.587Z" fill="#363C46"/>
<path d="M543.519 685.581H514.188V698.762H543.519V685.581Z" fill="#363C46"/>
<path d="M543.519 685.581H536.859V698.762H543.519V685.581Z" fill="#363C46"/>
<path d="M829.034 685.581H799.703V698.762H829.034V685.581Z" fill="#363C46"/>
<path d="M829.035 685.581H820.363V698.762H829.035V685.581Z" fill="#363C46"/>
<path d="M543.519 697.115H514.188V698.762H543.519V697.115Z" fill="#363C46"/>
<path d="M829.034 697.115H799.703V698.762H829.034V697.115Z" fill="#363C46"/>
<path d="M536.547 698.847L494.576 783.672H462.383V771.968L498.572 698.847H536.547Z" fill="url(#paint0_linear)"/>
<path d="M584.158 698.847L542.188 783.672H580.162L622.132 698.847H584.158Z" fill="url(#paint1_linear)"/>
<path d="M707.714 698.847L665.744 783.672H627.77L669.74 698.847H707.714Z" fill="url(#paint2_linear)"/>
<path d="M793.272 698.847L751.33 783.672H713.355L755.326 698.847H793.272Z" fill="url(#paint3_linear)"/>
<path d="M840.908 698.847L798.938 783.672H836.884L878.571 699.416L840.908 698.847Z" fill="url(#paint4_linear)"/>
<path d="M536.544 698.847L526.37 719.443H488.367L498.569 698.847H536.544Z" fill="#0FB051"/>
<path d="M622.129 698.847L611.955 719.443H573.98L584.154 698.847H622.129Z" fill="#0FB051"/>
<path d="M707.715 698.847L697.541 719.443H659.566L669.74 698.847H707.715Z" fill="#0FB051"/>
<path d="M793.273 698.847L783.1 719.443H745.125L755.327 698.847H793.273Z" fill="#0FB051"/>
<path d="M878.572 699.416L868.653 719.443H830.707L840.909 698.847L878.572 699.416Z" fill="#0FB051"/>
<path style="mix-blend-mode:overlay" opacity="0.55" d="M875.129 622.627H477.699V665.067H875.129V622.627Z" fill="url(#paint5_linear)"/>
<path d="M532.233 693.094C546.492 690.769 556.171 677.297 553.851 663.004C551.531 648.711 538.092 639.01 523.833 641.335C509.575 643.66 499.896 657.132 502.216 671.425C504.535 685.718 517.975 695.42 532.233 693.094Z" fill="#363C46"/>
<path d="M539.944 667.173C539.944 664.818 539.246 662.515 537.94 660.557C536.634 658.599 534.778 657.074 532.607 656.174C530.436 655.274 528.047 655.04 525.742 655.501C523.438 655.963 521.323 657.099 519.663 658.767C518.004 660.434 516.875 662.558 516.42 664.869C515.965 667.179 516.204 669.573 517.107 671.748C518.01 673.922 519.537 675.779 521.493 677.084C523.45 678.388 525.748 679.082 528.098 679.076C529.656 679.076 531.198 678.768 532.638 678.169C534.077 677.571 535.384 676.694 536.484 675.588C537.584 674.482 538.456 673.17 539.05 671.726C539.644 670.282 539.947 668.735 539.944 667.173Z" fill="white"/>
<path d="M818.343 693.119C832.602 690.794 842.28 677.322 839.961 663.029C837.641 648.736 824.201 639.034 809.943 641.36C795.684 643.685 786.005 657.157 788.325 671.45C790.645 685.743 804.084 695.444 818.343 693.119Z" fill="#363C46"/>
<path d="M826.061 667.173C826.061 664.818 825.364 662.515 824.058 660.557C822.752 658.599 820.896 657.074 818.724 656.174C816.553 655.274 814.164 655.04 811.86 655.501C809.556 655.963 807.44 657.099 805.78 658.767C804.121 660.434 802.992 662.558 802.537 664.869C802.082 667.179 802.321 669.573 803.225 671.748C804.128 673.922 805.654 675.779 807.61 677.084C809.567 678.388 811.865 679.082 814.215 679.076C815.773 679.076 817.316 678.768 818.755 678.169C820.194 677.571 821.501 676.694 822.601 675.588C823.702 674.482 824.574 673.17 825.167 671.726C825.761 670.282 826.065 668.735 826.061 667.173Z" fill="white"/>
<path d="M1036.25 890.654H903.711L923.86 841.396L932.022 821.51L934.261 816.085L937.945 807.193L938.682 805.403L946.843 785.518L948.345 781.911L962.798 746.742C963.372 745.331 964.353 744.123 965.615 743.273C966.877 742.423 968.363 741.969 969.883 741.969C971.403 741.969 972.889 742.423 974.151 743.273C975.413 744.123 976.394 745.331 976.968 746.742L991.421 781.911L992.894 785.518L1001.06 805.403L1001.82 807.193L1005.48 816.085L1007.72 821.51L1015.88 841.396L1036.25 890.654Z" fill="#D1DCE4"/>
<g style="mix-blend-mode:multiply" opacity="0.29">
<path d="M912.411 869.548L903.711 890.654H1036.28L1027.58 869.548H912.411Z" fill="#B7C4CD"/>
</g>
<path d="M1044.92 878.041H893.109V899.546H1044.92V878.041Z" fill="#363C46"/>
<path d="M1044.92 878.041H1012.14V899.546H1044.92V878.041Z" fill="#363435"/>
<g style="mix-blend-mode:multiply" opacity="0.29">
<path d="M1031.04 878.041H1012.3L997.228 841.424L989.067 821.539L986.828 816.085L983.172 807.222L982.435 805.404L974.274 785.518L972.772 781.911L960.699 752.282L962.995 746.6C963.569 745.189 964.55 743.982 965.811 743.132C967.073 742.281 968.559 741.827 970.079 741.827C971.6 741.827 973.086 742.281 974.348 743.132C975.609 743.982 976.59 745.189 977.164 746.6L991.617 781.769L993.091 785.376L1001.25 805.261L1002.02 807.08L1005.67 815.943L1007.91 821.397L1016.07 841.282L1031.04 878.041Z" fill="#B7C4CD"/>
</g>
<path d="M1001.17 805.375H938.793L946.955 785.49H993.006L1001.17 805.375Z" fill="#7F848C"/>
<path d="M1015.99 841.367V841.395H923.969V841.367L932.13 821.482H1007.82L1015.99 841.367Z" fill="#7F848C"/>
<path d="M1001.17 805.375H982.435L974.273 785.49H993.006L1001.17 805.375Z" fill="#59616D"/>
<path d="M1015.99 841.367V841.395H997.228V841.367L989.066 821.482H1007.83L1015.99 841.367Z" fill="#59616D"/>
<g filter="url(#filter3_dd)">
<path d="M191.348 407.559C196.153 407.608 200.813 405.907 204.461 402.772C208.11 399.637 210.499 395.282 211.185 390.514C211.437 388.726 211.56 386.922 211.554 385.117C211.554 374.569 207.374 364.453 199.933 356.995C192.493 349.536 182.401 345.346 171.879 345.346C170.972 345.346 170.093 345.346 169.215 345.346C168.246 334.562 163.171 324.566 155.044 317.432C146.917 310.299 136.362 306.576 125.57 307.037C114.778 307.497 104.577 312.106 97.0839 319.905C89.5913 327.705 85.3824 338.098 85.3308 348.926C85.3308 349.948 85.3308 350.971 85.3308 351.994C79.1623 348.553 72.2287 346.726 65.1698 346.68C58.111 346.635 51.1544 348.372 44.9419 351.732C38.7295 355.092 33.4615 359.966 29.6239 365.905C25.7864 371.844 23.503 378.656 22.9845 385.713C22.9986 385.883 22.9986 386.054 22.9845 386.225C22.8419 388.951 23.2556 391.679 24.2002 394.24C25.1449 396.801 26.6007 399.143 28.4786 401.121C30.3565 403.099 32.6172 404.673 35.1223 405.745C37.6275 406.818 40.3245 407.367 43.0487 407.36L191.348 407.559Z" fill="#E8EDF1"/>
</g>
<g filter="url(#filter4_dd)">
<path d="M1135.41 438.693C1166.58 438.693 1168.43 391.508 1137.17 389.974H1134.62C1129.18 389.966 1123.78 390.82 1118.61 392.503C1116.51 379.783 1109.92 368.242 1100.05 359.98C1090.17 351.718 1077.67 347.286 1064.81 347.489C1051.95 347.692 1039.59 352.517 1029.98 361.086C1020.37 369.656 1014.15 381.399 1012.45 394.179C1001.93 389.172 990.001 388.016 978.724 390.912C951.377 397.957 957.101 438.75 985.356 438.75L1135.41 438.693Z" fill="#E8EDF1"/>
</g>
<g filter="url(#filter5_dd)">
<path d="M759.748 206.179C790.921 206.179 792.763 159.022 761.533 157.488H758.955C753.53 157.485 748.137 158.328 742.971 159.988C740.889 147.256 734.31 135.698 724.433 127.424C714.557 119.15 702.042 114.711 689.172 114.918C676.302 115.124 663.935 119.963 654.328 128.549C644.721 137.136 638.515 148.9 636.841 161.693C626.333 156.662 614.396 155.495 603.117 158.397C575.77 165.471 581.523 206.235 609.749 206.235L759.748 206.179Z" fill="#E8EDF1"/>
</g>
<path d="M407.399 410.55L414.98 398.023L420.952 398.719L409.084 416.944C407.762 418.965 406.39 420.376 404.968 421.177C403.57 421.98 401.977 422.278 400.189 422.07C398.305 421.85 396.562 421.152 394.96 419.975L397.575 416.184C398.417 416.838 399.374 417.227 400.447 417.352C401.687 417.496 402.813 416.951 403.827 415.716L395.992 395.812L402.143 396.528L407.399 410.55Z" fill="white"/>
<path d="M440.773 406.971L438.545 426.138L433.11 425.505L434.797 410.987L428.253 410.225L426.566 424.743L421.131 424.11L423.358 404.943L440.773 406.971Z" fill="white"/>
<path d="M452.407 428.187C449.546 427.854 447.275 426.611 445.592 424.458C443.933 422.307 443.266 419.838 443.59 417.048C443.911 414.283 445.138 412.046 447.269 410.337C449.404 408.604 451.913 407.906 454.798 408.242C457.873 408.6 460.281 410.016 462.023 412.49L458.467 415.338C457.279 413.919 455.862 413.114 454.217 412.922C452.882 412.767 451.714 413.15 450.713 414.072C449.712 414.995 449.125 416.195 448.954 417.673C448.779 419.175 449.073 420.49 449.836 421.618C450.626 422.724 451.747 423.363 453.202 423.532C454.703 423.707 456.249 423.198 457.837 422.006L460.645 425.595C459.463 426.617 458.242 427.357 456.981 427.814C455.719 428.271 454.195 428.395 452.407 428.187Z" fill="white"/>
<path d="M462.128 434.756L461.925 432.449C464.292 432.459 465.582 431.546 465.795 429.71L465.841 429.317L463.624 429.059L464.289 423.337L470.082 424.012L469.52 428.839C469.254 431.128 468.5 432.731 467.258 433.65C466.037 434.595 464.327 434.963 462.128 434.756Z" fill="white"/>
<path d="M488.69 437.885C486.974 437.685 485.416 437.057 484.016 436L486.297 432.279C487.073 432.877 487.819 433.217 488.534 433.301C489.392 433.401 490.073 433.057 490.575 432.27L485.302 412.157L491.059 412.827L493.904 426.387L499.605 413.822L505.255 414.48L495.607 433.254C494.638 435.147 493.643 436.433 492.622 437.111C491.598 437.813 490.287 438.071 488.69 437.885Z" fill="white"/>
<path d="M536.737 418.147L534.509 437.314L529.074 436.681L529.926 429.35L523.239 428.571L522.387 435.902L516.952 435.269L519.18 416.102L524.615 416.735L523.759 424.101L530.446 424.88L531.302 417.514L536.737 418.147Z" fill="white"/>
<path d="M544.764 438.87C542.881 438.651 541.369 437.943 540.227 436.747C539.109 435.554 538.659 434.028 538.875 432.168C539.11 430.142 539.979 428.697 541.481 427.833C543.006 426.971 544.949 426.678 547.309 426.953C548.907 427.139 550.437 427.583 551.902 428.285L551.94 427.963C552.211 425.627 550.976 424.299 548.235 423.98C546.59 423.788 544.786 423.929 542.822 424.401L541.945 420.094C544.401 419.341 546.939 419.117 549.562 419.423C552.446 419.759 554.521 420.725 555.785 422.322C557.007 423.866 557.461 425.985 557.148 428.679L555.855 439.8L550.599 439.187L550.84 437.113C549.197 438.565 547.172 439.151 544.764 438.87ZM546.846 435.307C548.109 435.454 549.17 435.264 550.029 434.736C550.89 434.184 551.378 433.419 551.492 432.441L551.604 431.476C550.634 430.88 549.506 430.507 548.218 430.357C547.026 430.218 546.069 430.348 545.346 430.747C544.65 431.125 544.25 431.755 544.148 432.637C544.065 433.352 544.272 433.957 544.771 434.45C545.272 434.919 545.964 435.205 546.846 435.307Z" fill="white"/>
<path d="M569.529 441.827C566.669 441.494 564.397 440.251 562.714 438.098C561.055 435.947 560.388 433.478 560.712 430.688C561.034 427.923 562.26 425.686 564.392 423.977C566.526 422.244 569.036 421.546 571.92 421.882C574.995 422.24 577.404 423.656 579.146 426.13L575.589 428.978C574.401 427.559 572.985 426.754 571.34 426.562C570.005 426.406 568.837 426.79 567.836 427.712C566.834 428.635 566.248 429.835 566.076 431.313C565.902 432.815 566.196 434.13 566.959 435.258C567.748 436.364 568.87 437.002 570.324 437.172C571.826 437.347 573.371 436.838 574.959 435.646L577.768 439.235C576.586 440.257 575.364 440.996 574.103 441.454C572.842 441.911 571.317 442.035 569.529 441.827Z" fill="white"/>
<path d="M611.323 426.833L609.096 446L603.66 445.367L605.348 430.849L598.804 430.087L597.117 444.605L591.681 443.972L593.909 424.805L611.323 426.833Z" fill="white"/>
<path d="M613.295 452.288L616.188 427.399L621.623 428.032L621.303 430.786C623.07 428.89 625.181 428.084 627.637 428.37C630.02 428.648 631.967 429.781 633.475 431.768C634.984 433.756 635.559 436.288 635.202 439.363C634.847 442.415 633.708 444.734 631.784 446.323C629.886 447.89 627.733 448.533 625.326 448.252C622.942 447.975 621.062 446.789 619.687 444.696L618.731 452.921L613.295 452.288ZM621.312 441.624C622.104 442.707 623.156 443.324 624.467 443.477C625.778 443.63 626.944 443.27 627.963 442.398C628.985 441.502 629.589 440.256 629.775 438.659C629.955 437.109 629.649 435.793 628.857 434.71C628.067 433.603 627.017 432.974 625.706 432.821C624.395 432.668 623.228 433.04 622.206 433.935C621.21 434.81 620.619 436.046 620.434 437.643C620.254 439.193 620.546 440.52 621.312 441.624Z" fill="white"/>
<path d="M655.183 448.866C652.98 450.567 650.401 451.245 647.445 450.901C644.489 450.557 642.132 449.316 640.375 447.178C638.645 445.019 637.943 442.534 638.27 439.721C638.594 436.931 639.858 434.686 642.061 432.986C644.288 431.288 646.879 430.611 649.836 430.956C652.792 431.3 655.135 432.551 656.865 434.71C658.622 436.847 659.337 439.323 659.01 442.136C658.686 444.925 657.41 447.169 655.183 448.866ZM648.061 446.225C649.563 446.4 650.825 446.039 651.847 445.143C652.872 444.224 653.472 443.013 653.646 441.511C653.815 440.057 653.483 438.762 652.648 437.626C651.84 436.468 650.698 435.804 649.22 435.632C647.718 435.457 646.454 435.829 645.429 436.749C644.407 437.644 643.809 438.843 643.634 440.345C643.465 441.799 643.784 443.105 644.592 444.262C645.427 445.398 646.583 446.053 648.061 446.225Z" fill="white"/>
<path d="M664.064 432.975L674.577 434.199C676.531 434.427 678.031 435.036 679.076 436.028C680.144 437.022 680.592 438.258 680.421 439.736C680.188 441.739 679.007 443.063 676.878 443.709C679.293 444.764 680.357 446.519 680.072 448.974C679.883 450.595 679.091 451.796 677.696 452.575C676.324 453.358 674.53 453.62 672.313 453.362L661.836 452.142L664.064 432.975ZM668.534 441.288L672.36 441.733C673.099 441.819 673.68 441.706 674.103 441.393C674.55 441.082 674.807 440.641 674.873 440.069C674.931 439.568 674.789 439.129 674.446 438.751C674.128 438.375 673.599 438.145 672.86 438.059L668.962 437.605L668.534 441.288ZM667.694 448.511L671.985 449.011C673.63 449.202 674.527 448.655 674.677 447.367C674.821 446.128 674.023 445.406 672.283 445.204L668.135 444.721L667.694 448.511Z" fill="white"/>
<path d="M700.37 454.129C698.167 455.829 695.588 456.507 692.632 456.163C689.676 455.819 687.319 454.578 685.562 452.44C683.832 450.282 683.13 447.796 683.457 444.983C683.781 442.194 685.045 439.949 687.248 438.248C689.475 436.55 692.066 435.874 695.022 436.218C697.978 436.562 700.322 437.814 702.052 439.972C703.809 442.11 704.524 444.585 704.197 447.398C703.873 450.187 702.597 452.431 700.37 454.129ZM693.248 451.487C694.749 451.662 696.011 451.302 697.034 450.406C698.059 449.486 698.659 448.275 698.833 446.774C699.002 445.319 698.669 444.024 697.835 442.888C697.027 441.731 695.884 441.066 694.406 440.894C692.904 440.719 691.641 441.091 690.616 442.011C689.594 442.907 688.995 444.106 688.821 445.608C688.652 447.062 688.971 448.367 689.779 449.525C690.613 450.661 691.77 451.315 693.248 451.487Z" fill="white"/>
<path d="M713.07 453.397L719.614 454.159L720.761 444.289L715.647 443.694L715.597 444.123C715.07 448.242 714.228 451.333 713.07 453.397ZM721.898 459.137L709.883 457.737L708.966 462.197L704.389 461.664L705.453 452.51L707.527 452.751C709.075 450.25 710.193 446.031 710.883 440.095L711.074 438.45L726.736 440.274L725.049 454.792L727.659 455.096L725.952 464.175L721.375 463.642L721.898 459.137Z" fill="white"/>
<path d="M749.283 442.899L747.055 462.066L741.62 461.433L742.335 455.283L739.403 454.941L734.647 460.621L728.354 459.888L734.071 453.414C731.521 452.078 730.407 450.016 730.732 447.226C730.959 445.272 731.818 443.801 733.31 442.815C734.805 441.805 736.78 441.443 739.235 441.729L749.283 442.899ZM739.109 450.92L742.792 451.349L743.353 446.522L739.634 446.089C738.633 445.972 737.833 446.096 737.235 446.462C736.64 446.803 736.296 447.367 736.205 448.154C736.116 448.917 736.321 449.545 736.82 450.038C737.345 450.51 738.108 450.804 739.109 450.92Z" fill="white"/>
<path d="M757.977 458.627L764.521 459.389L765.668 449.519L760.555 448.924L760.505 449.353C759.978 453.472 759.135 456.563 757.977 458.627ZM766.806 464.366L754.791 462.967L753.874 467.427L749.297 466.894L750.361 457.74L752.435 457.981C753.982 455.479 755.101 451.26 755.79 445.324L755.982 443.68L771.644 445.503L769.956 460.022L772.567 460.326L770.859 469.405L766.282 468.872L766.806 464.366Z" fill="white"/>
<path d="M792.188 447.896L791.648 452.545L785.962 451.883L784.275 466.401L778.768 465.76L780.455 451.241L774.77 450.579L775.31 445.93L792.188 447.896Z" fill="white"/>
<path d="M801.924 468.891C799.063 468.558 796.791 467.315 795.109 465.162C793.45 463.011 792.782 460.542 793.107 457.752C793.428 454.987 794.654 452.75 796.786 451.041C798.92 449.308 801.43 448.61 804.314 448.946C807.39 449.304 809.798 450.72 811.54 453.194L807.984 456.042C806.795 454.623 805.379 453.818 803.734 453.626C802.399 453.471 801.231 453.854 800.23 454.776C799.229 455.699 798.642 456.899 798.47 458.377C798.296 459.879 798.59 461.194 799.353 462.322C800.142 463.428 801.264 464.066 802.718 464.236C804.22 464.411 805.765 463.902 807.354 462.71L810.162 466.299C808.98 467.321 807.759 468.061 806.497 468.518C805.236 468.975 803.711 469.099 801.924 468.891Z" fill="white"/>
<path d="M832.568 452.599L830.34 471.766L824.905 471.133L825.62 464.982L822.688 464.641L817.932 470.321L811.639 469.588L817.356 463.114C814.805 461.778 813.692 459.715 814.016 456.926C814.244 454.971 815.103 453.5 816.595 452.514C818.089 451.504 820.064 451.142 822.52 451.428L832.568 452.599ZM822.394 460.62L826.077 461.048L826.638 456.221L822.919 455.788C821.918 455.671 821.118 455.796 820.52 456.161C819.925 456.502 819.581 457.066 819.49 457.853C819.401 458.616 819.606 459.244 820.104 459.737C820.629 460.209 821.393 460.503 822.394 460.62Z" fill="white"/>
<path d="M432.796 456.38L432.255 461.029L426.57 460.366L424.882 474.885L419.376 474.243L421.063 459.725L415.377 459.063L415.918 454.414L432.796 456.38Z" fill="white"/>
<path d="M442.567 477.379C439.659 477.04 437.369 475.844 435.7 473.789C434.032 471.71 433.371 469.192 433.714 466.236C434.038 463.447 435.207 461.191 437.219 459.468C439.231 457.746 441.608 457.044 444.35 457.363C447.377 457.716 449.573 458.986 450.938 461.175C452.302 463.363 452.814 465.924 452.473 468.856C452.44 469.142 452.361 469.616 452.235 470.278L438.898 468.725C439.018 469.971 439.447 470.963 440.182 471.701C440.918 472.439 441.906 472.88 443.145 473.025C444.838 473.222 446.464 472.747 448.023 471.599L450.814 474.715C448.606 476.874 445.857 477.762 442.567 477.379ZM439.221 465.319L447.41 466.273C447.387 465.014 447.061 463.973 446.431 463.151C445.826 462.331 444.963 461.856 443.843 461.726C442.746 461.598 441.785 461.861 440.96 462.514C440.162 463.145 439.582 464.081 439.221 465.319Z" fill="white"/>
<path d="M453.855 478.259L461.708 469.315L456.333 459.121L462.162 459.8L465.089 465.795L469.349 460.637L475.035 461.299L467.478 469.878L473.093 480.499L467.264 479.82L464.097 473.399L459.541 478.921L453.855 478.259Z" fill="white"/>
<path d="M496.131 463.756L493.904 482.923L488.468 482.29L489.32 474.959L482.634 474.18L481.782 481.511L476.346 480.878L478.574 461.711L484.009 462.344L483.153 469.711L489.84 470.489L490.696 463.123L496.131 463.756Z" fill="white"/>
<path d="M518.836 466.4L516.609 485.567L511.352 484.955L512.649 473.798L503.879 484.084L498.765 483.489L500.993 464.322L506.249 464.934L504.949 476.127L513.723 465.805L518.836 466.4Z" fill="white"/>
<path d="M528.661 467.544L527.963 473.552C527.719 475.65 528.48 476.801 530.244 477.007C531.483 477.151 532.759 476.986 534.071 476.51L535.026 468.285L540.498 468.923L538.27 488.09L532.799 487.452L533.576 480.765C531.763 481.4 529.986 481.616 528.246 481.413C526.267 481.183 524.72 480.459 523.605 479.242C522.493 478.001 522.051 476.403 522.278 474.448L523.155 466.903L528.661 467.544Z" fill="white"/>
<path d="M552.182 490.145C549.273 489.806 546.984 488.609 545.314 486.554C543.647 484.475 542.985 481.958 543.329 479.002C543.653 476.213 544.821 473.957 546.834 472.234C548.846 470.511 551.223 469.809 553.964 470.128C556.992 470.481 559.188 471.752 560.552 473.94C561.917 476.129 562.429 478.689 562.088 481.621C562.055 481.907 561.975 482.381 561.85 483.043L548.512 481.49C548.633 482.736 549.061 483.729 549.797 484.467C550.533 485.205 551.521 485.646 552.76 485.79C554.453 485.987 556.078 485.512 557.637 484.365L560.428 487.481C558.22 489.64 555.471 490.528 552.182 490.145ZM548.836 478.085L557.024 479.038C557.001 477.779 556.675 476.738 556.046 475.916C555.441 475.097 554.578 474.622 553.457 474.491C552.361 474.363 551.4 474.626 550.575 475.279C549.777 475.911 549.197 476.846 548.836 478.085Z" fill="white"/>
<path d="M574.076 492.694C571.215 492.361 568.943 491.118 567.261 488.965C565.602 486.815 564.935 484.345 565.259 481.556C565.58 478.79 566.807 476.553 568.938 474.844C571.072 473.112 573.582 472.413 576.466 472.749C579.542 473.107 581.95 474.523 583.692 476.997L580.136 479.845C578.948 478.426 577.531 477.621 575.886 477.429C574.551 477.274 573.383 477.657 572.382 478.58C571.381 479.502 570.794 480.702 570.622 482.18C570.448 483.682 570.742 484.997 571.505 486.125C572.294 487.232 573.416 487.87 574.87 488.039C576.372 488.214 577.917 487.705 579.506 486.513L582.314 490.102C581.132 491.124 579.911 491.864 578.649 492.321C577.388 492.778 575.864 492.903 574.076 492.694Z" fill="white"/>
<path d="M585.507 493.591L587.735 474.424L593.17 475.057L592.256 482.924L600.036 475.856L606.293 476.585L598.335 483.632L604.96 495.856L598.523 495.107L594.258 487.216L591.479 489.611L590.942 494.224L585.507 493.591Z" fill="white"/>
<path d="M627.438 479.048L625.211 498.215L619.954 497.602L621.251 486.445L612.481 496.732L607.367 496.137L609.595 476.97L614.851 477.582L613.55 488.774L622.325 478.452L627.438 479.048Z" fill="white"/>
<path d="M639.098 500.267C636.19 499.928 633.901 498.731 632.231 496.676C630.563 494.597 629.902 492.08 630.245 489.124C630.569 486.335 631.738 484.079 633.75 482.356C635.762 480.633 638.139 479.931 640.881 480.251C643.908 480.603 646.104 481.874 647.469 484.062C648.833 486.251 649.345 488.811 649.004 491.743C648.971 492.03 648.892 492.504 648.767 493.165L635.429 491.612C635.55 492.859 635.978 493.851 636.714 494.589C637.449 495.327 638.437 495.768 639.677 495.912C641.369 496.11 642.995 495.634 644.554 494.487L647.345 497.603C645.137 499.762 642.388 500.65 639.098 500.267ZM635.752 488.207L643.941 489.16C643.918 487.901 643.592 486.861 642.963 486.038C642.357 485.219 641.494 484.744 640.374 484.613C639.277 484.486 638.316 484.748 637.492 485.401C636.693 486.033 636.113 486.968 635.752 488.207Z" fill="white"/>
<path d="M662.051 508.304L664.943 483.415L670.379 484.048L670.059 486.802C671.825 484.905 673.937 484.1 676.392 484.386C678.776 484.664 680.722 485.797 682.231 487.784C683.739 489.772 684.315 492.304 683.957 495.379C683.603 498.431 682.463 500.75 680.539 502.338C678.641 503.905 676.489 504.549 674.081 504.268C671.697 503.991 669.817 502.805 668.442 500.712L667.486 508.937L662.051 508.304ZM670.068 497.64C670.86 498.722 671.912 499.34 673.223 499.493C674.534 499.646 675.699 499.286 676.719 498.414C677.741 497.518 678.345 496.272 678.53 494.675C678.711 493.125 678.404 491.809 677.612 490.726C676.823 489.619 675.772 488.989 674.461 488.837C673.15 488.684 671.983 489.056 670.961 489.951C669.965 490.826 669.375 492.062 669.189 493.659C669.009 495.209 669.302 496.536 670.068 497.64Z" fill="white"/>
<path d="M692.239 506.383C690.356 506.164 688.844 505.456 687.702 504.26C686.584 503.067 686.134 501.54 686.35 499.681C686.585 497.654 687.454 496.209 688.956 495.345C690.481 494.484 692.424 494.191 694.784 494.465C696.381 494.651 697.912 495.095 699.377 495.798L699.415 495.476C699.686 493.139 698.451 491.812 695.71 491.492C694.065 491.301 692.261 491.441 690.297 491.913L689.42 487.607C691.876 486.854 694.414 486.63 697.037 486.935C699.921 487.271 701.995 488.238 703.26 489.835C704.481 491.378 704.936 493.497 704.623 496.191L703.33 507.312L698.074 506.7L698.315 504.626C696.672 506.078 694.647 506.663 692.239 506.383ZM694.321 502.82C695.584 502.967 696.645 502.776 697.504 502.248C698.365 501.696 698.853 500.931 698.967 499.954L699.079 498.989C698.109 498.392 696.981 498.019 695.693 497.869C694.501 497.731 693.544 497.861 692.821 498.26C692.125 498.638 691.725 499.268 691.623 500.15C691.54 500.865 691.747 501.469 692.246 501.962C692.747 502.431 693.439 502.717 694.321 502.82Z" fill="white"/>
<path d="M718.049 504.713C719.408 504.872 720.571 504.536 721.537 503.706C722.506 502.852 723.072 501.722 723.236 500.316C723.396 498.933 723.081 497.7 722.288 496.617C721.52 495.537 720.468 494.919 719.133 494.764C717.774 494.606 716.609 494.965 715.637 495.843C714.668 496.696 714.102 497.827 713.939 499.233C713.778 500.616 714.083 501.835 714.854 502.892C715.649 503.951 716.714 504.558 718.049 504.713ZM717.433 509.39C714.191 509.012 711.826 507.746 710.336 505.591C708.85 503.413 708.322 500.476 708.751 496.781C708.903 495.469 709.086 494.319 709.297 493.329C709.512 492.315 709.84 491.253 710.283 490.145C710.75 489.04 711.305 488.114 711.947 487.367C712.614 486.623 713.485 485.988 714.561 485.461C715.661 484.936 716.917 484.624 718.33 484.522L728.813 483.822L729.173 488.213L718.419 489.063C715.441 489.32 713.717 490.642 713.246 493.027C713.791 492.293 714.71 491.663 716.003 491.138C717.299 490.588 718.829 490.416 720.593 490.621C723.073 490.91 725.104 492.04 726.687 494.013C728.269 495.985 728.91 498.27 728.608 500.869C728.295 503.563 727.075 505.74 724.949 507.402C722.823 509.063 720.318 509.725 717.433 509.39Z" fill="white"/>
<path d="M748.497 510.071C746.294 511.772 743.714 512.45 740.758 512.106C737.802 511.762 735.446 510.521 733.689 508.383C731.959 506.224 731.257 503.739 731.584 500.926C731.908 498.136 733.172 495.891 735.375 494.191C737.602 492.493 740.193 491.816 743.149 492.161C746.105 492.505 748.448 493.756 750.179 495.915C751.936 498.052 752.651 500.528 752.324 503.341C752 506.13 750.724 508.374 748.497 510.071ZM741.374 507.43C742.876 507.605 744.138 507.244 745.161 506.348C746.186 505.429 746.785 504.218 746.96 502.716C747.129 501.262 746.796 499.967 745.962 498.831C745.154 497.673 744.011 497.009 742.533 496.837C741.031 496.662 739.768 497.034 738.743 497.954C737.721 498.849 737.122 500.048 736.948 501.55C736.779 503.004 737.098 504.31 737.906 505.467C738.74 506.603 739.896 507.258 741.374 507.43Z" fill="white"/>
<path d="M772.36 495.925L771.82 500.574L766.134 499.911L764.447 514.43L758.94 513.788L760.627 499.27L754.942 498.608L755.482 493.959L772.36 495.925Z" fill="white"/>
<path d="M773.099 515.437L775.326 496.27L780.762 496.903L780.026 503.233L783.959 503.691C786.272 503.96 788.057 504.712 789.315 505.945C790.597 507.182 791.117 508.837 790.876 510.911C790.641 512.938 789.799 514.459 788.352 515.474C786.932 516.468 785.066 516.831 782.753 516.562L773.099 515.437ZM782.945 507.741L779.548 507.345L779.033 511.779L782.465 512.179C784.253 512.387 785.236 511.728 785.413 510.203C785.491 509.535 785.313 508.983 784.881 508.546C784.472 508.112 783.827 507.843 782.945 507.741ZM792.658 517.715L794.886 498.548L800.321 499.181L798.094 518.348L792.658 517.715Z" fill="white"/>
</g>
<defs>
<filter id="filter0_ii" x="386.773" y="261.982" width="22.8376" height="22.8852" filterUnits="userSpaceOnUse" color-interpolation-filters="sRGB">
<feFlood flood-opacity="0" result="BackgroundImageFix"/>
<feBlend mode="normal" in="SourceGraphic" in2="BackgroundImageFix" result="shape"/>
<feColorMatrix in="SourceAlpha" type="matrix" values="0 0 0 0 0 0 0 0 0 0 0 0 0 0 0 0 0 0 127 0" result="hardAlpha"/>
<feOffset dx="2" dy="2"/>
<feGaussianBlur stdDeviation="1.5"/>
<feComposite in2="hardAlpha" operator="arithmetic" k2="-1" k3="1"/>
<feColorMatrix type="matrix" values="0 0 0 0 0.314965 0 0 0 0 0.343728 0 0 0 0 0.391667 0 0 0 1 0"/>
<feBlend mode="normal" in2="shape" result="effect1_innerShadow"/>
<feColorMatrix in="SourceAlpha" type="matrix" values="0 0 0 0 0 0 0 0 0 0 0 0 0 0 0 0 0 0 127 0" result="hardAlpha"/>
<feOffset dx="-1" dy="-1"/>
<feGaussianBlur stdDeviation="1.5"/>
<feComposite in2="hardAlpha" operator="arithmetic" k2="-1" k3="1"/>
<feColorMatrix type="matrix" values="0 0 0 0 0.124583 0 0 0 0 0.14974 0 0 0 0 0.191667 0 0 0 1 0"/>
<feBlend mode="normal" in2="effect1_innerShadow" result="effect2_innerShadow"/>
</filter>
<filter id="filter1_ii" x="434.273" y="267.522" width="22.7808" height="22.8284" filterUnits="userSpaceOnUse" color-interpolation-filters="sRGB">
<feFlood flood-opacity="0" result="BackgroundImageFix"/>
<feBlend mode="normal" in="SourceGraphic" in2="BackgroundImageFix" result="shape"/>
<feColorMatrix in="SourceAlpha" type="matrix" values="0 0 0 0 0 0 0 0 0 0 0 0 0 0 0 0 0 0 127 0" result="hardAlpha"/>
<feOffset dx="2" dy="2"/>
<feGaussianBlur stdDeviation="1.5"/>
<feComposite in2="hardAlpha" operator="arithmetic" k2="-1" k3="1"/>
<feColorMatrix type="matrix" values="0 0 0 0 0.314965 0 0 0 0 0.343728 0 0 0 0 0.391667 0 0 0 1 0"/>
<feBlend mode="normal" in2="shape" result="effect1_innerShadow"/>
<feColorMatrix in="SourceAlpha" type="matrix" values="0 0 0 0 0 0 0 0 0 0 0 0 0 0 0 0 0 0 127 0" result="hardAlpha"/>
<feOffset dx="-1" dy="-1"/>
<feGaussianBlur stdDeviation="1.5"/>
<feComposite in2="hardAlpha" operator="arithmetic" k2="-1" k3="1"/>
<feColorMatrix type="matrix" values="0 0 0 0 0.124583 0 0 0 0 0.14974 0 0 0 0 0.191667 0 0 0 1 0"/>
<feBlend mode="normal" in2="effect1_innerShadow" result="effect2_innerShadow"/>
</filter>
<filter id="filter2_ii" x="483.469" y="273.292" width="22.7779" height="22.8283" filterUnits="userSpaceOnUse" color-interpolation-filters="sRGB">
<feFlood flood-opacity="0" result="BackgroundImageFix"/>
<feBlend mode="normal" in="SourceGraphic" in2="BackgroundImageFix" result="shape"/>
<feColorMatrix in="SourceAlpha" type="matrix" values="0 0 0 0 0 0 0 0 0 0 0 0 0 0 0 0 0 0 127 0" result="hardAlpha"/>
<feOffset dx="2" dy="2"/>
<feGaussianBlur stdDeviation="1.5"/>
<feComposite in2="hardAlpha" operator="arithmetic" k2="-1" k3="1"/>
<feColorMatrix type="matrix" values="0 0 0 0 0.314965 0 0 0 0 0.343728 0 0 0 0 0.391667 0 0 0 1 0"/>
<feBlend mode="normal" in2="shape" result="effect1_innerShadow"/>
<feColorMatrix in="SourceAlpha" type="matrix" values="0 0 0 0 0 0 0 0 0 0 0 0 0 0 0 0 0 0 127 0" result="hardAlpha"/>
<feOffset dx="-1" dy="-1"/>
<feGaussianBlur stdDeviation="1.5"/>
<feComposite in2="hardAlpha" operator="arithmetic" k2="-1" k3="1"/>
<feColorMatrix type="matrix" values="0 0 0 0 0.124583 0 0 0 0 0.14974 0 0 0 0 0.191667 0 0 0 1 0"/>
<feBlend mode="normal" in2="effect1_innerShadow" result="effect2_innerShadow"/>
</filter>
<filter id="filter3_dd" x="10.957" y="296.999" width="212.597" height="120.561" filterUnits="userSpaceOnUse" color-interpolation-filters="sRGB">
<feFlood flood-opacity="0" result="BackgroundImageFix"/>
<feColorMatrix in="SourceAlpha" type="matrix" values="0 0 0 0 0 0 0 0 0 0 0 0 0 0 0 0 0 0 127 0"/>
<feOffset dx="4" dy="2"/>
<feGaussianBlur stdDeviation="4"/>
<feColorMatrix type="matrix" values="0 0 0 0 0.534167 0 0 0 0 0.645967 0 0 0 0 0.749167 0 0 0 0.54 0"/>
<feBlend mode="normal" in2="BackgroundImageFix" result="effect1_dropShadow"/>
<feColorMatrix in="SourceAlpha" type="matrix" values="0 0 0 0 0 0 0 0 0 0 0 0 0 0 0 0 0 0 127 0"/>
<feOffset dx="-4" dy="-2"/>
<feGaussianBlur stdDeviation="4"/>
<feColorMatrix type="matrix" values="0 0 0 0 1 0 0 0 0 1 0 0 0 0 1 0 0 0 1 0"/>
<feBlend mode="normal" in2="effect1_dropShadow" result="effect2_dropShadow"/>
<feBlend mode="normal" in="SourceGraphic" in2="effect2_dropShadow" result="shape"/>
</filter>
<filter id="filter4_dd" x="948.934" y="337.482" width="222.788" height="111.268" filterUnits="userSpaceOnUse" color-interpolation-filters="sRGB">
<feFlood flood-opacity="0" result="BackgroundImageFix"/>
<feColorMatrix in="SourceAlpha" type="matrix" values="0 0 0 0 0 0 0 0 0 0 0 0 0 0 0 0 0 0 127 0"/>
<feOffset dx="4" dy="2"/>
<feGaussianBlur stdDeviation="4"/>
<feColorMatrix type="matrix" values="0 0 0 0 0.534167 0 0 0 0 0.645967 0 0 0 0 0.749167 0 0 0 0.54 0"/>
<feBlend mode="normal" in2="BackgroundImageFix" result="effect1_dropShadow"/>
<feColorMatrix in="SourceAlpha" type="matrix" values="0 0 0 0 0 0 0 0 0 0 0 0 0 0 0 0 0 0 127 0"/>
<feOffset dx="-4" dy="-2"/>
<feGaussianBlur stdDeviation="4"/>
<feColorMatrix type="matrix" values="0 0 0 0 1 0 0 0 0 1 0 0 0 0 1 0 0 0 1 0"/>
<feBlend mode="normal" in2="effect1_dropShadow" result="effect2_dropShadow"/>
<feBlend mode="normal" in="SourceGraphic" in2="effect2_dropShadow" result="shape"/>
</filter>
<filter id="filter5_dd" x="573.336" y="104.911" width="222.726" height="111.325" filterUnits="userSpaceOnUse" color-interpolation-filters="sRGB">
<feFlood flood-opacity="0" result="BackgroundImageFix"/>
<feColorMatrix in="SourceAlpha" type="matrix" values="0 0 0 0 0 0 0 0 0 0 0 0 0 0 0 0 0 0 127 0"/>
<feOffset dx="4" dy="2"/>
<feGaussianBlur stdDeviation="4"/>
<feColorMatrix type="matrix" values="0 0 0 0 0.534167 0 0 0 0 0.645967 0 0 0 0 0.749167 0 0 0 0.54 0"/>
<feBlend mode="normal" in2="BackgroundImageFix" result="effect1_dropShadow"/>
<feColorMatrix in="SourceAlpha" type="matrix" values="0 0 0 0 0 0 0 0 0 0 0 0 0 0 0 0 0 0 127 0"/>
<feOffset dx="-4" dy="-2"/>
<feGaussianBlur stdDeviation="4"/>
<feColorMatrix type="matrix" values="0 0 0 0 1 0 0 0 0 1 0 0 0 0 1 0 0 0 1 0"/>
<feBlend mode="normal" in2="effect1_dropShadow" result="effect2_dropShadow"/>
<feBlend mode="normal" in="SourceGraphic" in2="effect2_dropShadow" result="shape"/>
</filter>
<linearGradient id="paint0_linear" x1="462.383" y1="698.847" x2="543.674" y2="706.34" gradientUnits="userSpaceOnUse">
<stop stop-color="#00B047"/>
<stop offset="1" stop-color="#4CD784"/>
</linearGradient>
<linearGradient id="paint1_linear" x1="542.188" y1="698.847" x2="629.696" y2="707.541" gradientUnits="userSpaceOnUse">
<stop stop-color="#00B047"/>
<stop offset="1" stop-color="#4CD784"/>
</linearGradient>
<linearGradient id="paint2_linear" x1="627.77" y1="698.847" x2="715.278" y2="707.541" gradientUnits="userSpaceOnUse">
<stop stop-color="#00B047"/>
<stop offset="1" stop-color="#4CD784"/>
</linearGradient>
<linearGradient id="paint3_linear" x1="713.355" y1="698.847" x2="800.834" y2="707.535" gradientUnits="userSpaceOnUse">
<stop stop-color="#00B047"/>
<stop offset="1" stop-color="#4CD784"/>
</linearGradient>
<linearGradient id="paint4_linear" x1="798.938" y1="698.847" x2="886.112" y2="707.474" gradientUnits="userSpaceOnUse">
<stop stop-color="#00B047"/>
<stop offset="1" stop-color="#4CD784"/>
</linearGradient>
<linearGradient id="paint5_linear" x1="676.414" y1="695.548" x2="676.414" y2="627.229" gradientUnits="userSpaceOnUse">
<stop stop-color="white"/>
<stop offset="0.12" stop-color="white" stop-opacity="0.82"/>
<stop offset="0.3" stop-color="white" stop-opacity="0.58"/>
<stop offset="0.47" stop-color="white" stop-opacity="0.37"/>
<stop offset="0.64" stop-color="white" stop-opacity="0.21"/>
<stop offset="0.78" stop-color="white" stop-opacity="0.1"/>
<stop offset="0.91" stop-color="white" stop-opacity="0.02"/>
<stop offset="1" stop-color="white" stop-opacity="0"/>
</linearGradient>
<clipPath id="clip0">
<rect y="-218" width="1224" height="1118" fill="white"/>
</clipPath>
</defs>
</svg>
