<svg width="16" height="16" viewBox="0 0 16 16" fill="none" xmlns="http://www.w3.org/2000/svg">
<circle cx="8" cy="8" r="8" fill="#1465FA"/>
<path d="M10.0386 6.58611L8.46974 10.8917L8.4599 10.9178L8.17226 10.3317L7.57073 10.6094L9.14838 6.27778L9.74991 6L10.0381 6.58611H10.0386ZM13.965 6.68778L12.3966 11L12.1085 10.4122L11.5069 10.69L11.5436 10.5889L13.1114 6.27778L13.7129 6L14 6.58611L13.965 6.68778ZM10.6074 10.4167L11.531 7.88167L10.9278 8.15944L10.6413 7.57222L9.71491 10.1067L10.002 10.6944L10.6074 10.4167ZM5.61083 7.91667H2.85199L3.32227 8.36111L2.85199 8.81278H5.60809L6.07619 8.36111L5.61083 7.91667ZM2.47029 9.79611H6.92982L6.46117 10.2444L6.92982 10.6917H2.47029L2 10.2444L2.47029 9.79611ZM3.83795 6.03611H8.29475L7.82774 6.485L8.2953 6.93222H3.8385L3.36821 6.48444L3.8385 6.03611H3.83795Z" fill="white"/>
</svg>
