<svg width="25" height="25" viewBox="0 0 25 25" fill="none" xmlns="http://www.w3.org/2000/svg">
<g clip-path="url(#clip0)">
<path d="M20.6917 23.6985C15.5587 24.2463 10.4101 24.2463 5.2771 23.6985C3.23035 23.48 1.61371 21.8634 1.39526 19.8165C0.847412 14.6835 0.847412 9.5351 1.39526 4.4021C1.61371 2.35535 3.23035 0.738708 5.2771 0.520264C10.4101 -0.0275879 15.5585 -0.0275879 20.6915 0.520264C22.7384 0.738708 24.355 2.35535 24.5735 4.4021C25.1213 9.5351 25.1213 14.6835 24.5735 19.8165C24.355 21.8634 22.7386 23.48 20.6917 23.6985Z" fill="url(#paint0_linear)"/>
<path d="M23.2681 5.27023C23.0744 3.45401 21.6399 2.01938 19.8235 1.82547C15.2686 1.33951 10.7001 1.33951 6.14517 1.82547C4.32895 2.01938 2.89432 3.45401 2.70041 5.27023C2.21445 9.82516 2.21445 14.3936 2.70041 18.9484C2.89432 20.7648 4.32895 22.1994 6.14517 22.3932C10.7001 22.8793 15.2686 22.8793 19.8233 22.3932C21.6397 22.1994 23.0744 20.7648 23.2681 18.9484C23.7542 14.3936 23.7542 9.82516 23.2681 5.27023Z" fill="url(#paint1_linear)"/>
<path d="M1.34375 19.3191C1.36023 19.485 1.37726 19.6509 1.39502 19.8168C1.61346 21.8635 3.2301 23.4802 5.27704 23.6986C10.41 24.2465 15.5584 24.2465 20.6914 23.6986C22.7383 23.4802 24.3548 21.8635 24.5732 19.8168C24.591 19.6509 24.608 19.485 24.6247 19.3191H1.34375Z" fill="url(#paint2_linear)"/>
<path d="M17.1186 4.10626C15.0275 4.10626 13.3325 5.80145 13.3325 7.89252V10.7206H11.2949V14.2221L13.3325 16.0471V24.1082C15.7865 24.0963 18.2403 23.9598 20.6908 23.6984C22.7377 23.4799 24.3542 21.8633 24.5726 19.8163C24.9802 15.9971 25.0844 12.1695 24.8854 8.34589L20.6458 4.10626H17.1186Z" fill="url(#paint3_linear)"/>
<path d="M13.3325 24.1082C14.7309 24.1014 16.1291 24.054 17.5267 23.9661V14.2221H20.3096L20.6458 10.7206H17.5267V8.49713C17.5267 8.00604 17.9248 7.60797 18.4159 7.60797H20.6458V4.10626H17.1186C15.0275 4.10626 13.3325 5.80145 13.3325 7.89252V10.7206H11.2949V14.2221H13.3325V24.1082Z" fill="white"/>
</g>
<defs>
<linearGradient id="paint0_linear" x1="8.95284" y1="3.48373" x2="15.0231" y2="16.4713" gradientUnits="userSpaceOnUse">
<stop stop-color="#3457A0"/>
<stop offset="1" stop-color="#3B5998"/>
</linearGradient>
<linearGradient id="paint1_linear" x1="17.537" y1="15.2375" x2="-3.44291" y2="0.822295" gradientUnits="userSpaceOnUse">
<stop stop-color="#3457A0" stop-opacity="0"/>
<stop offset="1" stop-color="#1F3F77"/>
</linearGradient>
<linearGradient id="paint2_linear" x1="12.9841" y1="20.1661" x2="12.9841" y2="23.4137" gradientUnits="userSpaceOnUse">
<stop stop-color="#3457A0" stop-opacity="0"/>
<stop offset="1" stop-color="#1F3F77"/>
</linearGradient>
<linearGradient id="paint3_linear" x1="28.5356" y1="19.9294" x2="11.8776" y2="11.5298" gradientUnits="userSpaceOnUse">
<stop stop-color="#3457A0" stop-opacity="0"/>
<stop offset="0.3251" stop-color="#2A4C8D" stop-opacity="0.32549"/>
<stop offset="0.7045" stop-color="#22427D" stop-opacity="0.705882"/>
<stop offset="1" stop-color="#1F3F77"/>
</linearGradient>
<clipPath id="clip0">
<rect x="0.984375" y="0.109375" width="24" height="24" fill="white"/>
</clipPath>
</defs>
</svg>
