<svg width="25" height="25" viewBox="0 0 25 25" fill="none" xmlns="http://www.w3.org/2000/svg">
<g clip-path="url(#clip0)">
<path d="M24.5735 4.4021C24.355 2.35535 22.7386 0.738525 20.6917 0.520264C15.5585 -0.0275879 10.4103 -0.0275879 5.27728 0.520264C3.23035 0.738708 1.61371 2.35535 1.39526 4.4021C0.847412 9.5351 0.847412 14.6835 1.39526 19.8165C1.61371 21.8634 3.23035 23.48 5.2771 23.6985C10.4101 24.2463 15.5585 24.2463 20.6917 23.6985C22.7386 23.48 24.355 21.8634 24.5735 19.8165C25.1213 14.6835 25.1213 9.53528 24.5735 4.4021Z" fill="url(#paint0_radial)"/>
<path d="M23.2681 5.27011C23.0744 3.45389 21.6399 2.01926 19.8235 1.82535C15.2686 1.33939 10.7001 1.33939 6.14517 1.82535C4.32895 2.01926 2.89432 3.45389 2.70041 5.27011C2.21445 9.82504 2.21445 14.3935 2.70041 18.9483C2.89432 20.7647 4.32895 22.1993 6.14517 22.393C10.7001 22.8792 15.2686 22.8792 19.8233 22.393C21.6397 22.1993 23.0744 20.7647 23.2681 18.9483C23.7542 14.3935 23.7542 9.82504 23.2681 5.27011Z" fill="url(#paint1_linear)"/>
<path d="M1.34375 19.3188C1.36023 19.4847 1.37726 19.6506 1.39502 19.8165C1.61346 21.8633 3.2301 23.4799 5.27704 23.6984C10.41 24.2462 15.5584 24.2462 20.6914 23.6984C22.7383 23.4799 24.3548 21.8633 24.5732 19.8165C24.591 19.6506 24.608 19.4847 24.6247 19.3188H1.34375Z" fill="url(#paint2_linear)"/>
<path d="M24.5732 19.8164C24.8676 17.0583 25.0035 14.2957 24.9815 11.5336L19.4957 6.04776C18.8103 5.26535 17.8093 4.77701 16.633 4.73471C14.214 4.64755 11.7873 4.65194 9.36792 4.73507C7.35852 4.80429 5.95337 6.15487 5.59302 8.13992C5.52948 8.49038 5.49139 8.84543 5.44141 9.19845V15.0179C5.46906 15.2065 5.5097 15.3942 5.52234 15.5839C5.60291 16.7913 6.09912 17.8255 6.89362 18.5251L12.4761 24.1075C15.2158 24.1267 17.9556 23.9904 20.6913 23.6984C22.7383 23.4799 24.3547 21.8633 24.5732 19.8164Z" fill="url(#paint3_linear)"/>
<path d="M24.5733 19.8166C24.355 21.8632 22.738 23.4802 20.6915 23.6985C17.9561 23.9904 15.2157 24.1268 12.4764 24.1075L6.90234 18.5334C7.54852 19.0991 8.39081 19.4435 9.36822 19.4803C11.787 19.5711 14.2143 19.5687 16.6331 19.4816C18.8209 19.4025 20.404 17.7833 20.4723 15.5955C20.5452 13.2726 20.5452 10.9437 20.4723 8.62085C20.4412 7.61157 20.0869 6.72351 19.4994 6.05151L24.9818 11.5339C25.0034 14.2957 24.8676 17.0585 24.5733 19.8166Z" fill="url(#paint4_linear)"/>
<path d="M15.8167 9.51056C15.1139 8.74536 14.1055 8.26526 12.9847 8.26526C10.8618 8.26526 9.14062 9.98645 9.14062 12.1094C9.14062 13.2302 9.62073 14.2385 10.3859 14.9413L19.2799 23.8353C19.7507 23.7942 20.2214 23.7487 20.6918 23.6985C22.7388 23.48 24.3554 21.8634 24.5739 19.8165C24.624 19.3461 24.6696 18.8753 24.7106 18.4045L15.8167 9.51056Z" fill="url(#paint5_linear)"/>
<path d="M24.9382 14.6946L17.7802 7.53687C17.6132 7.31769 17.3501 7.17542 17.0533 7.17542C16.5483 7.17542 16.1387 7.58484 16.1387 8.09003C16.1387 8.38684 16.2809 8.64996 16.5001 8.81696L24.8102 17.1272C24.8666 16.3166 24.9092 15.5056 24.9382 14.6946Z" fill="url(#paint6_linear)"/>
<path d="M5.44141 9.19845C5.49139 8.84543 5.52948 8.49038 5.59302 8.13992C5.95319 6.15487 7.35852 4.80429 9.36792 4.73507C11.7873 4.65194 14.214 4.64755 16.633 4.73471C18.82 4.81344 20.4039 6.43283 20.4722 8.62057C20.5449 10.9436 20.5449 13.2724 20.4722 15.5954C20.4039 17.7832 18.8206 19.4024 16.6332 19.4813C14.2142 19.5686 11.7869 19.5708 9.3681 19.48C7.18073 19.3978 5.66864 17.7747 5.52234 15.5837C5.5097 15.3942 5.46906 15.2063 5.44141 15.0177C5.44141 13.0779 5.44141 11.1381 5.44141 9.19845ZM12.9861 18.1847C14.0931 18.1847 15.2013 18.2179 16.3069 18.177C18.0403 18.1128 19.1066 17.0782 19.147 15.3464C19.1972 13.1885 19.1972 11.0277 19.147 8.8696C19.1066 7.13815 18.0396 6.07943 16.3069 6.04263C14.1076 5.99612 11.9059 5.99649 9.70667 6.04263C7.98712 6.0787 6.91779 7.11599 6.87109 8.8284C6.81177 11.0136 6.81177 13.2026 6.87109 15.3878C6.91779 17.1 7.98712 18.1133 9.70685 18.177C10.7985 18.2177 11.8929 18.1847 12.9861 18.1847Z" fill="url(#paint7_linear)"/>
<path d="M5.44141 9.19845C5.49139 8.84543 5.52948 8.49038 5.59302 8.13992C5.95319 6.15487 7.35852 4.80429 9.36792 4.73507C11.7873 4.65194 14.214 4.64755 16.633 4.73471C18.82 4.81344 20.4039 6.43283 20.4722 8.62057C20.5449 10.9436 20.5449 13.2724 20.4722 15.5954C20.4039 17.7832 18.8206 19.4024 16.6332 19.4813C14.2142 19.5686 11.7869 19.5708 9.3681 19.48C7.18073 19.3978 5.66864 17.7747 5.52234 15.5837C5.5097 15.3942 5.46906 15.2063 5.44141 15.0177C5.44141 13.0779 5.44141 11.1381 5.44141 9.19845ZM12.9861 18.1847C14.0931 18.1847 15.2013 18.2179 16.3069 18.177C18.0403 18.1128 19.1066 17.0782 19.147 15.3464C19.1972 13.1885 19.1972 11.0277 19.147 8.8696C19.1066 7.13815 18.0396 6.07943 16.3069 6.04263C14.1076 5.99612 11.9059 5.99649 9.70667 6.04263C7.98712 6.0787 6.91779 7.11599 6.87109 8.8284C6.81177 11.0136 6.81177 13.2026 6.87109 15.3878C6.91779 17.1 7.98712 18.1133 9.70685 18.177C10.7985 18.2177 11.8929 18.1847 12.9861 18.1847Z" fill="white"/>
<path d="M12.9847 8.26532C10.8618 8.26532 9.14062 9.98633 9.14062 12.1093C9.14062 14.2324 10.8618 15.9534 12.9847 15.9534C15.1078 15.9534 16.8289 14.2324 16.8289 12.1093C16.8289 9.98633 15.1078 8.26532 12.9847 8.26532ZM12.9847 14.6299C11.5926 14.6299 10.4641 13.5014 10.4641 12.1093C10.4641 10.7171 11.5926 9.58862 12.9847 9.58862C14.3769 9.58862 15.5054 10.7171 15.5054 12.1093C15.5054 13.5014 14.3769 14.6299 12.9847 14.6299Z" fill="white"/>
<path d="M17.9677 8.09003C17.9677 8.59503 17.5583 9.00446 17.0533 9.00446C16.5483 9.00446 16.1387 8.59503 16.1387 8.09003C16.1387 7.58484 16.5483 7.17542 17.0533 7.17542C17.5583 7.17542 17.9677 7.58484 17.9677 8.09003Z" fill="white"/>
</g>
<defs>
<radialGradient id="paint0_radial" cx="0" cy="0" r="1" gradientUnits="userSpaceOnUse" gradientTransform="translate(5.90424 21.0835) scale(26.4678)">
<stop stop-color="#FAE100"/>
<stop offset="0.0544" stop-color="#FADC04"/>
<stop offset="0.1167" stop-color="#FBCE0E"/>
<stop offset="0.1829" stop-color="#FCB720"/>
<stop offset="0.2514" stop-color="#FE9838"/>
<stop offset="0.3054" stop-color="#FF7950"/>
<stop offset="0.4922" stop-color="#FF1C74"/>
<stop offset="1" stop-color="#6C1CD1"/>
</radialGradient>
<linearGradient id="paint1_linear" x1="10.1893" y1="10.5371" x2="-30.4695" y2="-12.3335" gradientUnits="userSpaceOnUse">
<stop stop-color="#A1B5D8" stop-opacity="0"/>
<stop offset="0.3094" stop-color="#90A2BD" stop-opacity="0.309804"/>
<stop offset="0.7554" stop-color="#7C8B9C" stop-opacity="0.756863"/>
<stop offset="1" stop-color="#748290"/>
</linearGradient>
<linearGradient id="paint2_linear" x1="12.9841" y1="21.2952" x2="12.9841" y2="25.0362" gradientUnits="userSpaceOnUse">
<stop stop-color="#FAE100" stop-opacity="0"/>
<stop offset="0.3068" stop-color="#FCA800" stop-opacity="0.305882"/>
<stop offset="0.6275" stop-color="#FE7300" stop-opacity="0.627451"/>
<stop offset="0.8685" stop-color="#FF5200" stop-opacity="0.866667"/>
<stop offset="1" stop-color="#FF4500"/>
</linearGradient>
<linearGradient id="paint3_linear" x1="11.6187" y1="10.71" x2="5.6791" y2="4.77035" gradientUnits="userSpaceOnUse">
<stop stop-color="#833AB4" stop-opacity="0"/>
<stop offset="1" stop-color="#833AB4"/>
</linearGradient>
<linearGradient id="paint4_linear" x1="17.4326" y1="22.0603" x2="14.468" y2="8.08457" gradientUnits="userSpaceOnUse">
<stop stop-color="#833AB4" stop-opacity="0"/>
<stop offset="1" stop-color="#833AB4"/>
</linearGradient>
<linearGradient id="paint5_linear" x1="18.5612" y1="17.6859" x2="6.65386" y2="5.77848" gradientUnits="userSpaceOnUse">
<stop stop-color="#833AB4" stop-opacity="0"/>
<stop offset="1" stop-color="#833AB4"/>
</linearGradient>
<linearGradient id="paint6_linear" x1="19.4444" y1="10.4811" x2="15.5068" y2="6.54354" gradientUnits="userSpaceOnUse">
<stop stop-color="#833AB4" stop-opacity="0"/>
<stop offset="1" stop-color="#833AB4"/>
</linearGradient>
<linearGradient id="paint7_linear" x1="17.7493" y1="7.37723" x2="8.04075" y2="17.0858" gradientUnits="userSpaceOnUse">
<stop stop-color="#833AB4"/>
<stop offset="0.0922" stop-color="#9C3495"/>
<stop offset="0.2927" stop-color="#DC2546"/>
<stop offset="0.392" stop-color="#FD1D1D"/>
<stop offset="0.5589" stop-color="#FC6831"/>
<stop offset="0.6887" stop-color="#FC9B40"/>
<stop offset="0.7521" stop-color="#FCAF45"/>
<stop offset="0.7806" stop-color="#FDB750"/>
<stop offset="0.8656" stop-color="#FECB6A"/>
<stop offset="0.9415" stop-color="#FFD87A"/>
<stop offset="1" stop-color="#FFDC80"/>
</linearGradient>
<clipPath id="clip0">
<rect x="0.984375" y="0.109375" width="24" height="24" fill="white"/>
</clipPath>
</defs>
</svg>
