<svg width="97" height="50" viewBox="0 0 97 50" fill="none" xmlns="http://www.w3.org/2000/svg">
<g clip-path="url(#clip0)">
<path d="M24.5898 21.6879C24.5936 20.4878 24.8379 19.3006 25.3082 18.1965C25.7706 17.0633 26.4462 16.0293 27.2982 15.1506C28.1837 14.2409 29.2443 13.52 30.416 13.0313C31.6656 12.5124 33.007 12.251 34.36 12.2626C35.7014 12.25 37.0313 12.5116 38.268 13.0313C40.5788 14.0116 42.411 15.8619 43.3686 18.1822C43.8333 19.2926 44.0726 20.4842 44.0726 21.6879C44.0726 22.8916 43.8333 24.0833 43.3686 25.1937C42.9031 26.3249 42.2251 27.3564 41.3715 28.2325C40.4882 29.1364 39.433 29.8545 38.268 30.3445C37.0326 30.8693 35.7021 31.1334 34.36 31.1204C33.0038 31.134 31.6592 30.8699 30.4088 30.3445C29.2365 29.8407 28.1766 29.108 27.291 28.1894C26.4318 27.315 25.7532 26.2799 25.2939 25.1434C24.836 24.0485 24.5968 22.8747 24.5898 21.6879ZM29.0223 21.6879C29.0125 22.7053 29.2388 23.711 29.6832 24.6261C30.0952 25.5052 30.7446 26.2517 31.5582 26.7813C32.3999 27.291 33.3652 27.5605 34.3492 27.5605C35.3332 27.5605 36.2984 27.291 37.1401 26.7813C37.9422 26.2642 38.586 25.5359 39.0008 24.6764C39.4418 23.7527 39.6655 22.7402 39.6545 21.7167C39.6641 20.7032 39.4352 19.7016 38.9864 18.7928C38.5694 17.917 37.9211 17.1718 37.1114 16.6376C36.282 16.1119 35.3203 15.8328 34.3384 15.8328C33.3565 15.8328 32.3948 16.1119 31.5654 16.6376C30.7555 17.1735 30.1052 17.9181 29.6832 18.7928C29.2412 19.7037 29.015 20.7042 29.0223 21.7167V21.6879Z" fill="#14B5B9"/>
<path d="M57.4217 21.4725V12.6363H61.0137V31.1205H60.6616L50.0295 21.6377V30.7397H46.4375V12.2627H46.8973L57.4217 21.4725Z" fill="#14B5B9"/>
<path d="M86.761 24.7124L80.9492 12.6362H85.353L88.9449 20.1434L92.5369 12.6362H96.9837L91.1647 24.7124V30.7397H86.761V24.7124Z" fill="#14B5B9"/>
<path d="M18.5619 30.7398H22.9872L20.2789 18.9941C19.1869 20.6752 18.1237 22.4352 17.082 24.2456L18.5619 30.7398Z" fill="#14B5B9"/>
<path d="M4.83477 12.2627H4.26724L0 30.7397H4.43247L6.27874 22.5357L8.1681 25.6822C8.85297 24.3796 9.57136 23.0912 10.3233 21.8173L4.83477 12.2627Z" fill="#14B5B9"/>
<path d="M30.2166 -0.000121332C29.5998 0.016716 28.9851 0.0791468 28.3775 0.18666C27.5442 0.311181 26.0691 0.435702 23.9522 0.560224C21.8353 0.684745 20.104 0.737427 18.7582 0.71827C16.6378 0.743621 14.5188 0.597068 12.422 0.280051C11.6427 0.124946 10.8525 0.0312668 10.0585 -0.000121332C9.8109 -0.0167659 9.56266 0.0216263 9.33163 0.112299C9.10061 0.202971 8.89252 0.343674 8.72232 0.524304C8.72232 0.524304 5.53985 7.12632 5.53266 7.1335C5.29242 7.70368 5.15383 8.31151 5.12318 8.92948C5.12754 9.29353 5.25978 9.64445 5.49675 9.92086C5.58659 10.0557 5.70686 10.1676 5.84786 10.2474C5.98887 10.3273 6.14666 10.3729 6.30853 10.3806C6.62681 10.3521 6.93348 10.247 7.20241 10.0744C7.47134 9.90179 7.69456 9.66673 7.85307 9.38925C8.51511 8.3904 9.23472 7.43093 10.0082 6.51568C10.9598 5.82841 12.1195 5.4909 13.2913 5.56022C15.5901 5.56022 19.958 5.80448 23.7582 5.56022C19.3186 9.64068 14.764 16.0918 10.9206 22.8734C10.2022 24.1522 9.48381 25.4453 8.81571 26.7384C4.39761 35.3591 1.33008 43.8576 1.33008 48.3117C1.33008 50.2082 2.15623 50.2872 2.96083 49.6407C6.33008 46.9252 9.00249 46.6953 9.00249 45.2585C9.00249 37.9597 12.5082 29.8131 16.7108 22.6292C17.7525 20.8404 18.866 19.1091 19.9292 17.4711C25.0226 9.78436 30.1016 4.01568 30.7051 3.04586C31.5456 1.70965 33.6074 -0.000121332 30.2166 -0.000121332Z" fill="url(#paint0_linear)"/>
<path d="M79.4462 21.6304L75.2364 19.0873V19.8488H70.0999V20.5672L65.8902 18.0241C70.9836 14.9565 65.3083 18.3761 70.0999 15.481V16.1994H75.2364V16.9609L79.4462 14.4178L75.2364 11.8818V12.6361H63.7422V30.7396H75.2364V31.458L79.4462 28.9149L75.2364 26.379V27.0974H70.0999V27.7655L65.8902 25.2224L70.0999 22.6793V23.3545H75.2364V24.0729L79.4462 21.6304Z" fill="#8596A5"/>
</g>
<defs>
<linearGradient id="paint0_linear" x1="1.33008" y1="-0.00390625" x2="35.1989" y2="2.19263" gradientUnits="userSpaceOnUse">
<stop stop-color="#00B047"/>
<stop offset="1" stop-color="#4CD784"/>
</linearGradient>
<clipPath id="clip0">
<rect width="96.9828" height="50" fill="white"/>
</clipPath>
</defs>
</svg>
