<svg width="416" height="313" viewBox="0 0 416 313" fill="none" xmlns="http://www.w3.org/2000/svg">
<path d="M207.778 36.854L76.3516 151.29L338.82 149.592L207.778 36.854Z" fill="#363C46"/>
<path d="M338.819 149.616L76.3398 151.311L77.384 313L339.863 311.305L338.819 149.616Z" fill="#31373A"/>
<path d="M296.531 90.3242H119.689C111.216 90.3242 104.348 97.1928 104.348 105.666V252.85C104.348 261.323 111.216 268.191 119.689 268.191H296.531C305.004 268.191 311.872 261.323 311.872 252.85V105.666C311.872 97.1928 305.004 90.3242 296.531 90.3242Z" fill="url(#paint0_linear)"/>
<path d="M171.026 233.217L77.3765 312.982L76.3516 153.259L171.026 233.217Z" fill="#7F848C"/>
<path d="M339.885 312.327L244.266 232.882L338.828 151.547L339.885 312.327Z" fill="#7F848C"/>
<path d="M207.39 200.294L76.332 311.943L340.963 311.27L207.39 200.294Z" fill="#5A6367"/>
<path d="M235.027 110.488H183.686C173.232 110.488 164.758 118.962 164.758 129.416V180.757C164.758 191.211 173.232 199.685 183.686 199.685H235.027C245.481 199.685 253.956 191.211 253.956 180.757V129.416C253.956 118.962 245.481 110.488 235.027 110.488Z" fill="url(#paint1_linear)"/>
<g filter="url(#filter0_i)">
<path d="M232.337 115.163H186.361C177.003 115.163 169.418 122.749 169.418 132.106V178.082C169.418 187.439 177.003 195.025 186.361 195.025H232.337C241.694 195.025 249.28 187.439 249.28 178.082V132.106C249.28 122.749 241.694 115.163 232.337 115.163Z" fill="white"/>
</g>
<path d="M187.137 159.107C187.137 143.189 198.667 132.748 211.974 132.748C223.985 132.748 231.527 140.755 231.527 152.493C231.527 162.902 225.042 168.299 219.629 168.299C216.426 168.299 213.864 166.698 213.464 163.767H213.336C212.487 164.914 211.407 165.87 210.166 166.573C208.924 167.277 207.549 167.712 206.129 167.851C202.078 167.851 198.923 164.84 198.923 159.443C198.923 153.038 203.423 145.607 210.357 145.607C211.352 145.575 212.335 145.832 213.188 146.346C214.04 146.86 214.726 147.61 215.161 148.506H215.289L215.946 146.088H219.149L216.891 158.05C215.722 162.758 216.891 165.016 220.093 165.016C223.809 165.016 228.1 160.436 228.1 152.717C228.1 143.109 222.431 136.079 211.606 136.079C200.781 136.079 190.788 145.111 190.788 158.995C190.788 170.637 198.362 177.219 208.499 177.219C211.879 177.187 215.192 176.271 218.108 174.56L219.437 177.475C216.006 179.504 212.084 180.551 208.099 180.502C196.457 180.47 187.137 173.023 187.137 159.107ZM212.551 160.965L214.152 151.516C213.823 150.78 213.288 150.154 212.612 149.714C211.936 149.274 211.148 149.038 210.341 149.034C205.665 149.034 202.782 154.655 202.782 159.139C202.782 162.966 204.56 164.472 206.946 164.472C208.708 164.456 210.485 163.431 212.551 160.965Z" fill="url(#paint2_linear)"/>
<path d="M83.1513 57.1616H80.6211V68.9959H83.1513V57.1616Z" fill="url(#paint3_linear)"/>
<path d="M87.807 61.8032H75.9727V64.3334H87.807V61.8032Z" fill="url(#paint4_linear)"/>
<path d="M376.29 258.844H373.984V269.589H376.29V258.844Z" fill="#D9E1E8"/>
<path d="M380.511 263.053H369.766V265.359H380.511V263.053Z" fill="#D9E1E8"/>
<path d="M368.882 108.405H366.352V119.151H368.882V108.405Z" fill="url(#paint5_linear)"/>
<path d="M372.995 112.502H362.25V115.033H372.995V112.502Z" fill="url(#paint6_linear)"/>
<path d="M259.777 1.59229H258.176V12.3376H259.777V1.59229Z" fill="#D9E1E8"/>
<path d="M264.343 6.17188H253.598V7.77327H264.343V6.17188Z" fill="#D9E1E8"/>
<path d="M53.2263 255.883H50.6641V267.878H53.2263V255.883Z" fill="url(#paint7_linear)"/>
<path d="M57.9515 260.607H45.957V263.169H57.9515V260.607Z" fill="url(#paint8_linear)"/>
<path d="M357.219 73.5592C356.294 73.5623 355.388 73.2908 354.617 72.7789C353.846 72.267 353.244 71.5378 352.888 70.6837C352.532 69.8295 352.437 68.8888 352.615 67.9807C352.794 67.0725 353.238 66.2379 353.891 65.5823C354.545 64.9267 355.378 64.4798 356.285 64.2981C357.193 64.1163 358.134 64.208 358.989 64.5614C359.845 64.9149 360.576 65.5142 361.09 66.2835C361.605 67.0529 361.88 67.9576 361.88 68.8831C361.88 70.1205 361.389 71.3074 360.516 72.1839C359.642 73.0604 358.457 73.5549 357.219 73.5592ZM357.219 65.8084C356.611 65.8052 356.015 65.9829 355.507 66.3188C354.999 66.6547 354.603 67.1338 354.367 67.6953C354.132 68.2568 354.069 68.8756 354.186 69.473C354.303 70.0705 354.594 70.6199 355.024 71.0515C355.453 71.4831 356.001 71.7775 356.598 71.8975C357.195 72.0174 357.814 71.9575 358.376 71.7252C358.939 71.493 359.42 71.0989 359.759 70.5929C360.097 70.087 360.278 69.4919 360.278 68.8831C360.278 68.0704 359.956 67.2908 359.383 66.7146C358.81 66.1384 358.032 65.8126 357.219 65.8084Z" fill="#D9E1E8"/>
<path d="M47.6185 141.235C46.4308 141.235 45.2697 140.883 44.2822 140.223C43.2946 139.563 42.5249 138.625 42.0704 137.528C41.6159 136.431 41.497 135.223 41.7287 134.058C41.9604 132.893 42.5323 131.823 43.3722 130.984C44.212 130.144 45.282 129.572 46.4469 129.34C47.6118 129.108 48.8193 129.227 49.9166 129.682C51.0139 130.136 51.9518 130.906 52.6117 131.894C53.2715 132.881 53.6237 134.042 53.6237 135.23C53.6237 136.823 52.991 138.35 51.8648 139.476C50.7386 140.602 49.2112 141.235 47.6185 141.235ZM47.6185 130.826C46.7475 130.826 45.8961 131.084 45.1719 131.568C44.4477 132.052 43.8832 132.74 43.5499 133.545C43.2166 134.349 43.1294 135.235 43.2993 136.089C43.4692 136.943 43.8886 137.728 44.5045 138.344C45.1204 138.96 45.9051 139.379 46.7593 139.549C47.6136 139.719 48.4991 139.632 49.3038 139.298C50.1085 138.965 50.7963 138.401 51.2802 137.676C51.7641 136.952 52.0223 136.101 52.0223 135.23C52.0139 134.067 51.5462 132.956 50.7212 132.137C49.8963 131.318 48.7809 130.858 47.6185 130.858V130.826Z" fill="#D9E1E8"/>
<g filter="url(#filter1_dd)">
<path d="M157.269 22.4373L141.421 10.5255C138.593 8.39989 134.578 8.96925 132.452 11.7972L120.54 27.6449C118.415 30.4728 118.984 34.4885 121.812 36.6141L137.66 48.5259C140.488 50.6515 144.503 50.0821 146.629 47.2542L158.541 31.4064C160.666 28.5785 160.097 24.5629 157.269 22.4373Z" fill="#E8EDF1"/>
</g>
<path d="M131.385 24.356C132.19 23.1606 133.229 22.1409 134.439 21.3582C135.649 20.5756 137.005 20.0463 138.426 19.8024C139.846 19.5584 141.301 19.6048 142.703 19.9388C144.105 20.2728 145.425 20.8875 146.582 21.7457C147.517 22.3628 148.31 23.1726 148.906 24.1208C149.503 25.069 149.89 26.1337 150.041 27.2436C150.193 28.3536 150.106 29.4831 149.785 30.5565C149.465 31.63 148.919 32.6226 148.184 33.4679C145.525 37.007 141.938 37.1831 140.177 35.7899C139.647 35.4953 139.253 35.0068 139.077 34.4273C138.901 33.8478 138.956 33.2226 139.232 32.6832C138.647 32.8554 138.033 32.9031 137.429 32.8231C136.825 32.7431 136.244 32.5372 135.725 32.2188C135.381 31.9393 135.098 31.5914 134.895 31.1971C134.693 30.8028 134.574 30.3706 134.547 29.9281C134.52 29.4855 134.585 29.0421 134.738 28.626C134.891 28.2099 135.129 27.8301 135.437 27.5107C137.038 25.3648 140.497 23.9556 142.867 25.7332C143.208 25.9805 143.471 26.3194 143.627 26.7106C143.783 27.1018 143.825 27.5291 143.748 27.9431L144.597 27.2865L145.702 28.1192L141.858 31.5783C140.257 32.8754 140.065 33.9323 141.186 34.781C142.307 35.6298 145.077 35.2615 147.047 32.6352C147.679 31.9285 148.15 31.0931 148.428 30.1865C148.706 29.2799 148.783 28.3238 148.655 27.3843C148.528 26.4448 148.197 25.5442 147.687 24.7449C147.177 23.9455 146.5 23.2664 145.702 22.7546C144.691 22.0575 143.552 21.5685 142.351 21.3159C141.149 21.0633 139.91 21.0521 138.704 21.2831C137.499 21.5141 136.351 21.9826 135.328 22.6614C134.305 23.3401 133.428 24.2156 132.746 25.2367C132.065 26.002 131.555 26.9044 131.252 27.8832C130.948 28.8619 130.858 29.8944 130.987 30.911C131.116 31.9276 131.461 32.9048 131.999 33.7767C132.538 34.6487 133.256 35.3952 134.107 35.9661C135.271 36.8331 136.639 37.3847 138.079 37.5675L137.775 38.8966C136.091 38.7141 134.489 38.0714 133.147 37.039C132.128 36.3776 131.264 35.5049 130.612 34.4802C129.96 33.4555 129.537 32.3026 129.37 31.0997C129.203 29.8969 129.296 28.6722 129.644 27.5086C129.992 26.3451 130.585 25.2699 131.385 24.356ZM139.568 31.4822L142.563 28.6957C142.635 28.3614 142.61 28.0134 142.491 27.6927C142.372 27.3721 142.163 27.0923 141.89 26.8862C140.289 25.6851 137.887 26.8862 136.734 28.3915C135.757 29.6886 135.981 30.6655 136.734 31.274C137.166 31.5348 137.654 31.6896 138.158 31.7257C138.662 31.7619 139.167 31.6785 139.632 31.4822H139.568Z" fill="#7F848C"/>
<g filter="url(#filter2_dd)">
<path d="M44.5775 215.7L28.7298 203.788C25.9019 201.662 21.8862 202.232 19.7607 205.06L7.84885 220.907C5.72326 223.735 6.29263 227.751 9.12056 229.877L24.9683 241.788C27.7962 243.914 31.8119 243.345 33.9375 240.517L45.8493 224.669C47.9748 221.841 47.4055 217.825 44.5775 215.7Z" fill="#E8EDF1"/>
</g>
<path d="M18.6914 217.61C19.4952 216.413 20.5332 215.392 21.7427 214.608C22.9522 213.823 24.3081 213.293 25.7285 213.047C27.1489 212.802 28.6044 212.847 30.0069 213.179C31.4094 213.512 32.7299 214.126 33.8887 214.983C34.8236 215.6 35.6159 216.41 36.2124 217.358C36.809 218.307 37.196 219.371 37.3477 220.481C37.4993 221.591 37.412 222.721 37.0916 223.794C36.7713 224.868 36.2252 225.86 35.4901 226.705C32.8317 230.245 29.2446 230.421 27.403 229.044C26.8726 228.746 26.478 228.255 26.3019 227.672C26.1258 227.09 26.1818 226.463 26.4582 225.921C25.8774 226.095 25.2664 226.145 24.665 226.068C24.0635 225.991 23.4851 225.788 22.9671 225.472C22.6218 225.194 22.338 224.847 22.1338 224.453C21.9296 224.06 21.8094 223.628 21.7807 223.185C21.7521 222.743 21.8158 222.299 21.9676 221.882C22.1195 221.465 22.3562 221.085 22.6629 220.764C24.2643 218.602 27.7393 217.209 30.0933 218.987C30.4402 219.229 30.7085 219.567 30.865 219.96C31.0216 220.352 31.0595 220.783 30.9741 221.197L31.8228 220.54L32.9278 221.373L29.0845 224.832C27.4831 226.129 27.2909 227.186 28.4119 228.035C29.5329 228.883 32.2872 228.515 34.273 225.889C34.9045 225.181 35.3747 224.345 35.6513 223.437C35.9278 222.53 36.004 221.574 35.8745 220.634C35.7451 219.694 35.4131 218.794 34.9016 217.996C34.39 217.197 33.7111 216.519 32.9118 216.008C31.9028 215.313 30.7658 214.825 29.5668 214.572C28.3678 214.32 27.1305 214.308 25.9269 214.538C24.7232 214.767 23.5771 215.233 22.5549 215.909C21.5328 216.585 20.655 217.457 19.9725 218.474C19.291 219.24 18.7813 220.142 18.4778 221.121C18.1743 222.1 18.084 223.132 18.213 224.149C18.3419 225.165 18.6872 226.142 19.2255 227.014C19.7638 227.886 20.4827 228.633 21.3337 229.204C22.4889 230.075 23.853 230.628 25.2891 230.805L25.0009 232.134C23.3108 231.946 21.7046 231.298 20.3569 230.261C19.3506 229.591 18.4992 228.714 17.8599 227.688C17.2207 226.662 16.8083 225.512 16.6506 224.313C16.4928 223.115 16.5933 221.897 16.9453 220.741C17.2973 219.584 17.8927 218.517 18.6914 217.61ZM26.8585 224.736L29.8531 221.949C29.9303 221.614 29.9094 221.264 29.793 220.94C29.6766 220.616 29.4695 220.333 29.1966 220.124C27.5952 218.939 25.1771 220.124 24.0401 221.645C22.9031 223.166 23.2714 223.903 24.0401 224.512C24.4635 224.757 24.9363 224.904 25.4239 224.943C25.9116 224.981 26.4017 224.911 26.8585 224.736Z" fill="#7F848C"/>
<g filter="url(#filter3_dd)">
<path d="M390.465 205.203L374.269 210.232C371.372 211.131 369.753 214.209 370.652 217.106L375.681 233.302C376.581 236.199 379.659 237.819 382.556 236.919L398.752 231.89C401.649 230.991 403.268 227.913 402.369 225.016L397.34 208.82C396.44 205.923 393.362 204.303 390.465 205.203Z" fill="#E8EDF1"/>
</g>
<path d="M378.812 224.187C378.386 223.029 378.199 221.797 378.262 220.565C378.325 219.332 378.636 218.126 379.178 217.017C379.72 215.908 380.48 214.921 381.413 214.114C382.347 213.306 383.434 212.697 384.609 212.321C385.51 211.981 386.473 211.838 387.433 211.902C388.393 211.965 389.329 212.233 390.177 212.688C391.025 213.144 391.766 213.775 392.35 214.54C392.933 215.306 393.346 216.187 393.561 217.125C394.682 220.744 393.001 223.323 391.127 223.899C390.656 224.119 390.118 224.148 389.626 223.981C389.134 223.814 388.725 223.463 388.485 223.002C388.311 223.495 388.036 223.947 387.678 224.327C387.319 224.708 386.885 225.009 386.403 225.212C386.037 225.317 385.654 225.343 385.277 225.289C384.901 225.235 384.54 225.103 384.218 224.901C383.896 224.698 383.621 224.43 383.41 224.114C383.198 223.798 383.056 223.441 382.992 223.066C382.303 220.856 383.072 217.766 385.474 217.013C385.818 216.896 386.188 216.881 386.54 216.969C386.892 217.057 387.211 217.245 387.46 217.509V216.597L388.597 216.244L389.077 220.632C389.173 222.41 389.814 223.066 390.951 222.714C392.088 222.362 393.241 220.248 392.408 217.574C392.235 216.779 391.892 216.031 391.401 215.383C390.91 214.734 390.285 214.2 389.567 213.818C388.849 213.436 388.057 213.214 387.245 213.168C386.433 213.123 385.621 213.254 384.865 213.554C382.874 214.277 381.25 215.76 380.349 217.678C379.449 219.596 379.345 221.793 380.061 223.787C380.254 224.643 380.627 225.447 381.155 226.147C381.683 226.847 382.355 227.427 383.125 227.846C383.895 228.266 384.745 228.517 385.62 228.582C386.494 228.647 387.373 228.524 388.196 228.223C389.375 227.844 390.434 227.165 391.271 226.253L392.04 227.118C391.067 228.2 389.815 228.993 388.421 229.408C387.449 229.766 386.413 229.913 385.38 229.838C384.348 229.764 383.343 229.469 382.433 228.975C381.524 228.481 380.73 227.798 380.105 226.972C379.481 226.147 379.04 225.197 378.812 224.187ZM387.86 222.089L387.428 218.614C387.227 218.4 386.972 218.245 386.69 218.166C386.407 218.087 386.109 218.087 385.826 218.166C384.225 218.662 383.809 220.936 384.305 222.506C384.801 224.075 385.49 224.107 386.323 223.899C386.899 223.723 387.412 223.194 387.86 222.089Z" fill="#7F848C"/>
<defs>
<filter id="filter0_i" x="169.418" y="115.163" width="79.8615" height="79.8615" filterUnits="userSpaceOnUse" color-interpolation-filters="sRGB">
<feFlood flood-opacity="0" result="BackgroundImageFix"/>
<feBlend mode="normal" in="SourceGraphic" in2="BackgroundImageFix" result="shape"/>
<feColorMatrix in="SourceAlpha" type="matrix" values="0 0 0 0 0 0 0 0 0 0 0 0 0 0 0 0 0 0 127 0" result="hardAlpha"/>
<feOffset/>
<feGaussianBlur stdDeviation="5"/>
<feComposite in2="hardAlpha" operator="arithmetic" k2="-1" k3="1"/>
<feColorMatrix type="matrix" values="0 0 0 0 0 0 0 0 0 0 0 0 0 0 0 0 0 0 0.25 0"/>
<feBlend mode="normal" in2="shape" result="effect1_innerShadow"/>
</filter>
<filter id="filter1_dd" x="112.691" y="0.676758" width="61.6978" height="61.6978" filterUnits="userSpaceOnUse" color-interpolation-filters="sRGB">
<feFlood flood-opacity="0" result="BackgroundImageFix"/>
<feColorMatrix in="SourceAlpha" type="matrix" values="0 0 0 0 0 0 0 0 0 0 0 0 0 0 0 0 0 0 127 0"/>
<feOffset dx="4" dy="2"/>
<feGaussianBlur stdDeviation="4"/>
<feColorMatrix type="matrix" values="0 0 0 0 0.534167 0 0 0 0 0.645967 0 0 0 0 0.749167 0 0 0 0.54 0"/>
<feBlend mode="normal" in2="BackgroundImageFix" result="effect1_dropShadow"/>
<feColorMatrix in="SourceAlpha" type="matrix" values="0 0 0 0 0 0 0 0 0 0 0 0 0 0 0 0 0 0 127 0"/>
<feOffset dx="-2" dy="-1"/>
<feGaussianBlur stdDeviation="1"/>
<feColorMatrix type="matrix" values="0 0 0 0 1 0 0 0 0 1 0 0 0 0 1 0 0 0 1 0"/>
<feBlend mode="normal" in2="effect1_dropShadow" result="effect2_dropShadow"/>
<feBlend mode="normal" in="SourceGraphic" in2="effect2_dropShadow" result="shape"/>
</filter>
<filter id="filter2_dd" x="0" y="193.939" width="61.6978" height="61.6978" filterUnits="userSpaceOnUse" color-interpolation-filters="sRGB">
<feFlood flood-opacity="0" result="BackgroundImageFix"/>
<feColorMatrix in="SourceAlpha" type="matrix" values="0 0 0 0 0 0 0 0 0 0 0 0 0 0 0 0 0 0 127 0"/>
<feOffset dx="4" dy="2"/>
<feGaussianBlur stdDeviation="4"/>
<feColorMatrix type="matrix" values="0 0 0 0 0.534167 0 0 0 0 0.645967 0 0 0 0 0.749167 0 0 0 0.54 0"/>
<feBlend mode="normal" in2="BackgroundImageFix" result="effect1_dropShadow"/>
<feColorMatrix in="SourceAlpha" type="matrix" values="0 0 0 0 0 0 0 0 0 0 0 0 0 0 0 0 0 0 127 0"/>
<feOffset dx="-2" dy="-1"/>
<feGaussianBlur stdDeviation="1"/>
<feColorMatrix type="matrix" values="0 0 0 0 1 0 0 0 0 1 0 0 0 0 1 0 0 0 1 0"/>
<feBlend mode="normal" in2="effect1_dropShadow" result="effect2_dropShadow"/>
<feBlend mode="normal" in="SourceGraphic" in2="effect2_dropShadow" result="shape"/>
</filter>
<filter id="filter3_dd" x="365.023" y="197.574" width="50.974" height="50.9741" filterUnits="userSpaceOnUse" color-interpolation-filters="sRGB">
<feFlood flood-opacity="0" result="BackgroundImageFix"/>
<feColorMatrix in="SourceAlpha" type="matrix" values="0 0 0 0 0 0 0 0 0 0 0 0 0 0 0 0 0 0 127 0"/>
<feOffset dx="4" dy="2"/>
<feGaussianBlur stdDeviation="4"/>
<feColorMatrix type="matrix" values="0 0 0 0 0.534167 0 0 0 0 0.645967 0 0 0 0 0.749167 0 0 0 0.54 0"/>
<feBlend mode="normal" in2="BackgroundImageFix" result="effect1_dropShadow"/>
<feColorMatrix in="SourceAlpha" type="matrix" values="0 0 0 0 0 0 0 0 0 0 0 0 0 0 0 0 0 0 127 0"/>
<feOffset dx="-2" dy="-1"/>
<feGaussianBlur stdDeviation="1"/>
<feColorMatrix type="matrix" values="0 0 0 0 1 0 0 0 0 1 0 0 0 0 1 0 0 0 1 0"/>
<feBlend mode="normal" in2="effect1_dropShadow" result="effect2_dropShadow"/>
<feBlend mode="normal" in="SourceGraphic" in2="effect2_dropShadow" result="shape"/>
</filter>
<linearGradient id="paint0_linear" x1="208.11" y1="90.3242" x2="259.838" y2="237.394" gradientUnits="userSpaceOnUse">
<stop stop-color="#FBFDFB"/>
<stop offset="1" stop-color="#E0DFFE"/>
</linearGradient>
<linearGradient id="paint1_linear" x1="164.758" y1="110.488" x2="262.275" y2="120.767" gradientUnits="userSpaceOnUse">
<stop stop-color="#00B047"/>
<stop offset="1" stop-color="#4CD784"/>
</linearGradient>
<linearGradient id="paint2_linear" x1="187.137" y1="132.748" x2="235.74" y2="137.511" gradientUnits="userSpaceOnUse">
<stop stop-color="#00B047"/>
<stop offset="1" stop-color="#4CD784"/>
</linearGradient>
<linearGradient id="paint3_linear" x1="80.6211" y1="57.1616" x2="83.4166" y2="57.2246" gradientUnits="userSpaceOnUse">
<stop stop-color="#00B047"/>
<stop offset="1" stop-color="#4CD784"/>
</linearGradient>
<linearGradient id="paint4_linear" x1="75.9727" y1="61.8032" x2="86.4963" y2="66.9918" gradientUnits="userSpaceOnUse">
<stop stop-color="#00B047"/>
<stop offset="1" stop-color="#4CD784"/>
</linearGradient>
<linearGradient id="paint5_linear" x1="366.352" y1="108.405" x2="369.147" y2="108.475" gradientUnits="userSpaceOnUse">
<stop stop-color="#00B047"/>
<stop offset="1" stop-color="#4CD784"/>
</linearGradient>
<linearGradient id="paint6_linear" x1="362.25" y1="112.502" x2="372.145" y2="116.932" gradientUnits="userSpaceOnUse">
<stop stop-color="#00B047"/>
<stop offset="1" stop-color="#4CD784"/>
</linearGradient>
<linearGradient id="paint7_linear" x1="50.6641" y1="255.883" x2="53.495" y2="255.947" gradientUnits="userSpaceOnUse">
<stop stop-color="#00B047"/>
<stop offset="1" stop-color="#4CD784"/>
</linearGradient>
<linearGradient id="paint8_linear" x1="45.957" y1="260.607" x2="56.6194" y2="265.869" gradientUnits="userSpaceOnUse">
<stop stop-color="#00B047"/>
<stop offset="1" stop-color="#4CD784"/>
</linearGradient>
</defs>
</svg>
