<svg width="25" height="25" viewBox="0 0 25 25" fill="none" xmlns="http://www.w3.org/2000/svg">
<g clip-path="url(#clip0)">
<path fill-rule="evenodd" clip-rule="evenodd" d="M18.9844 24.1094H6.98438C5.3931 24.1093 3.86701 23.4771 2.74181 22.3519C1.61661 21.2267 0.984445 19.7007 0.984375 18.1094L0.984375 6.10938C0.984445 4.5181 1.61661 2.99201 2.74181 1.86681C3.86701 0.741608 5.3931 0.109445 6.98438 0.109375L18.9844 0.109375C20.5757 0.109375 22.1018 0.741516 23.227 1.86673C24.3522 2.99195 24.9844 4.51808 24.9844 6.10938V18.1094C24.9844 19.7007 24.3522 21.2268 23.227 22.352C22.1018 23.4772 20.5757 24.1094 18.9844 24.1094Z" fill="#FF9600"/>
<path fill-rule="evenodd" clip-rule="evenodd" d="M12.2344 6.85938H18.9844C19.8496 6.85932 20.6818 6.527 21.309 5.93103C21.9363 5.33506 22.3107 4.52097 22.355 3.65688C22.3992 2.79278 22.11 1.94468 21.5469 1.28772C20.9839 0.630764 20.1901 0.215118 19.3294 0.126625C19.2146 0.12025 19.101 0.109375 18.9844 0.109375H6.98438C5.3931 0.109445 3.86701 0.741608 2.74181 1.86681C1.61661 2.99201 0.984445 4.5181 0.984375 6.10938L0.984375 18.1094C0.984445 15.1257 2.16973 12.2643 4.2795 10.1545C6.38927 8.04473 9.25071 6.85944 12.2344 6.85938Z" fill="#FFB400"/>
<path fill-rule="evenodd" clip-rule="evenodd" d="M18.9844 12.1094C17.7977 12.1094 16.6377 12.4613 15.651 13.1206C14.6643 13.7798 13.8952 14.7169 13.4411 15.8133C12.987 16.9096 12.8682 18.116 13.0997 19.2799C13.3312 20.4438 13.9026 21.5129 14.7417 22.352C15.5809 23.1911 16.65 23.7626 17.8138 23.9941C18.9777 24.2256 20.1841 24.1068 21.2805 23.6527C22.3768 23.1985 23.3139 22.4295 23.9732 21.4428C24.6325 20.4561 24.9844 19.2961 24.9844 18.1094V6.10938C24.9844 7.70067 24.3522 9.2268 23.227 10.352C22.1018 11.4772 20.5757 12.1094 18.9844 12.1094Z" fill="#FF7800"/>
<path d="M12.9846 9.86387C12.6156 9.86391 12.2548 9.75452 11.948 9.54953C11.6411 9.34455 11.4019 9.05317 11.2607 8.71225C11.1194 8.37133 11.0824 7.99618 11.1544 7.63424C11.2263 7.27231 11.404 6.93983 11.6649 6.67887C11.9258 6.4179 12.2583 6.24017 12.6202 6.16814C12.9821 6.09611 13.3573 6.13302 13.6982 6.2742C14.0392 6.41539 14.3306 6.65451 14.5357 6.96132C14.7407 7.26813 14.8502 7.62885 14.8502 7.99787C14.8502 8.2429 14.802 8.48553 14.7083 8.71191C14.6145 8.93829 14.4771 9.14399 14.3039 9.31727C14.1306 9.49054 13.9249 9.628 13.6986 9.72179C13.4722 9.81557 13.2296 9.86385 12.9846 9.86387ZM12.9846 3.48438C12.0918 3.48434 11.2191 3.74903 10.4768 4.24499C9.73454 4.74095 9.15598 5.44589 8.81432 6.27066C8.47267 7.09544 8.38327 8.00301 8.55743 8.87859C8.73158 9.75418 9.16147 10.5585 9.79273 11.1897C10.424 11.821 11.2283 12.2509 12.1039 12.425C12.9794 12.5992 13.887 12.5098 14.7118 12.1681C15.5366 11.8265 16.2415 11.2479 16.7375 10.5056C17.2334 9.76331 17.4981 8.89061 17.4981 7.99787C17.498 6.80083 17.0225 5.65283 16.1761 4.80639C15.3296 3.95996 14.1816 3.48441 12.9846 3.48438Z" fill="white"/>
<path d="M14.6506 16.1029C15.7146 15.9021 16.721 15.4685 17.5977 14.8331C17.8517 14.6295 18.0144 14.3333 18.0499 14.0098C18.0855 13.6862 17.9911 13.3617 17.7875 13.1078C17.5838 12.8538 17.2877 12.6911 16.9641 12.6556C16.6405 12.62 16.3161 12.7144 16.0621 12.918C15.1557 13.5234 14.0855 13.8362 12.9957 13.8143C11.8989 13.833 10.822 13.5206 9.90535 12.918C9.65139 12.7144 9.32694 12.62 9.00337 12.6556C8.6798 12.6911 8.38361 12.8538 8.17998 13.1078C7.97634 13.3617 7.88193 13.6862 7.91752 14.0098C7.9531 14.3333 8.11577 14.6295 8.36973 14.8331C9.27626 15.4816 10.3158 15.9202 11.4129 16.1171L8.82385 18.8228C8.5992 19.0573 8.47668 19.3714 8.48315 19.6961C8.48962 20.0208 8.62454 20.3297 8.85835 20.5552C9.09217 20.7806 9.4058 20.9041 9.73055 20.8987C10.0553 20.8934 10.3647 20.7595 10.5909 20.5264L12.9961 17.9644L15.644 20.5429C15.8743 20.7729 16.1866 20.9019 16.5121 20.9017C16.8376 20.9015 17.1497 20.7719 17.3797 20.5416C17.6097 20.3112 17.7387 19.999 17.7385 19.6735C17.7382 19.348 17.6087 19.0359 17.3784 18.8059L14.6506 16.1029Z" fill="white"/>
</g>
<defs>
<clipPath id="clip0">
<rect x="0.984375" y="0.109375" width="24" height="24" fill="white"/>
</clipPath>
</defs>
</svg>
