<svg width="16" height="16" viewBox="0 0 16 16" fill="none" xmlns="http://www.w3.org/2000/svg">
<circle cx="8" cy="8" r="8" fill="#64B3DF"/>
<path d="M6 11.9998V4H8.1149C8.91641 4 9.43868 4.04015 9.68214 4.12009C10.0562 4.24018 10.3694 4.50124 10.6216 4.90325C10.8739 5.30527 11 5.82455 11 6.46127C11 6.95242 10.9273 7.36523 10.7818 7.69986C10.6363 8.03467 10.4516 8.29731 10.2275 8.48833C10.0034 8.67934 9.77565 8.8058 9.54403 8.86753C9.22943 8.94393 8.77383 8.98214 8.1771 8.98214H7.31772V12H6V11.9998ZM7.31786 5.35338V7.62345H8.03928C8.55866 7.62345 8.90602 7.58171 9.08122 7.49788C9.25627 7.41422 9.39366 7.28334 9.49309 7.10506C9.59237 6.92678 9.64216 6.71949 9.64216 6.48284C9.64216 6.1919 9.57246 5.95189 9.43291 5.76265C9.29336 5.57358 9.11686 5.45525 8.90314 5.40803C8.74584 5.3716 8.42965 5.35338 7.95471 5.35338H7.31786Z" fill="white"/>
</svg>
