<svg width="309" height="320" viewBox="0 0 309 320" fill="none" xmlns="http://www.w3.org/2000/svg">
<path d="M109.999 205.66C109.999 205.66 119.029 204.234 125.836 186.233C127.161 182.729 128.559 179.255 130.151 175.864C133.278 169.203 138.395 155.757 138.623 138.712C138.737 130.321 146.042 123.765 154.396 124.551C167.167 125.749 181.008 137.96 169.595 191.907C169.595 191.907 186.214 192.48 202.832 189.615C202.832 189.615 222.315 183.884 224.607 201.076C224.607 201.076 226.9 211.39 221.169 213.683C221.169 213.683 232.63 216.548 232.057 229.155C232.057 229.155 233.776 241.762 225.754 243.481C225.754 243.481 233.776 246.919 230.911 259.526C230.911 259.526 229.233 268.148 224.076 268.721C224.076 268.721 229.765 283.594 214.866 288.178C214.866 288.178 206.843 295.627 167.876 296.774C167.876 296.774 134.64 300.212 118.022 284.74H104.842V207.379L109.999 205.66Z" fill="#D1DCE4"/>
<g opacity="0.2">
<path opacity="0.2" d="M158.709 208.525C158.709 208.525 163.293 216.548 182.777 214.256L223.598 212.347L173.321 220.846C173.321 220.846 156.13 221.419 158.709 208.525Z" fill="#102770"/>
</g>
<g opacity="0.2">
<path opacity="0.2" d="M159.853 235.458C159.853 235.458 163.292 245.2 183.921 242.335L228.618 241.188L224.607 243.481L174.466 247.778C174.466 247.778 157.275 248.351 159.853 235.458Z" fill="#102770"/>
</g>
<g opacity="0.6">
<path opacity="0.6" d="M185.066 275.571L182.694 277.548C181.844 278.257 181.189 279.171 180.791 280.205C179.805 282.757 178.763 287.605 182.774 291.616C182.774 291.616 172.965 288.584 176.585 278.78C176.585 278.78 179.054 275.282 179.627 275.282C180.2 275.282 185.071 274.265 185.071 274.265L185.066 275.571Z" fill="white"/>
</g>
<g opacity="0.2">
<path opacity="0.2" d="M165.916 259.557C165.916 259.557 171.313 267.548 187.931 268.121L227.666 267.191L221.307 269.214C221.307 269.214 171.599 282.737 167.015 265.546L165.916 259.557Z" fill="#102770"/>
</g>
<g opacity="0.6">
<path opacity="0.6" d="M179.34 250.357L172.463 253.222C172.463 253.222 165.587 257.807 170.171 268.694C170.171 268.694 164.154 264.97 165.873 258.093L169.312 251.79C169.312 251.79 173.866 249.113 174.168 249.305C174.469 249.498 179.34 250.357 179.34 250.357Z" fill="white"/>
</g>
<g opacity="0.6">
<path opacity="0.6" d="M177.044 222.278L169.074 225.634C166.478 226.718 164.41 228.775 163.31 231.364C162.038 234.382 161.236 238.763 163.291 244.048C163.291 244.048 157.847 239.177 159.566 232.874C159.566 232.874 162.431 223.705 169.308 222.559L177.044 222.278Z" fill="white"/>
</g>
<g opacity="0.6">
<path opacity="0.6" d="M206.844 191.907L174.683 196.125C172.615 196.388 170.647 197.168 168.96 198.392C157.563 203.941 157.563 221.132 170.17 220.559C170.17 220.559 161.86 223.711 158.422 215.115L156.703 204.227C156.703 204.227 163.334 193.569 174.058 192.024L206.844 191.907Z" fill="white"/>
</g>
<path d="M140.976 131.885L139.121 140.137L138.937 151.505L136.645 158.955C136.645 158.955 149.366 163.066 154.464 157.573L155.3 144.89C155.3 144.89 154.475 127.161 140.976 131.885Z" fill="#CAD5DF"/>
<path d="M160.251 299.671C149.181 299.671 129.766 297.979 117.562 287.293H105.374C104.69 287.293 104.034 287.021 103.55 286.538C103.067 286.054 102.795 285.398 102.795 284.714V207.354C102.795 206.812 102.965 206.285 103.282 205.846C103.598 205.406 104.045 205.078 104.559 204.907L109.716 203.188C109.835 203.148 109.958 203.117 110.082 203.095C110.318 203.042 117.952 201.175 123.956 185.294C125.542 181.099 126.936 177.747 128.348 174.742C131.328 168.401 136.353 155.28 136.576 138.651C136.613 136.305 137.134 133.992 138.107 131.858C139.08 129.723 140.483 127.812 142.229 126.245C143.974 124.678 146.025 123.488 148.252 122.75C150.478 122.012 152.834 121.742 155.17 121.957C161.514 122.553 166.597 125.395 170.279 130.394C177.991 140.875 178.998 160.699 173.281 189.345C178.782 189.353 190.839 189.116 202.795 187.07C204.196 186.685 213.833 184.284 220.852 188.845C224.649 191.311 226.945 195.263 227.68 200.6C228.407 203.959 228.637 209.259 226.419 212.863C230.761 215.373 235.473 220.454 235.178 229.016C235.731 233.436 235.235 240.369 231.036 243.945C233.47 246.672 235.868 251.64 233.97 260.038C233.759 261.096 232.26 267.813 227.743 270.345C228.353 273.181 228.816 277.923 226.67 282.326C224.806 286.152 221.429 288.89 216.633 290.47C214.199 292.26 203.481 298.29 168.579 299.326C167.886 299.391 164.76 299.671 160.251 299.671ZM107.952 282.136H118.554C119.205 282.134 119.833 282.38 120.31 282.823C135.897 297.329 167.823 294.212 168.143 294.179C168.206 294.179 168.269 294.168 168.333 294.167C204.09 293.115 213.129 286.647 213.667 286.235C213.936 285.967 214.272 285.777 214.64 285.684C218.27 284.568 220.755 282.674 222.03 280.059C224.3 275.401 222.221 269.669 222.198 269.612C222.058 269.244 222.004 268.849 222.039 268.457C222.075 268.065 222.201 267.686 222.406 267.35C222.611 267.013 222.89 266.728 223.222 266.517C223.554 266.305 223.931 266.172 224.322 266.128C226.774 265.856 228.473 261.207 228.906 258.999C228.912 258.976 228.918 258.948 228.922 258.925C231.24 248.725 225.476 245.921 225.23 245.807C224.729 245.592 224.31 245.222 224.034 244.752C223.758 244.282 223.64 243.736 223.696 243.194C223.753 242.649 223.982 242.136 224.349 241.729C224.716 241.322 225.203 241.042 225.74 240.929C231.27 239.746 230.042 229.576 230.028 229.474C230.007 229.32 230 229.164 230.008 229.009C230.474 218.733 221.442 216.252 221.057 216.151C220.531 216.015 220.062 215.716 219.716 215.298C219.37 214.88 219.164 214.363 219.129 213.821C219.093 213.279 219.23 212.74 219.518 212.28C219.807 211.82 220.234 211.463 220.737 211.26C223.782 210.041 222.994 203.331 222.616 201.602C222.601 201.532 222.587 201.457 222.578 201.387C222.06 197.504 220.574 194.815 218.036 193.166C212.665 189.678 204.168 192.035 204.086 192.059C203.99 192.088 203.894 192.11 203.796 192.127C187.108 195.004 170.722 194.479 170.033 194.455C169.657 194.442 169.288 194.347 168.953 194.176C168.617 194.006 168.323 193.764 168.091 193.467C167.859 193.171 167.694 192.827 167.609 192.46C167.525 192.093 167.521 191.713 167.599 191.344C175.188 155.472 170.983 140.058 166.119 133.448C163.347 129.68 159.499 127.541 154.682 127.088C153.055 126.94 151.415 127.13 149.865 127.645C148.314 128.159 146.887 128.988 145.671 130.08C144.456 131.171 143.479 132.502 142.801 133.988C142.123 135.474 141.758 137.084 141.731 138.717C141.495 156.315 136.169 170.213 133.015 176.931C131.662 179.811 130.316 183.048 128.774 187.115C122.035 204.938 113.055 207.734 111.181 208.131L107.947 209.208L107.952 282.136Z" fill="#D1DCE4"/>
<path d="M79.7733 294.17C77.0656 294.167 74.4697 293.09 72.5551 291.175C70.6405 289.26 69.5636 286.664 69.5605 283.957V208.683C69.5636 205.976 70.6406 203.38 72.5552 201.466C74.4698 199.551 77.0657 198.474 79.7733 198.472H103.469C106.176 198.475 108.771 199.552 110.686 201.466C112.6 203.38 113.677 205.976 113.68 208.683V283.957C113.677 286.664 112.6 289.26 110.686 291.175C108.772 293.089 106.176 294.166 103.469 294.17H79.7733Z" fill="#D1DCE4"/>
<path d="M103.465 201.049C104.468 201.049 105.46 201.247 106.386 201.63C107.313 202.014 108.154 202.576 108.863 203.285C109.572 203.994 110.134 204.836 110.517 205.762C110.901 206.688 111.098 207.681 111.098 208.683V283.957C111.098 285.981 110.294 287.923 108.862 289.354C107.431 290.786 105.49 291.59 103.465 291.59H79.7699C78.7675 291.59 77.7748 291.393 76.8486 291.009C75.9224 290.626 75.0808 290.063 74.3719 289.355C73.663 288.646 73.1007 287.804 72.717 286.878C72.3334 285.952 72.1359 284.959 72.1359 283.957V208.683C72.1359 207.681 72.3333 206.688 72.717 205.762C73.1006 204.836 73.663 203.994 74.3719 203.285C75.0807 202.576 75.9223 202.014 76.8485 201.63C77.7747 201.247 78.7674 201.049 79.7699 201.049H103.465ZM103.465 195.892H79.7699C76.3787 195.896 73.1274 197.245 70.7294 199.643C68.3314 202.041 66.9825 205.292 66.9785 208.683V283.957C66.9825 287.348 68.3314 290.599 70.7295 292.997C73.1275 295.395 76.3788 296.744 79.7699 296.747H103.465C106.856 296.744 110.107 295.395 112.505 292.997C114.903 290.599 116.252 287.348 116.255 283.957V208.683C116.252 205.292 114.903 202.041 112.505 199.643C110.108 197.245 106.856 195.896 103.465 195.892Z" fill="#363C46"/>
<g opacity="0.6">
<path opacity="0.6" d="M103.465 201.049H79.7638C78.7613 201.049 77.7687 201.247 76.8425 201.63C75.9164 202.014 75.0749 202.576 74.3661 203.285C73.6573 203.994 73.0951 204.836 72.7116 205.762C72.328 206.688 72.1307 207.681 72.1309 208.683V283.957C72.1315 285.567 72.641 287.135 73.5866 288.438C74.5323 289.741 75.8656 290.711 77.396 291.21C76.651 290.5 76.0582 289.645 75.6536 288.698C75.2489 287.751 75.0408 286.732 75.0419 285.702V240.94C77.09 238.992 78.4802 235.217 78.4802 230.874C78.4802 226.53 77.09 222.752 75.0419 220.808V210.428C75.0419 208.403 75.8461 206.462 77.2775 205.03C78.709 203.599 80.6504 202.795 82.6748 202.795H106.376C107.181 202.795 107.98 202.923 108.745 203.174C107.326 201.809 105.433 201.047 103.465 201.049Z" fill="white"/>
</g>
<path d="M171.942 194.199C171.598 194.332 171.127 194.533 170.717 194.721C170.307 194.908 169.871 195.122 169.456 195.333C168.616 195.755 167.802 196.216 167.014 196.715C165.471 197.681 164.05 198.829 162.781 200.135C161.594 201.352 160.653 202.786 160.01 204.36C159.416 205.884 159.233 207.513 159.369 209.181C159.506 210.848 160.038 212.535 160.817 214.223C160.968 214.563 161.149 214.888 161.358 215.195C161.588 215.536 161.836 215.864 162.101 216.177C162.632 216.803 163.24 217.36 163.91 217.834C165.255 218.788 166.824 219.378 168.465 219.546C168.889 219.562 169.313 219.62 169.739 219.615L171.026 219.556L174.044 219.168C182.09 218.138 190.145 217.157 198.209 216.226C206.268 215.269 214.341 214.386 222.427 213.576C222.511 213.567 222.595 213.59 222.662 213.642C222.73 213.693 222.774 213.769 222.787 213.852C222.8 213.936 222.779 214.021 222.731 214.09C222.682 214.16 222.608 214.207 222.525 214.223C214.563 215.859 206.587 217.414 198.596 218.888C190.611 220.403 182.617 221.861 174.613 223.261L171.613 223.786C171.04 223.85 170.447 223.901 169.864 223.953C169.278 223.986 168.688 223.952 168.098 223.94C165.669 223.804 163.321 223.026 161.291 221.684C160.28 221.019 159.356 220.229 158.541 219.334C158.135 218.887 157.754 218.417 157.402 217.926C157.025 217.405 156.694 216.851 156.413 216.273C155.442 214.305 154.677 212.062 154.422 209.695C154.147 207.278 154.456 204.83 155.323 202.556C155.759 201.439 156.313 200.371 156.975 199.371C157.631 198.409 158.37 197.506 159.185 196.673C160.781 195.022 162.603 193.7 164.492 192.583C165.439 192.026 166.408 191.518 167.398 191.06C167.889 190.831 168.396 190.62 168.906 190.418C169.416 190.216 169.904 190.039 170.52 189.845C171.085 189.671 171.697 189.722 172.225 189.988C172.754 190.254 173.16 190.714 173.357 191.273C173.554 191.831 173.527 192.444 173.282 192.983C173.038 193.522 172.594 193.945 172.044 194.165L171.942 194.199Z" fill="#363C46"/>
<path d="M167.437 223.768C167.334 223.841 167.131 223.981 166.971 224.105C166.81 224.229 166.627 224.369 166.462 224.502C166.126 224.778 165.789 225.061 165.467 225.359C164.818 225.942 164.21 226.57 163.647 227.237C162.563 228.522 161.7 229.977 161.092 231.544C160.539 233.049 160.3 234.652 160.391 236.253C160.508 237.848 160.978 239.396 161.766 240.786C162.557 242.2 163.646 243.424 164.958 244.373C165.627 244.865 166.342 245.291 167.093 245.644C167.857 246.006 168.651 246.3 169.467 246.522C171.128 246.967 172.85 247.14 174.566 247.033C174.975 247.015 175.483 246.962 175.974 246.919L177.444 246.783L180.381 246.509C188.218 245.783 196.06 245.108 203.908 244.483C211.752 243.832 219.606 243.256 227.47 242.753C227.555 242.745 227.64 242.771 227.706 242.825C227.773 242.879 227.815 242.957 227.825 243.041C227.835 243.126 227.811 243.212 227.759 243.28C227.707 243.347 227.63 243.392 227.546 243.404C219.779 244.737 212.003 245.988 204.216 247.156C196.435 248.367 188.646 249.52 180.851 250.614L177.927 251.025L176.466 251.232C175.977 251.299 175.512 251.371 174.94 251.429C172.733 251.678 170.499 251.548 168.336 251.045C167.243 250.787 166.174 250.432 165.144 249.986C164.098 249.536 163.097 248.986 162.157 248.343C160.24 247.019 158.638 245.289 157.465 243.275C156.267 241.25 155.555 238.975 155.385 236.628C155.317 236.041 155.368 235.459 155.368 234.874C155.372 234.289 155.426 233.705 155.529 233.129C155.575 232.84 155.608 232.548 155.669 232.264L155.891 231.418C155.968 231.137 156.039 230.854 156.121 230.577L156.429 229.767C157.255 227.606 158.533 225.704 159.997 224.06C160.73 223.246 161.518 222.484 162.356 221.78C162.767 221.421 163.206 221.098 163.649 220.776C163.879 220.617 164.095 220.457 164.337 220.306C164.579 220.154 164.786 220.013 165.103 219.829C165.61 219.547 166.206 219.469 166.77 219.61C167.333 219.75 167.822 220.1 168.138 220.587C168.453 221.074 168.573 221.663 168.471 222.235C168.369 222.807 168.054 223.319 167.59 223.667L167.437 223.768Z" fill="#363C46"/>
<path d="M189.654 297.42C179.912 297.42 176.16 290.972 175.579 289.847C170.474 281.564 175.757 274.899 178.274 272.412C178.709 271.997 179.289 271.768 179.891 271.777C180.492 271.785 181.066 272.029 181.489 272.457C181.912 272.885 182.149 273.461 182.151 274.063C182.152 274.664 181.918 275.242 181.497 275.672C178.854 278.284 176.367 282.458 179.525 287.51C179.574 287.59 179.619 287.674 179.66 287.76C179.762 287.967 182.479 293.318 190.809 292.802C191.111 292.78 191.415 292.818 191.702 292.914C191.99 293.01 192.256 293.162 192.484 293.362C192.712 293.561 192.899 293.804 193.033 294.075C193.167 294.347 193.246 294.643 193.264 294.946C193.283 295.248 193.242 295.552 193.143 295.838C193.044 296.124 192.889 296.388 192.687 296.615C192.485 296.841 192.24 297.025 191.967 297.156C191.694 297.287 191.397 297.362 191.094 297.378C190.598 297.407 190.118 297.421 189.654 297.42Z" fill="#363C46"/>
<path d="M172.192 251.207C170.234 252.666 168.612 254.376 167.804 256.344C167.391 257.326 167.162 258.374 167.128 259.439C167.086 260.543 167.219 261.647 167.52 262.71C168.131 264.882 169.366 266.826 171.073 268.302C172.813 269.813 174.937 270.813 177.21 271.193L176.993 271.174C180.967 271.404 184.947 271.612 188.926 271.633C192.907 271.687 196.889 271.627 200.866 271.417C204.843 271.208 208.811 270.844 212.757 270.277C216.715 269.737 220.63 268.915 224.471 267.818C224.552 267.787 224.643 267.79 224.722 267.827C224.801 267.863 224.862 267.929 224.893 268.01C224.923 268.092 224.92 268.182 224.884 268.261C224.848 268.34 224.782 268.402 224.7 268.432C222.842 269.247 220.94 269.96 219.004 270.568C217.073 271.201 215.107 271.731 213.142 272.236C209.186 273.181 205.184 273.916 201.15 274.437C197.12 274.991 193.064 275.287 189.002 275.511C184.94 275.736 180.88 275.731 176.816 275.719C176.777 275.719 176.739 275.719 176.701 275.713L176.599 275.7C173.422 275.316 170.418 274.045 167.93 272.033C165.466 269.996 163.566 267.198 162.694 264.058C162.241 262.487 162.047 260.852 162.121 259.217C162.201 257.541 162.59 255.894 163.267 254.358C163.952 252.865 164.885 251.5 166.026 250.319C167.109 249.204 168.325 248.225 169.646 247.405C170.146 247.083 170.752 246.968 171.336 247.085C171.92 247.202 172.435 247.541 172.773 248.031C173.111 248.521 173.245 249.123 173.147 249.71C173.049 250.297 172.726 250.823 172.247 251.177L172.192 251.207Z" fill="#363C46"/>
<path d="M143.935 162.948C141.299 162.948 138.443 162.532 135.647 161.343C135.158 161.135 134.771 160.74 134.573 160.247C134.374 159.753 134.38 159.201 134.588 158.711C134.797 158.222 135.192 157.836 135.685 157.637C136.179 157.439 136.731 157.444 137.22 157.653C142.531 159.918 148.31 158.702 151.283 157.774C151.749 157.625 152.162 157.344 152.471 156.964C152.78 156.585 152.973 156.124 153.025 155.637C154.531 142.448 151.794 136.808 149.234 134.399C146.344 131.682 142.887 132.255 142.741 132.281C142.218 132.38 141.678 132.267 141.238 131.968C140.799 131.668 140.496 131.206 140.397 130.683C140.298 130.161 140.411 129.62 140.711 129.181C141.01 128.741 141.472 128.439 141.995 128.34C142.216 128.297 147.496 127.33 151.908 131.408C156.661 135.806 158.378 144.112 157.01 156.093C156.87 157.353 156.367 158.544 155.562 159.523C154.757 160.501 153.685 161.225 152.476 161.605C150.484 162.224 147.41 162.948 143.935 162.948Z" fill="#363C46"/>
<path d="M169.328 84.0297C168.119 84.0262 166.943 83.6376 165.97 82.9203L155.572 75.3653C155.474 75.2941 155.356 75.2557 155.235 75.2557C155.114 75.2557 154.996 75.2941 154.898 75.3653L144.497 82.9203C143.525 83.6374 142.349 84.026 141.14 84.0297C140.229 84.0244 139.331 83.8046 138.521 83.3878C137.71 82.971 137.009 82.3692 136.475 81.6309C135.944 80.903 135.596 80.0587 135.459 79.1687C135.321 78.2787 135.399 77.3687 135.685 76.5148L139.656 64.2895C139.694 64.1745 139.694 64.0506 139.656 63.9355C139.619 63.8204 139.546 63.7201 139.449 63.6489L129.048 56.0962C128.069 55.3847 127.341 54.3818 126.968 53.2311C126.594 52.0804 126.594 50.841 126.968 49.6904C127.342 48.5398 128.07 47.5371 129.049 46.8258C130.028 46.1146 131.206 45.7314 132.416 45.731H145.268C145.39 45.7311 145.508 45.6928 145.606 45.6215C145.704 45.5503 145.777 45.4498 145.814 45.3345L149.785 33.1104C150.159 31.9597 150.888 30.9569 151.867 30.2458C152.846 29.5347 154.025 29.1517 155.235 29.1517C156.445 29.1517 157.624 29.5347 158.603 30.2458C159.582 30.9569 160.31 31.9597 160.684 33.1104L164.657 45.3345C164.694 45.4496 164.767 45.5499 164.865 45.6212C164.962 45.6924 165.08 45.7308 165.201 45.731H178.054C179.264 45.7316 180.443 46.115 181.421 46.8263C182.4 47.5377 183.128 48.5404 183.502 49.6909C183.875 50.8415 183.876 52.0808 183.502 53.2314C183.128 54.382 182.4 55.3848 181.422 56.0962L171.023 63.6512C170.926 63.7223 170.853 63.8225 170.816 63.9373C170.779 64.0521 170.779 64.1758 170.816 64.2907L174.788 76.5159C175.074 77.3698 175.151 78.2796 175.014 79.1695C174.876 80.0593 174.528 80.9033 173.997 81.6309C173.463 82.37 172.761 82.9724 171.95 83.3892C171.139 83.806 170.24 84.0254 169.328 84.0297Z" fill="#B7C4CD"/>
<path d="M155.234 31.7293C155.902 31.7201 156.555 31.9272 157.095 32.3197C157.636 32.7122 158.035 33.269 158.233 33.9069L162.204 46.131C162.409 46.7639 162.81 47.3154 163.349 47.7066C163.887 48.0977 164.535 48.3084 165.201 48.3085H178.054C181.106 48.3085 182.376 52.2144 179.906 54.0091L169.508 61.5641C168.969 61.9553 168.568 62.5067 168.363 63.1396C168.157 63.7724 168.156 64.4541 168.362 65.0872L172.334 77.3113C173.053 79.5232 171.296 81.4509 169.325 81.4509C168.662 81.4473 168.017 81.2313 167.485 80.8344L157.085 73.2794C156.547 72.8884 155.899 72.6778 155.233 72.6778C154.568 72.6778 153.92 72.8884 153.381 73.2794L142.983 80.8344C142.45 81.2313 141.805 81.4473 141.141 81.4509C139.172 81.4509 137.415 79.5232 138.134 77.3113L142.105 65.0872C142.31 64.4541 142.31 63.7723 142.104 63.1395C141.898 62.5066 141.497 61.9551 140.959 61.5641L130.559 54.0091C128.091 52.2144 129.359 48.3085 132.412 48.3085H145.265C145.93 48.3087 146.579 48.0981 147.118 47.7069C147.656 47.3157 148.057 46.764 148.263 46.131L152.234 33.9069C152.432 33.2691 152.83 32.7125 153.371 32.32C153.911 31.9276 154.563 31.7204 155.231 31.7293H155.234ZM155.231 26.5719C153.475 26.5677 151.762 27.1214 150.341 28.1532C148.92 29.1849 147.863 30.6414 147.323 32.3126L143.809 43.1512H132.414C130.659 43.1519 128.95 43.708 127.532 44.7396C126.113 45.7712 125.057 47.2255 124.515 48.894C123.974 50.5625 123.974 52.3596 124.516 54.0279C125.059 55.6962 126.115 57.1499 127.535 58.1809L136.754 64.8797L133.233 75.7171C132.819 76.9578 132.708 78.2796 132.909 79.5719C133.111 80.8643 133.618 82.0898 134.389 83.146C135.164 84.2147 136.181 85.0854 137.356 85.687C138.531 86.2887 139.831 86.6043 141.151 86.6083C142.905 86.6049 144.612 86.0429 146.024 85.0038L155.244 78.305L164.464 85.0038C165.876 86.0426 167.583 86.6046 169.336 86.6083C170.656 86.6042 171.956 86.2885 173.131 85.6869C174.306 85.0852 175.323 84.2147 176.098 83.146C176.869 82.0897 177.376 80.8641 177.577 79.5718C177.778 78.2794 177.667 76.9577 177.253 75.7171L173.722 64.8797L182.941 58.1809C184.361 57.1497 185.417 55.6955 185.96 54.0268C186.502 52.3581 186.502 50.5605 185.96 48.8918C185.417 47.2231 184.361 45.7688 182.941 44.7376C181.522 43.7063 179.812 43.151 178.057 43.1512H166.662L163.14 32.3126C162.601 30.6422 161.545 29.1861 160.125 28.1544C158.704 27.1227 156.993 26.5686 155.238 26.5719H155.231Z" fill="#363C46"/>
<g opacity="0.6">
<path opacity="0.6" d="M163.138 47.7516C163.343 48.3846 163.744 48.9362 164.283 49.3274C164.821 49.7186 165.469 49.9292 166.135 49.9291H178.993C179.781 49.9197 180.543 50.2144 181.12 50.752C180.811 49.4329 179.694 48.3086 178.058 48.3086H165.2C164.395 48.3073 163.62 47.9972 163.037 47.4421L163.138 47.7516Z" fill="white"/>
</g>
<g opacity="0.6">
<path opacity="0.6" d="M139.068 78.9319L143.04 66.7078C143.225 66.1348 143.242 65.5206 143.089 64.9384C142.935 64.3561 142.617 63.8302 142.174 63.4231C142.301 63.9738 142.278 64.5489 142.105 65.0872L138.134 77.3113C137.94 77.8794 137.916 78.492 138.066 79.0732C138.216 79.6545 138.534 80.1791 138.978 80.5822C138.86 80.034 138.891 79.4641 139.068 78.9319Z" fill="white"/>
</g>
<g opacity="0.6">
<path opacity="0.6" d="M133.349 49.929H146.202C146.868 49.9289 147.516 49.7182 148.055 49.327C148.593 48.9359 148.994 48.3843 149.199 47.7514L153.172 35.5273C153.935 33.179 156.766 32.732 158.32 34.1818L158.231 33.9068C157.287 31.0026 153.18 31.0026 152.237 33.9068L148.265 46.1309C148.06 46.7638 147.659 47.3153 147.121 47.7065C146.582 48.0976 145.934 48.3084 145.268 48.3084H132.415C129.495 48.3084 128.216 51.875 130.268 53.7569C129.887 51.953 131.151 49.929 133.349 49.929Z" fill="white"/>
</g>
<g opacity="0.2">
<path opacity="0.2" d="M155.455 33.2444V58.3058L162.895 47.5728L157.723 32.7241L155.455 33.2444Z" fill="#102770"/>
</g>
<g opacity="0.2">
<path opacity="0.2" d="M155.455 58.3059L139.826 81.1049L141.597 82.6441L155.618 73.2967L155.455 58.3059Z" fill="#102770"/>
</g>
<g opacity="0.2">
<path opacity="0.2" d="M129.42 53.1415L155.455 58.3057L142.544 63.3577L129.42 53.1415Z" fill="#102770"/>
</g>
<g opacity="0.2">
<path opacity="0.2" d="M155.455 58.3059L172.882 81.6L172.366 75.3917L167.74 63.712L155.455 58.3059Z" fill="#102770"/>
</g>
<g opacity="0.1">
<path opacity="0.1" d="M155.455 58.3057L180.026 52.9008L167.74 63.7117L155.455 58.3057Z" fill="#102770"/>
</g>
<path d="M101.777 125.242C100.508 125.238 99.2729 124.83 98.2513 124.077L87.8529 116.523C87.804 116.488 87.745 116.468 87.6844 116.468C87.6239 116.468 87.5649 116.488 87.516 116.523L77.1176 124.077C76.0961 124.83 74.8612 125.238 73.5922 125.242C72.6344 125.237 71.6913 125.006 70.8395 124.568C69.9878 124.129 69.2515 123.497 68.6904 122.72C68.133 121.956 67.7666 121.069 67.6221 120.134C67.4775 119.199 67.5589 118.243 67.8595 117.346L71.8353 105.127C71.8538 105.069 71.8537 105.007 71.835 104.95C71.8162 104.893 71.7798 104.842 71.731 104.807L61.3326 97.252C60.3026 96.506 59.5356 95.4528 59.1416 94.2436C58.7477 93.0344 58.747 91.7315 59.1398 90.5219C59.5326 89.3124 60.2986 88.2584 61.3278 87.5114C62.357 86.7644 63.5965 86.3628 64.8682 86.3642H77.7227C77.7831 86.364 77.8419 86.3447 77.8906 86.3091C77.9394 86.2735 77.9757 86.2234 77.9943 86.1659L81.9666 73.9418C82.3596 72.7338 83.1248 71.6812 84.1526 70.9347C85.1804 70.1882 86.4181 69.7861 87.6884 69.7861C88.9588 69.7861 90.1965 70.1882 91.2243 70.9347C92.2521 71.6812 93.0173 72.7338 93.4103 73.9418L97.3815 86.1659C97.4 86.2237 97.4364 86.274 97.4854 86.3097C97.5345 86.3453 97.5936 86.3644 97.6542 86.3642H110.504C111.776 86.3628 113.015 86.7644 114.045 87.5114C115.074 88.2584 115.84 89.3124 116.232 90.5219C116.625 91.7315 116.625 93.0344 116.231 94.2436C115.837 95.4528 115.07 96.506 114.04 97.252L103.641 104.805C103.592 104.84 103.556 104.89 103.537 104.948C103.519 105.005 103.519 105.067 103.537 105.124L107.509 117.349C107.81 118.246 107.891 119.202 107.746 120.136C107.602 121.071 107.236 121.958 106.678 122.723C106.117 123.498 105.381 124.131 104.529 124.569C103.677 125.006 102.734 125.237 101.777 125.242Z" fill="#B7C4CD"/>
<path d="M87.6833 72.6548C88.351 72.6459 89.0035 72.8531 89.5437 73.2456C90.0838 73.6381 90.4826 74.1947 90.6803 74.8324L94.6527 87.0577C94.8582 87.6906 95.2589 88.2423 95.7973 88.6335C96.3357 89.0247 96.9842 89.2353 97.6497 89.2352H110.503C113.556 89.2352 114.825 93.1411 112.355 94.9358L101.957 102.491C101.418 102.882 101.017 103.433 100.811 104.066C100.605 104.699 100.605 105.381 100.811 106.014L104.783 118.238C105.501 120.45 103.743 122.378 101.774 122.378C101.11 122.374 100.465 122.158 99.9327 121.761L89.5354 114.203C88.997 113.812 88.3487 113.601 87.6833 113.601C87.018 113.601 86.3696 113.812 85.8313 114.203L75.4329 121.758C74.9005 122.155 74.2551 122.371 73.5911 122.374C71.621 122.374 69.864 120.446 70.5826 118.235L74.555 106.01C74.7605 105.377 74.7604 104.696 74.5545 104.063C74.3486 103.43 73.9475 102.878 73.4089 102.487L63.0093 94.9347C60.5395 93.1399 61.8094 89.2341 64.8614 89.2341H77.7147C78.3802 89.234 79.0285 89.0233 79.5669 88.6321C80.1053 88.2409 80.506 87.6894 80.7117 87.0565L84.684 74.8313C84.8818 74.1935 85.2805 73.6369 85.8207 73.2445C86.3608 72.852 87.0134 72.6448 87.681 72.6537L87.6833 72.6548ZM87.681 66.9233C85.8045 66.9196 83.9753 67.5119 82.4572 68.615C80.9392 69.718 79.8106 71.2747 79.2344 73.0606L75.8454 83.5037H64.866C62.9903 83.5035 61.1627 84.0973 59.6452 85.1998C58.1278 86.3023 56.9984 87.8569 56.4189 89.6408C55.8394 91.4248 55.8396 93.3464 56.4194 95.1302C56.9993 96.914 58.129 98.4684 59.6467 99.5706L68.5289 106.024L65.1353 116.466C64.6927 117.793 64.5742 119.206 64.7895 120.588C65.0048 121.969 65.5478 123.28 66.3731 124.409C67.2008 125.55 68.286 126.479 69.5406 127.122C70.7952 127.764 72.1838 128.102 73.5934 128.107C75.4678 128.105 77.2929 127.506 78.8035 126.396L87.6856 119.942L96.5678 126.396C98.0784 127.506 99.9034 128.105 101.778 128.107C103.187 128.102 104.576 127.764 105.83 127.122C107.085 126.479 108.17 125.549 108.998 124.409C109.823 123.279 110.366 121.969 110.581 120.588C110.796 119.206 110.678 117.793 110.236 116.466L106.844 106.024L115.726 99.5706C117.243 98.4679 118.372 96.9134 118.951 95.1297C119.531 93.346 119.53 91.4247 118.951 89.6411C118.371 87.8575 117.242 86.303 115.725 85.2005C114.208 84.098 112.381 83.504 110.505 83.5037H99.5258L96.1311 73.0583C95.5547 71.2726 94.4261 69.7162 92.908 68.6134C91.3899 67.5105 89.5609 66.9183 87.6845 66.9221L87.681 66.9233Z" fill="#363C46"/>
<g opacity="0.6">
<path opacity="0.6" d="M95.588 88.677C95.7938 89.3098 96.1946 89.8612 96.733 90.2524C97.2713 90.6435 97.9196 90.8543 98.585 90.8546H111.438C112.227 90.8443 112.99 91.1391 113.567 91.6774C113.257 90.3583 112.141 89.234 110.504 89.234H97.6509C96.8457 89.2328 96.0716 88.9227 95.4883 88.3676L95.588 88.677Z" fill="white"/>
</g>
<g opacity="0.6">
<path opacity="0.6" d="M71.5191 119.857L75.4914 107.633C75.6764 107.06 75.693 106.446 75.5394 105.864C75.3859 105.282 75.0685 104.756 74.625 104.349C74.7527 104.899 74.729 105.474 74.5562 106.013L70.585 118.237C70.3909 118.805 70.3674 119.417 70.5175 119.999C70.6676 120.58 70.9847 121.105 71.4297 121.508C71.3115 120.959 71.3424 120.39 71.5191 119.857Z" fill="white"/>
</g>
<g opacity="0.6">
<path opacity="0.6" d="M65.8003 90.8545H78.6537C79.3191 90.8542 79.9674 90.6434 80.5057 90.2523C81.044 89.8611 81.4448 89.3097 81.6507 88.6769L85.623 76.4516C86.3851 74.1045 89.2171 73.6575 90.7712 75.1073L90.6818 74.8311C89.7386 71.9281 85.631 71.9281 84.6878 74.8311L80.7155 87.0563C80.5099 87.6893 80.1092 88.241 79.5708 88.6322C79.0324 89.0233 78.384 89.234 77.7185 89.2339H64.8652C61.9461 89.2339 60.667 92.8005 62.7197 94.6824C62.338 92.8785 63.6022 90.8545 65.8003 90.8545Z" fill="white"/>
</g>
<g opacity="0.2">
<path opacity="0.2" d="M87.9043 74.1688V99.2314L95.3435 88.4972L90.1713 73.6497L87.9043 74.1688Z" fill="#102770"/>
</g>
<g opacity="0.2">
<path opacity="0.2" d="M87.9045 99.2312L72.2754 122.03L74.0461 123.569L88.0661 114.222L87.9045 99.2312Z" fill="#102770"/>
</g>
<g opacity="0.2">
<path opacity="0.2" d="M61.8691 94.0671L87.9058 99.2314L74.9941 104.283L61.8691 94.0671Z" fill="#102770"/>
</g>
<g opacity="0.2">
<path opacity="0.2" d="M87.9043 99.2312L105.332 122.525L104.815 116.316L100.189 104.637L87.9043 99.2312Z" fill="#102770"/>
</g>
<g opacity="0.1">
<path opacity="0.1" d="M87.9043 99.2313L112.475 93.8252L100.189 104.637L87.9043 99.2313Z" fill="#102770"/>
</g>
<path d="M241.534 125.242C240.265 125.238 239.03 124.83 238.008 124.077L227.61 116.523C227.561 116.487 227.502 116.468 227.442 116.468C227.382 116.468 227.323 116.487 227.274 116.523L216.875 124.077C215.853 124.83 214.619 125.238 213.35 125.242C212.392 125.237 211.449 125.006 210.597 124.568C209.745 124.129 209.009 123.497 208.448 122.72C207.891 121.956 207.524 121.069 207.38 120.134C207.235 119.199 207.316 118.243 207.616 117.346L211.589 105.122C211.608 105.065 211.608 105.003 211.589 104.945C211.57 104.888 211.534 104.838 211.485 104.802L201.086 97.2474C200.057 96.5014 199.29 95.4482 198.896 94.239C198.502 93.0299 198.501 91.7269 198.894 90.5174C199.287 89.3078 200.053 88.2539 201.082 87.5068C202.111 86.7598 203.35 86.3582 204.622 86.3596H217.475C217.536 86.3597 217.595 86.3405 217.644 86.3049C217.693 86.2692 217.73 86.219 217.748 86.1614L221.721 73.9372C222.113 72.7291 222.878 71.6762 223.906 70.9296C224.934 70.1829 226.171 69.7808 227.442 69.7808C228.712 69.7808 229.95 70.1829 230.978 70.9296C232.005 71.6762 232.77 72.7291 233.163 73.9372L237.135 86.1614C237.154 86.219 237.19 86.2692 237.239 86.3049C237.288 86.3405 237.348 86.3597 237.408 86.3596H250.261C251.533 86.358 252.773 86.7594 253.802 87.5063C254.832 88.2533 255.598 89.3072 255.991 90.5168C256.384 91.7264 256.383 93.0295 255.989 94.2387C255.595 95.448 254.828 96.5014 253.798 97.2474L243.399 104.805C243.35 104.84 243.313 104.89 243.295 104.948C243.276 105.005 243.276 105.067 243.294 105.124L247.267 117.349C247.567 118.246 247.648 119.202 247.504 120.136C247.359 121.071 246.993 121.958 246.436 122.723C245.875 123.498 245.138 124.131 244.286 124.569C243.435 125.006 242.492 125.237 241.534 125.242Z" fill="#B7C4CD"/>
<path d="M227.438 72.6548C228.106 72.6458 228.758 72.8531 229.298 73.2455C229.838 73.638 230.237 74.1946 230.435 74.8323L234.407 87.0576C234.613 87.6905 235.014 88.242 235.552 88.6332C236.09 89.0243 236.739 89.2351 237.404 89.2351H250.258C253.31 89.2351 254.579 93.141 252.11 94.9358L241.711 102.491C241.173 102.882 240.772 103.433 240.566 104.066C240.36 104.699 240.36 105.381 240.565 106.014L244.537 118.238C245.255 120.45 243.498 122.378 241.529 122.378C240.865 122.374 240.22 122.158 239.687 121.761L229.29 114.203C228.752 113.812 228.103 113.601 227.438 113.601C226.773 113.601 226.124 113.812 225.586 114.203L215.187 121.758C214.655 122.154 214.01 122.371 213.346 122.374C211.376 122.374 209.619 120.446 210.337 118.234L214.31 106.01C214.515 105.377 214.515 104.695 214.309 104.063C214.103 103.43 213.702 102.878 213.163 102.487L202.765 94.9323C200.295 93.1376 201.565 89.2317 204.617 89.2317H217.47C218.136 89.2316 218.784 89.0209 219.323 88.6297C219.861 88.2386 220.262 87.687 220.467 87.0541L224.44 74.8289C224.638 74.1912 225.036 73.6345 225.576 73.2421C226.117 72.8496 226.769 72.6424 227.437 72.6513L227.438 72.6548ZM227.437 66.9209C225.56 66.9175 223.731 67.51 222.213 68.613C220.695 69.716 219.567 71.2725 218.99 73.0582L215.597 83.5013H204.617C202.741 83.5009 200.914 84.0945 199.396 85.1969C197.878 86.2993 196.749 87.854 196.169 89.6379C195.589 91.4219 195.589 93.3436 196.169 95.1275C196.749 96.9115 197.879 98.466 199.397 99.5682L208.279 106.022L204.886 116.464C204.444 117.79 204.326 119.204 204.541 120.585C204.757 121.967 205.3 123.277 206.125 124.406C206.953 125.547 208.038 126.477 209.293 127.12C210.547 127.762 211.936 128.1 213.346 128.105C215.22 128.103 217.044 127.503 218.555 126.393L227.438 119.94L236.32 126.393C237.831 127.503 239.656 128.103 241.53 128.105C242.94 128.1 244.328 127.762 245.583 127.12C246.838 126.477 247.923 125.547 248.75 124.406C249.576 123.277 250.119 121.967 250.334 120.585C250.55 119.204 250.431 117.79 249.989 116.464L246.597 106.022L255.479 99.5682C256.997 98.466 258.127 96.9115 258.707 95.1275C259.286 93.3436 259.286 91.4219 258.707 89.6379C258.127 87.854 256.998 86.2993 255.48 85.1969C253.962 84.0945 252.135 83.5009 250.259 83.5013H239.276L235.885 73.0582C235.308 71.2727 234.179 69.7165 232.661 68.6137C231.143 67.511 229.314 66.9186 227.438 66.9221L227.437 66.9209Z" fill="#363C46"/>
<g opacity="0.6">
<path opacity="0.6" d="M235.343 88.677C235.549 89.3098 235.95 89.8612 236.488 90.2524C237.026 90.6435 237.675 90.8543 238.34 90.8546H251.197C251.986 90.8443 252.748 91.1391 253.325 91.6774C253.016 90.3583 251.899 89.234 250.263 89.234H237.406C236.6 89.2326 235.826 88.9226 235.242 88.3676L235.343 88.677Z" fill="white"/>
</g>
<g opacity="0.6">
<path opacity="0.6" d="M211.276 119.857L215.248 107.633C215.433 107.06 215.45 106.446 215.296 105.864C215.143 105.282 214.825 104.756 214.382 104.349C214.509 104.899 214.486 105.474 214.313 106.013L210.341 118.237C210.147 118.805 210.123 119.418 210.274 119.999C210.424 120.58 210.741 121.105 211.186 121.508C211.068 120.959 211.099 120.389 211.276 119.857Z" fill="white"/>
</g>
<g opacity="0.6">
<path opacity="0.6" d="M205.556 90.8545H218.41C219.075 90.8542 219.723 90.6434 220.262 90.2523C220.8 89.8611 221.201 89.3097 221.407 88.6769L225.379 76.4516C226.141 74.1045 228.973 73.6575 230.527 75.1073L230.438 74.8311C229.494 71.9281 225.387 71.9281 224.444 74.8311L220.471 87.0563C220.266 87.6892 219.865 88.2408 219.327 88.6319C218.788 89.0231 218.14 89.2338 217.474 89.2339H204.621C201.702 89.2339 200.423 92.8005 202.476 94.6824C202.094 92.8785 203.358 90.8545 205.556 90.8545Z" fill="white"/>
</g>
<g opacity="0.2">
<path opacity="0.2" d="M227.658 74.1688V99.2314L235.097 88.4972L229.925 73.6497L227.658 74.1688Z" fill="#102770"/>
</g>
<g opacity="0.2">
<path opacity="0.2" d="M227.66 99.2312L212.029 122.03L213.801 123.569L227.821 114.222L227.66 99.2312Z" fill="#102770"/>
</g>
<g opacity="0.2">
<path opacity="0.2" d="M201.625 94.0671L227.662 99.2314L214.75 104.283L201.625 94.0671Z" fill="#102770"/>
</g>
<g opacity="0.2">
<path opacity="0.2" d="M227.658 99.2312L245.086 122.525L244.568 116.316L239.943 104.637L227.658 99.2312Z" fill="#102770"/>
</g>
<g opacity="0.1">
<path opacity="0.1" d="M227.658 99.2313L252.229 93.8252L239.943 104.637L227.658 99.2313Z" fill="#102770"/>
</g>
<g opacity="0.2">
<path opacity="0.2" d="M177.045 281.301C177.045 281.301 190.167 295.513 224.292 280.099L216.298 287.32L184.781 295.342C184.781 295.342 171.601 293.622 177.045 281.301Z" fill="#102770"/>
</g>
<g opacity="0.2">
<path opacity="0.2" d="M178.722 273.623C178.722 273.623 163.578 271.273 164.724 261.532C164.724 261.532 163.555 254.576 172.448 250.031C172.448 250.031 154.982 246.059 157.847 232.306C157.847 232.306 159.148 224.406 168.525 221.762C168.525 221.762 150.386 217.629 157.841 202.617L163.992 195.431C166.269 193.744 169.264 192.113 172.746 191.616V178.23C172.746 178.23 176.758 146.35 170.741 143.198C170.741 143.198 170.741 172.997 162.718 182.738C162.718 182.738 159.785 186.916 158.894 192.376C155.595 194.137 141.949 202.576 149.538 218.267L153.263 223.711C153.263 223.711 140.083 233.452 150.398 246.059C150.398 246.059 153.836 250.644 157.847 251.79C157.847 251.79 149.538 259.526 154.695 269.268C156.454 271.252 158.427 273.036 160.577 274.587C164.687 277.566 163.991 283.941 159.267 285.798C152.705 288.376 141.878 290.113 124.324 287.605C124.324 287.605 156.701 302.217 184.78 295.341C184.78 295.341 169.227 289.141 178.722 273.623Z" fill="#102770"/>
</g>
<g opacity="0.2">
<path opacity="0.2" d="M107.994 201.935C107.994 201.935 108.567 286.745 71.8926 289.037L76.4769 293.622H108.567L114.756 285.026L113.152 203.081L107.994 201.935Z" fill="#102770"/>
</g>
<g opacity="0.2">
<path opacity="0.2" d="M151.83 136.322C151.918 139.322 151.844 142.324 151.608 145.316C150.958 153.035 144.173 158.84 136.451 158.24L136.215 158.22C136.215 158.22 146.1 163.367 154.552 158.297C154.552 158.297 155.555 143.485 151.83 136.322Z" fill="#102770"/>
</g>
<path d="M35.2952 145.54C35.057 145.54 34.8241 145.47 34.6256 145.338C34.427 145.206 34.2717 145.019 34.1789 144.8C32.4151 140.621 30.1917 137.978 27.7952 137.094C27.6084 137.947 27.3398 138.78 26.993 139.581C26.3202 141.156 25.0446 142.332 23.4906 142.81C21.7714 143.336 20.2414 142.872 19.179 141.503C18.5383 140.676 18.5246 139.514 19.1412 138.314C20.1314 136.385 22.6356 134.489 25.636 134.356C25.6051 129.136 21.8207 125.009 21.2167 124.386L21.0517 124.282C20.584 125.968 19.6181 127.473 18.2805 128.6C15.1173 131.277 11.8555 131.864 8.84935 130.297C7.82051 129.757 7.01517 128.871 6.57497 127.795C6.13476 126.72 6.08788 125.523 6.44258 124.417C7.24483 121.88 8.7485 120.142 10.8069 119.39C12.9695 118.599 15.6708 118.924 18.8673 120.361C18.5234 116.203 17.084 113.122 14.5649 111.192C9.46709 107.281 1.56141 109.177 1.48233 109.197C1.1726 109.268 0.847329 109.214 0.576659 109.048C0.30599 108.881 0.111594 108.615 0.0353688 108.306C-0.0408565 107.998 0.00719638 107.672 0.169172 107.398C0.331147 107.125 0.594073 106.926 0.901268 106.845C1.27145 106.753 10.0264 104.66 16.0387 109.27C19.4323 111.873 21.2225 116.032 21.3588 121.648C21.7737 121.887 22.194 122.142 22.6195 122.414C22.6902 122.459 22.7559 122.511 22.8155 122.569C23.0837 122.829 28.209 127.903 28.0669 134.646C30.6719 135.385 33.7973 137.718 36.3955 143.86C36.4573 144.006 36.4897 144.164 36.4908 144.323C36.4919 144.482 36.4616 144.64 36.4016 144.787C36.3417 144.935 36.2534 145.069 36.1416 145.182C36.0298 145.295 35.8968 145.385 35.7502 145.447C35.606 145.507 35.4515 145.539 35.2952 145.54ZM25.3701 136.803C24.9892 136.851 24.6143 136.939 24.2516 137.065C22.0637 137.817 20.999 139.606 21.1193 140.056C21.407 140.416 21.8482 140.783 22.7857 140.494C23.6556 140.227 24.3788 139.547 24.7719 138.629C25.0253 138.04 25.2255 137.429 25.3701 136.803ZM13.3248 121.39C12.7546 121.382 12.1875 121.474 11.6492 121.662C10.3049 122.154 9.33529 123.325 8.76339 125.142C8.57969 125.705 8.6003 126.316 8.82161 126.865C9.04293 127.415 9.45081 127.869 9.97366 128.148C12.0664 129.237 14.3368 128.767 16.7229 126.749C17.8486 125.8 18.6044 124.485 18.8581 123.034C16.7149 121.944 14.8491 121.39 13.3248 121.39Z" fill="#B7C4CD"/>
<path d="M271.903 210.951C271.75 210.952 271.599 210.922 271.458 210.866C271.159 210.748 270.919 210.516 270.792 210.221C270.664 209.926 270.658 209.593 270.776 209.294C273.412 202.61 276.729 200.053 279.5 199.221C279.142 191.987 284.53 186.4 284.811 186.115C284.869 186.056 284.933 186.003 285.002 185.957C285.471 185.643 285.932 185.35 286.383 185.076V184.962C286.403 178.975 288.217 174.493 291.788 171.643C298.099 166.6 307.482 168.615 307.878 168.705C308.184 168.781 308.448 168.974 308.614 169.243C308.78 169.511 308.835 169.834 308.766 170.142C308.698 170.45 308.512 170.72 308.248 170.893C307.984 171.066 307.663 171.129 307.353 171.069C307.267 171.049 298.684 169.223 293.291 173.542C290.571 175.72 289.077 179.144 288.838 183.731C292.276 182.066 295.19 181.627 297.543 182.425C299.744 183.173 301.389 184.984 302.299 187.66C302.701 188.819 302.682 190.082 302.245 191.229C301.807 192.375 300.98 193.331 299.908 193.928C296.773 195.657 293.309 195.125 289.89 192.394C288.385 191.19 287.292 189.548 286.763 187.695C286.662 187.761 286.562 187.826 286.461 187.893C285.847 188.562 281.806 193.183 281.939 198.874C285.166 198.908 287.909 200.875 289.018 202.916C289.692 204.158 289.706 205.372 289.063 206.247C287.981 207.712 286.381 208.238 284.561 207.724C282.908 207.259 281.528 206.045 280.779 204.394C280.378 203.517 280.065 202.602 279.845 201.663C277.706 202.445 275.201 204.689 273.033 210.182C272.943 210.409 272.788 210.604 272.586 210.741C272.385 210.878 272.146 210.952 271.903 210.951ZM282.26 201.319C282.434 202.031 282.675 202.726 282.981 203.393C283.439 204.394 284.252 205.124 285.218 205.395C286.287 205.698 286.776 205.268 287.114 204.81C287.261 204.399 286.191 202.544 283.928 201.687C283.393 201.484 282.831 201.36 282.26 201.319ZM288.939 186.406C289.246 188.023 290.119 189.477 291.403 190.507C294.03 192.606 296.499 193.044 298.738 191.812C299.312 191.489 299.753 190.975 299.985 190.359C300.216 189.743 300.223 189.065 300.004 188.445C299.336 186.479 298.245 185.227 296.762 184.723C294.853 184.069 292.178 184.65 288.939 186.406Z" fill="#B7C4CD"/>
<path d="M271.299 40.1564C271.076 40.157 270.855 40.1051 270.655 40.005C270.455 39.9049 270.281 39.7593 270.147 39.58C270.014 39.4006 269.924 39.1924 269.885 38.9721C269.846 38.7518 269.86 38.5255 269.924 38.3112L272.216 30.6749C272.269 30.4934 272.358 30.3243 272.476 30.1772C272.595 30.0301 272.742 29.9079 272.908 29.8178C273.074 29.7276 273.257 29.6713 273.445 29.6519C273.633 29.6326 273.823 29.6507 274.004 29.7051C274.185 29.7596 274.353 29.8493 274.499 29.9692C274.646 30.089 274.767 30.2366 274.856 30.4035C274.944 30.5704 274.999 30.7532 275.017 30.9414C275.035 31.1296 275.016 31.3195 274.96 31.5001L272.668 39.1364C272.579 39.4306 272.398 39.6886 272.152 39.8722C271.905 40.0559 271.607 40.1555 271.299 40.1564Z" fill="#B7C4CD"/>
<path d="M264.516 62.7182C264.292 62.7188 264.072 62.6669 263.872 62.5668C263.672 62.4667 263.498 62.3211 263.364 62.1418C263.23 61.9624 263.141 61.7542 263.102 61.5339C263.063 61.3136 263.076 61.0873 263.141 60.8731L265.433 53.2367C265.542 52.8727 265.792 52.5671 266.127 52.3871C266.461 52.2071 266.854 52.1674 267.218 52.2769C267.582 52.3863 267.888 52.6358 268.068 52.9706C268.248 53.3053 268.287 53.6979 268.178 54.0619L265.886 61.6982C265.797 61.9926 265.616 62.2507 265.369 62.4344C265.123 62.6181 264.824 62.7176 264.516 62.7182Z" fill="#B7C4CD"/>
<path d="M275.92 43.9293C275.601 43.9296 275.291 43.8233 275.039 43.6272C274.787 43.4311 274.608 43.1566 274.53 42.8471C274.452 42.5376 274.479 42.2108 274.608 41.9188C274.737 41.6267 274.959 41.386 275.241 41.2349L282.264 37.4528C282.43 37.3544 282.614 37.2907 282.806 37.2654C282.997 37.2401 283.192 37.2538 283.378 37.3055C283.564 37.3573 283.737 37.4462 283.888 37.5667C284.039 37.6873 284.164 37.8371 284.255 38.0072C284.347 38.1772 284.403 38.364 284.42 38.5563C284.438 38.7486 284.416 38.9424 284.357 39.1261C284.297 39.3099 284.201 39.4797 284.075 39.6254C283.948 39.7712 283.793 39.8898 283.62 39.9742L276.598 43.7562C276.39 43.869 276.157 43.9285 275.92 43.9293Z" fill="#B7C4CD"/>
<path d="M255.17 55.0853C254.851 55.0856 254.541 54.9793 254.289 54.7832C254.037 54.5872 253.858 54.3126 253.78 54.0031C253.702 53.6936 253.729 53.3669 253.858 53.0748C253.987 52.7827 254.209 52.542 254.491 52.3909L261.514 48.6088C261.68 48.5105 261.864 48.4467 262.056 48.4214C262.247 48.3961 262.442 48.4098 262.628 48.4615C262.814 48.5133 262.987 48.6022 263.138 48.7227C263.289 48.8433 263.414 48.9931 263.505 49.1632C263.597 49.3332 263.653 49.52 263.67 49.7123C263.688 49.9046 263.666 50.0984 263.607 50.2821C263.547 50.4659 263.451 50.6357 263.325 50.7814C263.198 50.9272 263.043 51.0458 262.87 51.1302L255.846 54.9123C255.639 55.025 255.406 55.0845 255.17 55.0853Z" fill="#B7C4CD"/>
<path d="M284.155 52.1605C284.015 52.16 283.876 52.1396 283.742 52.0998L276.105 49.8076C275.741 49.6982 275.434 49.4483 275.254 49.1131C275.073 48.7778 275.033 48.3845 275.143 48.0197C275.252 47.655 275.502 47.3486 275.837 47.1681C276.172 46.9875 276.566 46.9476 276.93 47.057L284.567 49.3492C284.895 49.449 285.177 49.6633 285.361 49.9532C285.545 50.2431 285.619 50.5894 285.569 50.9291C285.519 51.2688 285.349 51.5793 285.09 51.8042C284.83 52.0292 284.499 52.1535 284.155 52.1548V52.1605Z" fill="#B7C4CD"/>
<path d="M261.594 45.3757C261.454 45.3752 261.315 45.3548 261.18 45.315L253.544 43.0228C253.18 42.9134 252.874 42.6639 252.694 42.3291C252.514 41.9944 252.475 41.6018 252.584 41.2378C252.694 40.8738 252.943 40.5682 253.278 40.3882C253.613 40.2082 254.005 40.1685 254.369 40.278L262.005 42.5701C262.334 42.6699 262.616 42.8842 262.8 43.1742C262.983 43.4641 263.057 43.8104 263.007 44.15C262.958 44.4897 262.788 44.8002 262.528 45.0252C262.269 45.2501 261.937 45.3745 261.594 45.3757Z" fill="#B7C4CD"/>
<path d="M276.525 61.5067C276.266 61.5063 276.013 61.436 275.791 61.3033C275.569 61.1705 275.387 60.9803 275.264 60.7526L271.482 53.7294C271.326 53.3975 271.303 53.0182 271.418 52.6698C271.533 52.3214 271.777 52.0303 272.1 51.8564C272.423 51.6825 272.801 51.6391 273.155 51.7351C273.509 51.8311 273.813 52.0592 274.004 52.3725L277.779 59.3957C277.896 59.6138 277.955 59.8587 277.949 60.1063C277.944 60.354 277.874 60.596 277.747 60.8087C277.62 61.0213 277.44 61.1975 277.225 61.3198C277.009 61.4422 276.766 61.5066 276.518 61.5067H276.525Z" fill="#B7C4CD"/>
<path d="M265.366 40.7548C265.107 40.7548 264.853 40.6847 264.631 40.5519C264.409 40.4191 264.227 40.2286 264.105 40.0006L260.329 32.9774C260.23 32.8113 260.167 32.627 260.141 32.4355C260.116 32.2441 260.13 32.0496 260.181 31.8636C260.233 31.6776 260.322 31.504 260.443 31.3532C260.563 31.2023 260.713 31.0775 260.883 30.986C261.053 30.8946 261.24 30.8385 261.432 30.821C261.624 30.8036 261.818 30.8252 262.002 30.8846C262.186 30.9439 262.356 31.0398 262.501 31.1665C262.647 31.2932 262.766 31.448 262.85 31.6216L266.626 38.6437C266.744 38.8618 266.802 39.1067 266.797 39.3544C266.791 39.602 266.722 39.844 266.595 40.0567C266.468 40.2693 266.288 40.4455 266.072 40.5678C265.857 40.6902 265.613 40.7546 265.366 40.7548Z" fill="#B7C4CD"/>
<path d="M74.5303 17.6336C74.3902 17.6329 74.2509 17.6125 74.1166 17.5729C73.7529 17.4632 73.4478 17.2136 73.2681 16.879C73.0884 16.5444 73.049 16.1521 73.1584 15.7884L75.6936 7.35786C75.7452 7.17481 75.8327 7.00387 75.9511 6.85501C76.0694 6.70615 76.2162 6.58234 76.3829 6.49081C76.5496 6.39928 76.7329 6.34185 76.922 6.32188C77.1112 6.30192 77.3024 6.3198 77.4845 6.37451C77.6667 6.42921 77.8361 6.51964 77.9829 6.6405C78.1298 6.76137 78.251 6.91026 78.3397 7.0785C78.4284 7.24673 78.4827 7.43094 78.4995 7.62038C78.5162 7.80982 78.4951 8.0007 78.4373 8.18189L75.9022 16.6125C75.8134 16.9074 75.632 17.1659 75.385 17.3498C75.1379 17.5337 74.8383 17.6332 74.5303 17.6336Z" fill="#B7C4CD"/>
<path d="M67.0408 42.5449C66.9011 42.5444 66.7621 42.5239 66.6282 42.4841C66.2642 42.3744 65.9587 42.1248 65.7786 41.79C65.5986 41.4552 65.5587 41.0627 65.6678 40.6986L68.2041 32.268C68.3157 31.9068 68.5656 31.6044 68.8993 31.4266C69.2329 31.2489 69.6233 31.2102 69.9854 31.3191C70.3474 31.428 70.6517 31.6756 70.832 32.0079C71.0123 32.3402 71.0539 32.7303 70.9478 33.0931L68.4115 41.5237C68.3231 41.8186 68.142 42.0772 67.8951 42.2611C67.6482 42.4451 67.3487 42.5446 67.0408 42.5449Z" fill="#B7C4CD"/>
<path d="M79.6273 21.7986C79.3081 21.7989 78.9979 21.6926 78.746 21.4965C78.4941 21.3004 78.3149 21.0259 78.2369 20.7164C78.1588 20.4069 78.1863 20.0801 78.3151 19.7881C78.4439 19.496 78.6665 19.2553 78.9476 19.1041L86.702 14.9347C87.034 14.7785 87.4132 14.7555 87.7617 14.8704C88.1101 14.9853 88.4012 15.2294 88.5751 15.5525C88.7489 15.8756 88.7923 16.253 88.6963 16.6071C88.6003 16.9612 88.3722 17.2651 88.059 17.4561L80.3046 21.6244C80.0968 21.7377 79.864 21.7976 79.6273 21.7986Z" fill="#B7C4CD"/>
<path d="M56.7191 34.1165C56.3999 34.1168 56.0897 34.0105 55.8378 33.8144C55.5859 33.6184 55.4067 33.3438 55.3287 33.0343C55.2506 32.7248 55.2781 32.3981 55.4069 32.106C55.5357 31.8139 55.7583 31.5732 56.0394 31.4221L63.7938 27.2526C64.1267 27.0887 64.5101 27.0603 64.8634 27.1734C65.2168 27.2865 65.5125 27.5322 65.6883 27.8589C65.8641 28.1856 65.9063 28.5678 65.8061 28.9249C65.7058 29.2821 65.4709 29.5865 65.1508 29.774L57.393 33.9458C57.1858 34.0573 56.9543 34.116 56.7191 34.1165Z" fill="#B7C4CD"/>
<path d="M88.7225 30.8823C88.5824 30.8818 88.4431 30.8613 88.3087 30.8216L79.8781 28.2853C79.6967 28.2322 79.5275 28.1438 79.3804 28.025C79.2333 27.9063 79.1112 27.7596 79.021 27.5934C78.9309 27.4272 78.8745 27.2449 78.8552 27.0568C78.8358 26.8687 78.8539 26.6787 78.9084 26.4977C78.9628 26.3166 79.0526 26.1481 79.1724 26.002C79.2923 25.8558 79.4399 25.7347 79.6068 25.6459C79.7736 25.557 79.9564 25.502 80.1446 25.4841C80.3328 25.4662 80.5227 25.4857 80.7033 25.5416L89.1396 28.0813C89.4681 28.181 89.7499 28.3954 89.9338 28.6853C90.1176 28.9752 90.1914 29.3215 90.1416 29.6612C90.0917 30.0009 89.9217 30.3114 89.6623 30.5363C89.403 30.7612 89.0715 30.8856 88.7282 30.8869L88.7225 30.8823Z" fill="#B7C4CD"/>
<path d="M63.8131 23.3961C63.6734 23.3955 63.5345 23.3751 63.4005 23.3354L54.9688 20.7968C54.7886 20.7425 54.6209 20.6533 54.4753 20.5342C54.3296 20.4152 54.2088 20.2686 54.1197 20.1028C53.94 19.7681 53.9005 19.3756 54.0101 19.0118C54.1197 18.6479 54.3693 18.3425 54.704 18.1627C55.0388 17.9829 55.4313 17.9435 55.7951 18.0531L64.2257 20.5882C64.5543 20.688 64.8361 20.9024 65.02 21.1925C65.2038 21.4825 65.2775 21.8289 65.2275 22.1687C65.1775 22.5084 65.0073 22.8189 64.7477 23.0438C64.4882 23.2686 64.1565 23.3928 63.8131 23.3938V23.3961Z" fill="#B7C4CD"/>
<path d="M80.2973 41.2063C80.0386 41.2061 79.7849 41.1359 79.5629 41.0031C79.341 40.8703 79.1591 40.68 79.0366 40.4522L74.8683 32.6978C74.771 32.5317 74.7082 32.3477 74.6836 32.1568C74.659 31.9659 74.6732 31.7719 74.7252 31.5866C74.7772 31.4013 74.866 31.2284 74.9863 31.0781C75.1067 30.9279 75.256 30.8035 75.4255 30.7122C75.595 30.621 75.7812 30.5649 75.9729 30.5472C76.1645 30.5295 76.3578 30.5506 76.5411 30.6093C76.7245 30.668 76.8941 30.763 77.0399 30.8887C77.1857 31.0144 77.3046 31.1681 77.3897 31.3408L81.558 39.0952C81.6753 39.3134 81.734 39.5582 81.7285 39.8059C81.7229 40.0535 81.6532 40.2955 81.5262 40.5082C81.3992 40.7209 81.2192 40.897 81.0038 41.0193C80.7884 41.1417 80.545 41.2061 80.2973 41.2063Z" fill="#B7C4CD"/>
<path d="M67.98 18.2948C67.7212 18.2944 67.4674 18.224 67.2455 18.091C67.0235 17.9581 66.8417 17.7675 66.7193 17.5396L62.5533 9.78518C62.4549 9.61902 62.3912 9.4347 62.3659 9.24329C62.3406 9.05188 62.3542 8.85732 62.406 8.67132C62.4578 8.48531 62.5466 8.3117 62.6672 8.1609C62.7878 8.0101 62.9376 7.88522 63.1076 7.79378C63.2777 7.70234 63.4645 7.64621 63.6568 7.62878C63.8491 7.61134 64.0429 7.63296 64.2266 7.69233C64.4103 7.75169 64.5802 7.84759 64.7259 7.97425C64.8716 8.1009 64.9902 8.25571 65.0746 8.42937L69.2441 16.1838C69.3611 16.402 69.4195 16.6468 69.4138 16.8943C69.4081 17.1418 69.3383 17.3836 69.2114 17.5962C69.0844 17.8088 68.9046 17.9848 68.6894 18.1073C68.4742 18.2297 68.231 18.2943 67.9834 18.2948H67.98Z" fill="#B7C4CD"/>
<path d="M34.1823 297.098C34.1823 297.098 39.4073 303.262 33.3457 309.03C33.3457 309.03 40.166 305.602 44.9509 312.651C44.9509 312.651 41.5551 303.38 45.4885 300.082C45.4885 300.082 38.4698 302.342 34.1823 297.098Z" fill="#B7C4CD"/>
<path d="M235.143 320C236.952 320 238.418 318.534 238.418 316.726C238.418 314.917 236.952 313.451 235.143 313.451C233.335 313.451 231.869 314.917 231.869 316.726C231.869 318.534 233.335 320 235.143 320Z" fill="#B7C4CD"/>
<path d="M258.971 285.744C258.971 285.744 258.313 293.451 250.307 293.229C250.307 293.229 257.236 295.545 255.679 303.553C255.679 303.553 259.682 294.989 264.575 295.434C264.575 295.434 258.302 292.195 258.971 285.744Z" fill="#B7C4CD"/>
<path d="M283.852 119.496C285.661 119.496 287.127 118.03 287.127 116.222C287.127 114.413 285.661 112.948 283.852 112.948C282.044 112.948 280.578 114.413 280.578 116.222C280.578 118.03 282.044 119.496 283.852 119.496Z" fill="#D1DCE4"/>
<path d="M126.691 11.3004L130.973 13.7794C130.973 13.7794 133.838 6.26678 141.883 4.93618L140.664 0C140.664 0 130.515 1.32488 126.691 11.3004Z" fill="#D1DCE4"/>
<path d="M17.1465 188.39L21.7537 186.594C21.7537 186.594 23.4282 194.456 31.1791 197.004L29.2205 201.695C29.2205 201.695 19.3974 198.833 17.1465 188.39Z" fill="#D1DCE4"/>
<path d="M291.238 259.13L292.029 254.703C292.029 254.703 284.718 254.589 281.078 248.125L277.236 250.701C277.236 250.701 281.522 258.963 291.238 259.13Z" fill="#D1DCE4"/>
<path d="M25.188 57.1236C25.4777 55.3386 24.2656 53.6567 22.4805 53.3669C20.6955 53.0772 19.0136 54.2893 18.7239 56.0743C18.4341 57.8594 19.6463 59.5413 21.4313 59.831C23.2163 60.1208 24.8982 58.9086 25.188 57.1236Z" fill="#D1DCE4"/>
<path d="M256.04 180.075L258.13 176.091C258.13 176.091 251.19 173.783 249.669 166.518L245.236 167.815C245.236 167.815 246.827 176.986 256.04 180.075Z" fill="#D1DCE4"/>
<path d="M19.0895 238.476L21.2877 242.4C21.2877 242.4 14.4112 244.9 13.0967 252.203L8.62695 251.03C8.62695 251.03 9.96444 241.819 19.0895 238.476Z" fill="#D1DCE4"/>
<path d="M218.228 147.938L213.988 146.427C213.988 146.427 212.672 153.62 205.691 156.142L207.597 160.356C207.597 160.356 216.459 157.492 218.228 147.938Z" fill="#D1DCE4"/>
<path d="M207.893 31.6846L208.865 27.2928C208.865 27.2928 201.564 26.8813 198.195 20.2684L194.25 22.6821C194.25 22.6821 198.191 31.1115 207.893 31.6846Z" fill="#D1DCE4"/>
</svg>
