<svg width="16" height="16" viewBox="0 0 16 16" fill="none" xmlns="http://www.w3.org/2000/svg">
<circle cx="8" cy="8" r="8" fill="#26A17B"/>
<path d="M8.63922 8.55023V8.54915C8.5928 8.55237 8.35309 8.56632 7.8197 8.56632C7.3932 8.56632 7.09412 8.55452 6.9883 8.54915V8.55023C5.34817 8.47833 4.12483 8.19506 4.12483 7.85491C4.12483 7.51583 5.34925 7.23148 6.9883 7.15959V8.26802C7.0952 8.27553 7.40292 8.29377 7.82726 8.29377C8.3369 8.29377 8.59172 8.27231 8.63922 8.26802V7.16066C10.2761 7.23363 11.4962 7.5169 11.4962 7.85598C11.4962 8.19506 10.275 8.47833 8.63922 8.5513V8.55023ZM8.63922 7.04585V6.05437H10.9229V4.54248H4.70573V6.05437H6.98938V7.04585C5.13331 7.13062 3.73828 7.49544 3.73828 7.93324C3.73828 8.37103 5.13439 8.73586 6.98938 8.8217V12H8.6403V8.8217C10.4931 8.73693 11.886 8.3721 11.886 7.93431C11.886 7.49759 10.4931 7.13169 8.6403 7.04692" fill="white"/>
</svg>
