<svg width="280" height="80" viewBox="0 0 280 80" fill="none" xmlns="http://www.w3.org/2000/svg">
<path d="M15.848 38.2857C15.848 40.4278 13.7604 41.4989 9.58505 41.4989C8.67737 41.4989 8.13277 41.0451 7.95123 40.1374C7.80601 39.1934 7.73339 38.0316 7.73339 36.6519C7.73339 35.2723 7.82416 33.8018 8.00569 32.2406C8.22354 30.6431 8.49584 28.9185 8.8226 27.0669C9.43982 23.5088 10.3112 19.6784 11.4367 15.5757C12.5985 11.4367 13.7422 8.24169 14.8677 5.99066C12.5804 6.13589 10.3112 6.55341 8.06015 7.24325C5.80912 7.89677 4.21161 8.36877 3.26763 8.65922C2.32365 8.91337 1.54305 9.04044 0.925829 9.04044C0.30861 9.04044 0 8.84076 0 8.44138C0 7.96939 0.36307 7.27955 1.08921 6.37188C1.81535 5.4279 2.8501 4.48392 4.19346 3.53993C7.60632 1.21628 11.4004 0.0363065 15.5757 0L33.4932 0.163383C34.4735 0.163383 34.9636 0.544606 34.9636 1.30705C34.9636 1.5249 34.8184 1.92427 34.528 2.50518C34.2375 3.04979 33.9834 3.64885 33.7655 4.30238C33.2935 5.60943 32.2951 6.26296 30.7702 6.26296C29.2816 6.26296 25.7054 6.15404 20.0415 5.9362C19.8962 7.5337 19.6058 9.58505 19.1701 12.0902C18.7344 14.5591 18.2624 17.264 17.7541 20.2048C16.5197 27.7204 15.8843 33.7474 15.848 38.2857Z" fill="#7F848C"/>
<path d="M48.1844 22.3833C48.1844 21.0762 47.4038 20.4227 45.8426 20.4227C44.3177 20.4227 42.8109 21.6208 41.3223 24.0171C39.8337 26.377 38.9079 28.7915 38.5448 31.2603C38.6175 32.0954 38.6901 32.9305 38.7627 33.7655C38.8353 34.6006 38.8716 35.4175 38.8716 36.2162C38.8716 38.1405 38.2362 39.4476 36.9655 40.1374C36.3846 40.4642 35.8218 40.7728 35.2772 41.0632C34.7689 41.3537 34.1699 41.4989 33.48 41.4989C32.7902 41.4989 32.173 41.0451 31.6284 40.1374C31.1201 39.1934 30.8659 37.7411 30.8659 35.7806C30.8659 30.2982 31.2653 25.542 32.064 21.5119C33.2985 15.2671 35.7492 8.58661 39.4162 1.47043C39.9245 0.490145 40.6688 0.0181528 41.6491 0.0544594C42.6294 0.0544594 43.4281 0.726139 44.0454 2.0695C44.6626 3.41286 44.953 4.53838 44.9167 5.44605C44.9167 6.35373 44.7715 7.24325 44.481 8.11461C44.2269 8.94968 43.882 9.78474 43.4463 10.6198C43.0469 11.4186 42.5749 12.2536 42.0303 13.125C41.522 13.96 41.0137 14.8677 40.5054 15.848L39.6885 19.7692C41.1045 17.4092 43.0106 15.8299 45.4069 15.0311C46.2782 14.7406 47.2404 14.5954 48.2933 14.5954C50.7622 14.5954 52.632 15.1582 53.9027 16.2837C55.1735 17.3729 55.8088 18.9341 55.8088 20.9673C55.8088 22.9642 55.5365 24.9974 54.9919 27.0669C54.4836 29.1364 54.1024 30.625 53.8483 31.5326C53.6304 32.404 53.5215 33.1301 53.5215 33.7111C53.5215 34.292 53.7212 34.5824 54.1206 34.5824C54.6652 34.5824 55.3368 34.2375 56.1356 33.5477C56.9343 32.8578 57.7331 32.1135 58.5318 31.3148C59.3306 30.4797 60.0567 29.7173 60.7103 29.0275C61.4001 28.3376 61.8721 27.9927 62.1262 27.9927C62.6345 27.9927 62.8887 28.6099 62.8887 29.8444C62.8887 32.3858 61.6361 34.8366 59.1309 37.1965C54.9193 39.6654 52.2326 40.8998 51.0708 40.8998C50.9618 40.8998 50.8892 40.8817 50.8529 40.8454C47.9484 40.8454 46.4961 38.5217 46.4961 33.8744C46.4961 31.8775 46.6776 30.044 47.0407 28.3739C47.4401 26.7038 47.7305 25.4875 47.9121 24.7251C48.0936 23.9626 48.1844 23.182 48.1844 22.3833Z" fill="#7F848C"/>
<path d="M93.59 27.8293C94.2435 27.8293 94.5702 28.6644 94.5702 30.3345C94.5702 31.2422 94.189 32.3495 93.4266 33.6566C92.6641 34.9273 91.6657 36.1073 90.4312 37.1965C89.2331 38.2494 87.8897 39.1208 86.4012 39.8106C84.9126 40.5005 83.4603 40.8454 82.0443 40.8454C80.12 40.8454 78.8312 39.1571 78.1776 35.7806C77.2336 37.3418 75.9992 38.6306 74.4743 39.6472C72.9494 40.6275 70.8981 41.1177 68.3203 41.1177C65.7788 41.1177 63.7274 40.3189 62.1662 38.7214C60.605 37.1239 59.8426 35.1815 59.8789 32.8941C59.8789 26.722 61.9302 21.8568 66.0329 18.2987C67.7757 16.8101 69.3913 15.8299 70.8799 15.3579C72.4048 14.8859 74.0023 14.6499 75.6724 14.6499C77.3426 14.6499 78.7041 14.9403 79.757 15.5212C80.2653 14.4683 80.8462 13.9419 81.4997 13.9419C82.7705 13.9419 83.9686 14.5046 85.0941 15.6302C86.2559 16.7194 86.8368 17.7541 86.8368 18.7344C86.3286 19.9325 85.5843 21.3667 84.604 23.0368C84.3135 24.7069 84.1683 27.0487 84.1683 30.0622C84.1683 33.0757 84.5495 34.5824 85.312 34.5824C86.2559 34.5824 88.5433 32.6945 92.174 28.9185C92.8275 28.1924 93.2995 27.8293 93.59 27.8293ZM67.8846 31.0969C67.8846 33.8926 68.9193 35.2904 70.9888 35.2904C73.2036 35.2541 75.0371 34.0741 76.4894 31.7505C76.9977 30.9517 77.4152 29.9714 77.7419 28.8096C77.7419 24.7432 78.105 21.2578 78.8312 18.3532C75.8903 18.9341 73.3306 20.3501 71.1522 22.6011C68.9738 24.8521 67.8846 27.6841 67.8846 31.0969Z" fill="#7F848C"/>
<path d="M99.0922 13.5062C100.399 13.5062 101.634 14.7588 102.795 17.264C104.502 15.4849 106.608 14.5954 109.113 14.5954C111.654 14.5954 113.561 15.1582 114.831 16.2837C116.102 17.3729 116.737 18.9341 116.737 20.9673C116.737 22.9642 116.465 24.9974 115.92 27.0669C115.412 29.1364 115.031 30.625 114.777 31.5326C114.559 32.404 114.45 33.1301 114.45 33.7111C114.45 34.292 114.65 34.5824 115.049 34.5824C115.594 34.5824 116.265 34.2375 117.064 33.5477C117.863 32.8578 118.662 32.1135 119.46 31.3148C120.259 30.4797 120.985 29.7173 121.639 29.0275C122.329 28.3376 122.801 27.9927 123.055 27.9927C123.563 27.9927 123.817 28.6099 123.817 29.8444C123.817 32.3858 122.565 34.8366 120.059 37.1965C115.848 39.6654 113.161 40.8998 111.999 40.8998C111.89 40.8998 111.818 40.8817 111.781 40.8454C108.877 40.8454 107.425 38.5217 107.425 33.8744C107.425 31.8775 107.606 30.044 107.969 28.3739C108.369 26.7038 108.659 25.4875 108.841 24.7251C109.022 23.9626 109.113 23.182 109.113 22.3833C109.113 21.0762 108.35 20.4227 106.826 20.4227C105.337 20.4227 103.903 21.5482 102.523 23.7992C101.18 26.014 100.272 28.3195 99.8001 30.7157V31.0969C99.8001 32.3314 99.9817 33.6021 100.345 34.9092C100.744 36.2162 100.944 37.1239 100.944 37.6322C100.944 38.8666 99.4008 40.0829 96.3147 41.2811C95.8427 41.4626 95.4252 41.5534 95.0621 41.5534C94.1544 41.5534 93.519 41.0814 93.156 40.1374C92.8292 39.1934 92.6658 37.723 92.6658 35.7261C92.6658 30.5705 92.8655 26.849 93.2649 24.5617C93.8095 21.1488 95.0439 17.972 96.9682 15.0311C97.6217 14.0145 98.3297 13.5062 99.0922 13.5062Z" fill="#7F848C"/>
<path d="M137.003 28.7551C137.983 32.64 139.635 34.5824 141.959 34.5824C143.084 34.5824 144.101 34.2375 145.008 33.5477C145.916 32.8578 146.733 32.1135 147.459 31.3148C148.185 30.4797 148.821 29.7173 149.365 29.0275C149.91 28.3376 150.418 27.9927 150.89 27.9927C151.362 27.9927 151.598 28.6099 151.598 29.8444C151.598 32.4222 150.4 34.9092 148.004 37.3054C145.607 39.7017 142.921 40.8817 139.943 40.8454C137.003 40.8454 134.37 38.2494 132.047 33.0575C131.393 31.6052 130.776 30.1348 130.195 28.6462L129.814 36.1073C129.814 36.7971 129.778 37.487 129.705 38.1768C129.632 38.8303 129.324 39.3749 128.779 39.8106C127.363 40.9361 125.929 41.4989 124.477 41.4989C122.77 41.4989 121.917 39.738 121.917 36.2162C121.917 31.1333 122.516 25.8143 123.714 20.2593C124.912 14.7043 126.074 10.529 127.2 7.73339C128.362 4.90145 129.251 3.01348 129.868 2.0695C130.522 1.12552 131.03 0.544606 131.393 0.326763C131.756 0.108921 132.156 0 132.591 0C133.063 0 133.553 0.235996 134.062 0.707988C134.57 1.14367 135.115 1.8335 135.696 2.77749C136.276 3.68516 136.567 4.59284 136.567 5.50051C136.603 6.37188 136.458 7.24325 136.131 8.11461C135.841 8.94968 135.441 9.78474 134.933 10.6198C134.425 11.4186 133.862 12.2536 133.245 13.125C132.628 13.96 132.01 14.8677 131.393 15.848L130.849 20.4227C132.119 17.7723 133.989 15.9932 136.458 15.0856C137.329 14.7588 138.346 14.5954 139.508 14.5954C141.831 14.5954 143.611 15.1582 144.845 16.2837C146.079 17.3729 146.697 18.9886 146.697 21.1307C146.697 23.2728 145.626 25.0881 143.483 26.5767C141.341 28.0653 139.181 28.7915 137.003 28.7551ZM139.072 22.3833C139.072 21.0762 138.328 20.4227 136.839 20.4227C135.351 20.4227 133.735 21.8568 131.992 24.7251C131.484 25.5601 131.048 26.4133 130.685 27.2847C134.461 27.0669 137.039 26.0503 138.419 24.2349C138.854 23.654 139.072 23.0368 139.072 22.3833Z" fill="#7F848C"/>
<path d="M161.279 14.3231C163.712 14.2868 165.527 14.7406 166.725 15.6846C167.923 16.5923 168.522 17.9175 168.522 19.6602C168.522 21.3667 167.996 22.8371 166.943 24.0715C165.927 25.2697 164.674 26.1229 163.185 26.6312C164.238 27.7204 165.182 28.8278 166.017 29.9533C166.889 31.0788 167.324 32.2588 167.324 33.4932C167.324 35.9258 166.362 37.8137 164.438 39.1571C162.514 40.4642 159.827 41.1177 156.378 41.1177C152.965 41.1177 150.405 40.446 148.699 39.1026C146.992 37.723 146.139 36.1799 146.139 34.4735C146.139 32.7308 146.557 31.1514 147.392 29.7354C148.263 28.3195 149.189 27.6115 150.169 27.6115C150.75 27.6115 151.168 27.8293 151.422 28.265C151.676 28.6644 152.148 29.8625 152.838 31.8594C153.092 32.5855 153.51 33.2754 154.09 33.9289C155.434 35.4175 157.558 36.1618 160.462 36.1618C160.027 34.7821 159.319 33.6021 158.338 32.6218C157.394 31.6052 156.45 30.625 155.506 29.681C154.562 28.737 153.727 27.7386 153.001 26.6856C152.275 25.5964 151.912 24.3257 151.912 22.8734C151.912 20.2593 152.892 18.1353 154.853 16.5015C156.705 15.0493 158.847 14.3231 161.279 14.3231ZM161.061 24.3983C162.514 22.8371 163.24 21.5845 163.24 20.6405C163.24 20.2048 163.076 19.8236 162.75 19.4969C162.459 19.1338 162.024 18.9523 161.443 18.9523C160.862 18.9523 160.299 19.0249 159.754 19.1701C159.246 19.3153 158.829 19.4242 158.502 19.4969C158.502 20.8765 159.355 22.5103 161.061 24.3983Z" fill="#7F848C"/>
<path d="M188.747 3.10425C189.365 2.48703 190.018 2.17842 190.708 2.17842C191.87 2.17842 192.868 2.6141 193.703 3.48547C194.575 4.32053 195.028 5.01037 195.065 5.55497C195.028 6.53526 194.665 7.58816 193.976 8.71368C193.322 9.80289 192.596 10.9647 191.797 12.1992C190.998 13.3973 190.272 14.668 189.619 16.0114C188.965 17.3184 188.638 18.5166 188.638 19.6058C188.638 20.6587 188.729 21.6753 188.911 22.6556C189.092 23.5996 189.183 24.3802 189.183 24.9974C189.183 26.0866 188.511 26.9761 187.168 27.6659C185.825 28.3195 184.554 28.6462 183.356 28.6462C182.158 28.6462 181.377 28.3558 181.014 27.7749C180.687 27.1576 180.524 26.2318 180.524 24.9974C180.524 21.9839 181.268 18.1898 182.757 13.6151C184.282 9.00414 186.278 5.50051 188.747 3.10425ZM188.366 35.835C187.64 37.6867 186.551 39.2297 185.098 40.4642C183.646 41.6623 182.067 42.2614 180.36 42.2614C178.654 42.2614 177.801 41.3355 177.801 39.4839C177.801 37.5959 178.4 35.9076 179.598 34.419C180.832 32.9305 182.067 32.1862 183.301 32.1862C185.48 32.1862 187.168 33.4024 188.366 35.835Z" fill="#7F848C"/>
<path d="M84.7939 58.4122L95.9046 58.6401C99.7288 58.6948 101.646 58.4296 101.656 57.8444C101.655 57.5762 101.053 57.328 99.8262 57.0858C97.6063 56.7723 95.3657 56.6281 93.1239 56.6546C89.8822 56.598 87.1878 56.542 85.0408 56.4867L12.5603 55.1811C10.4353 55.1308 8.3091 55.2058 6.19287 55.4055C4.41405 55.6022 3.49062 55.8345 3.48548 56.1271C3.48034 56.4197 4.03011 56.6717 5.13673 56.9095C6.4752 57.1763 7.83669 57.3106 9.2015 57.3105L84.7939 58.4122Z" fill="#7F848C"/>
<path d="M222.8 24.1612C223.786 25.587 224.985 26.8537 226.354 27.9172C227.539 28.8177 228.57 29.1021 229.399 28.64C229.783 28.4607 230.127 28.2071 230.412 27.8939C230.696 27.5807 230.916 27.2141 231.058 26.8153C231.196 26.4701 231.26 26.0998 231.246 25.7283C231.231 25.3568 231.139 24.9925 230.975 24.6589C229.614 22.1134 228.069 19.6701 226.354 17.3483C225.362 15.9341 224.164 14.6761 222.8 13.616C221.615 12.7155 220.596 12.4311 219.778 12.8932C219.013 13.2619 218.419 13.9111 218.119 14.706C217.964 15.042 217.883 15.4079 217.883 15.7783C217.883 16.1487 217.964 16.5146 218.119 16.8506C219.513 19.3901 221.077 21.8326 222.8 24.1612Z" fill="#7F848C"/>
<path d="M239.388 11.898C240.374 13.3239 241.573 14.5906 242.943 15.654C244.127 16.5664 245.17 16.8389 246 16.3768C246.383 16.1975 246.727 15.9439 247.012 15.6307C247.297 15.3175 247.516 14.9509 247.658 14.5521C247.796 14.2089 247.86 13.8405 247.846 13.471C247.831 13.1014 247.739 12.7391 247.575 12.4075C246.21 9.87686 244.662 7.44934 242.943 5.14432C241.957 3.72107 240.758 2.45819 239.388 1.40016C238.203 0.511514 237.184 0.215301 236.367 0.689245C235.598 1.05169 235 1.69693 234.696 2.49023C234.542 2.82684 234.463 3.19252 234.463 3.56253C234.463 3.93253 234.542 4.29822 234.696 4.63483C236.089 7.16213 237.657 9.58909 239.388 11.898Z" fill="#7F848C"/>
<path d="M275.232 21.519C272.762 19.3751 269.676 18.0686 266.417 17.7867C266.787 16.5821 267.061 15.3499 267.235 14.1018C267.559 11.2503 266.942 9.09776 265.386 7.64433L263.265 6.92157L263.028 7.18223C262.282 7.96424 261.903 9.55195 261.844 12.0165C261.844 18.4858 258.494 25.2711 251.796 32.3724C249.245 35.0817 245.133 38.0044 239.462 41.1403C234.616 44.0066 229.175 45.7176 223.561 46.1404C222.376 46.1404 221.191 46.2826 220.255 46.4129C219.592 46.4328 218.95 46.6562 218.418 47.0528C218.146 47.349 218.122 47.7992 218.418 48.4272C218.687 49.0811 219.091 49.6707 219.603 50.1571C221.179 51.6263 223.869 51.9581 227.66 51.1287C231.712 50.2068 235.622 48.7442 239.284 46.7803C248.305 41.9934 254.012 38.3203 256.405 35.7611C256.488 35.6781 256.571 35.5478 256.642 35.4648C259.509 37.3369 263.111 39.4815 266.05 40.2043C267.041 40.4267 268.058 40.5025 269.071 40.4294C270.831 40.2723 272.531 39.7104 274.037 38.7875C275.544 37.8646 276.817 36.6057 277.756 35.1094C282.045 28.3794 277.958 24.2561 275.232 21.519ZM266.938 36.3772C264.102 35.4343 261.422 34.0725 258.988 32.3368C259.936 30.9387 260.919 29.351 261.962 27.4907C264.908 27.5127 267.764 28.5037 270.09 30.3107C270.923 31.0085 271.645 31.8273 272.235 32.7397C272.614 33.2491 272.993 33.7586 273.42 34.2563C272.614 35.1289 271.6 35.7817 270.472 36.1529C269.344 36.524 268.14 36.6012 266.974 36.3772H266.938ZM274.664 32.7397C274.368 32.3605 274.071 31.9932 273.799 31.5548C273.098 30.5012 272.248 29.5553 271.275 28.7467C268.877 26.9048 265.996 25.7977 262.981 25.5594C263.455 24.6708 263.929 23.794 264.427 22.8105C264.652 22.3484 264.782 21.91 264.983 21.4479C267.353 21.5546 270.789 22.4669 272.484 24.1731C275.695 27.4196 276.868 29.2206 274.699 32.7397H274.664Z" fill="#7F848C"/>
</svg>
