<svg width="25" height="25" viewBox="0 0 25 25" fill="none" xmlns="http://www.w3.org/2000/svg">
<g clip-path="url(#clip0)">
<path d="M20.6917 23.6985C15.5587 24.2463 10.4101 24.2463 5.2771 23.6985C3.23035 23.48 1.61371 21.8634 1.39526 19.8165C0.847412 14.6835 0.847412 9.5351 1.39526 4.4021C1.61371 2.35535 3.23035 0.738708 5.2771 0.520264C10.4101 -0.0275879 15.5585 -0.0275879 20.6915 0.520264C22.7384 0.738708 24.355 2.35535 24.5735 4.4021C25.1213 9.5351 25.1213 14.6835 24.5735 19.8165C24.355 21.8634 22.7386 23.48 20.6917 23.6985Z" fill="url(#paint0_linear)"/>
<path d="M23.2681 5.27011C23.0744 3.45389 21.6399 2.01926 19.8235 1.82535C15.2686 1.33939 10.7001 1.33939 6.14517 1.82535C4.32895 2.01926 2.89432 3.45389 2.70041 5.27011C2.21445 9.82504 2.21445 14.3935 2.70041 18.9483C2.89432 20.7647 4.32895 22.1993 6.14517 22.393C10.7001 22.8792 15.2686 22.8792 19.8233 22.393C21.6397 22.1993 23.0744 20.7647 23.2681 18.9483C23.7542 14.3935 23.7542 9.82504 23.2681 5.27011Z" fill="url(#paint1_linear)"/>
<path d="M1.34375 19.319C1.36023 19.4849 1.37726 19.6508 1.39502 19.8167C1.61346 21.8634 3.2301 23.48 5.27704 23.6985C10.41 24.2463 15.5584 24.2463 20.6914 23.6985C22.7383 23.48 24.3548 21.8634 24.5732 19.8167C24.591 19.6508 24.608 19.4849 24.6247 19.319H1.34375Z" fill="url(#paint2_linear)"/>
<path d="M24.9799 11.266L19.9981 6.28442C19.4398 6.60358 18.9478 6.78064 18.5772 6.87878C18.3688 6.93463 18.1987 6.96503 18.0764 6.98169C17.5146 6.40582 16.7302 6.04822 15.8619 6.04822C14.1536 6.04822 12.7684 7.43323 12.7684 9.14197C12.7684 9.20367 12.77 9.26465 12.774 9.32544C12.7823 9.47357 12.8011 9.61914 12.8303 9.76068C12.1171 9.75006 9.79895 9.55963 7.58813 7.66449C7.58795 7.66449 7.58795 7.66431 7.58795 7.66431H7.58777L6.54517 6.62152C6.54517 6.62152 5.32202 8.75635 7.1203 10.3763C7.19922 10.4644 7.28601 10.5513 7.38104 10.6368C7.38855 10.6453 7.39642 10.6535 7.40393 10.6619C7.16791 10.646 6.45801 10.5753 6.04712 10.2851C6.04712 10.2851 5.96454 11.5899 7.05164 12.5505L7.92944 13.4358C7.66211 13.4579 7.36639 13.4526 7.16077 13.3625C7.16077 13.3625 7.34277 14.1354 8.04626 14.754L9.276 15.9901C8.53827 16.4199 7.24683 16.9576 5.54688 16.8203L13.0068 24.1094C15.5699 24.1086 18.133 23.9717 20.6923 23.6985C22.7392 23.48 24.3558 21.8634 24.5743 19.8167C24.878 16.9694 25.013 14.1173 24.9799 11.266Z" fill="url(#paint3_linear)"/>
<path d="M20.4235 7.48596C19.8925 7.76373 19.0927 7.89209 18.8275 7.92908C18.8253 7.91626 18.8231 7.90399 18.8209 7.89172C19.7224 7.33417 19.9983 6.28442 19.9983 6.28442C19.44 6.60358 18.948 6.78064 18.5774 6.87878C18.369 6.93463 18.1989 6.96484 18.0766 6.98169C17.5148 6.40564 16.7304 6.04822 15.8621 6.04822C14.1537 6.04822 12.7686 7.43304 12.7686 9.14197C12.7686 9.20349 12.7702 9.26465 12.7742 9.32526C12.7825 9.47339 12.8013 9.61896 12.8304 9.7605C12.0035 9.74823 9.01874 9.49463 6.54535 6.62152C6.54535 6.62152 5.16803 9.0246 7.48358 10.6661C7.48358 10.6661 6.54535 10.6368 6.0473 10.2851C6.0473 10.2851 5.90082 12.6006 8.56775 13.3331C8.56775 13.3331 7.63007 13.5678 7.16077 13.3625C7.16077 13.3625 7.62988 15.3555 9.97455 15.5023C9.97455 15.5023 8.29291 17.0419 5.54688 16.8203C6.89746 17.6754 8.49872 18.1704 10.2155 18.1704C15.0427 18.1704 18.9561 14.2572 18.9561 9.42999C18.9561 9.36975 18.9555 9.30951 18.9542 9.24927C18.9555 9.21356 18.9561 9.17804 18.9561 9.14197C18.9561 9.11688 18.9555 9.0918 18.9551 9.06671C19.8476 8.47199 20.4235 7.48596 20.4235 7.48596Z" fill="white"/>
</g>
<defs>
<linearGradient id="paint0_linear" x1="8.95284" y1="3.48373" x2="15.0231" y2="16.4713" gradientUnits="userSpaceOnUse">
<stop stop-color="#00C3FF"/>
<stop offset="1" stop-color="#00B0ED"/>
</linearGradient>
<linearGradient id="paint1_linear" x1="18.0601" y1="14.8321" x2="-16.8088" y2="-3.87285" gradientUnits="userSpaceOnUse">
<stop stop-color="#00B0ED" stop-opacity="0"/>
<stop offset="1" stop-color="#00A2CE"/>
</linearGradient>
<linearGradient id="paint2_linear" x1="12.9841" y1="20.6117" x2="12.9841" y2="23.7565" gradientUnits="userSpaceOnUse">
<stop stop-color="#00B0ED" stop-opacity="0"/>
<stop offset="1" stop-color="#00A2CE"/>
</linearGradient>
<linearGradient id="paint3_linear" x1="23.9266" y1="22.7065" x2="12.2019" y2="10.9818" gradientUnits="userSpaceOnUse">
<stop stop-color="#00B0ED" stop-opacity="0"/>
<stop offset="1" stop-color="#00A2CE"/>
</linearGradient>
<clipPath id="clip0">
<rect x="0.984375" y="0.109375" width="24" height="24" fill="white"/>
</clipPath>
</defs>
</svg>
