<svg width="24" height="25" viewBox="0 0 24 25" fill="none" xmlns="http://www.w3.org/2000/svg">
<g clip-path="url(#clip0)">
<path fill-rule="evenodd" clip-rule="evenodd" d="M18 24.1094H6C4.40872 24.1093 2.88264 23.4771 1.75744 22.3519C0.632233 21.2267 6.96138e-05 19.7007 0 18.1094L0 6.10938C6.96138e-05 4.5181 0.632233 2.99201 1.75744 1.86681C2.88264 0.741608 4.40872 0.109445 6 0.109375L18 0.109375C19.5913 0.109375 21.1174 0.741516 22.2426 1.86673C23.3679 2.99195 24 4.51808 24 6.10938V18.1094C24 19.7007 23.3679 21.2268 22.2426 22.352C21.1174 23.4772 19.5913 24.1094 18 24.1094Z" fill="#4682C3"/>
<path fill-rule="evenodd" clip-rule="evenodd" d="M11.25 6.85938H18C18.8652 6.85932 19.6974 6.527 20.3246 5.93103C20.9519 5.33506 21.3263 4.52097 21.3706 3.65688C21.4149 2.79278 21.1256 1.94468 20.5626 1.28772C19.9995 0.630764 19.2057 0.215118 18.345 0.126625C18.2302 0.12025 18.1166 0.109375 18 0.109375H6C4.40872 0.109445 2.88264 0.741608 1.75744 1.86681C0.632233 2.99201 6.96138e-05 4.5181 0 6.10938L0 18.1094C6.96164e-05 15.1257 1.18536 12.2643 3.29513 10.1545C5.40489 8.04473 8.26634 6.85944 11.25 6.85938Z" fill="#5F9BDC"/>
<path fill-rule="evenodd" clip-rule="evenodd" d="M18 12.1094C16.8133 12.1094 15.6533 12.4613 14.6666 13.1206C13.6799 13.7798 12.9109 14.7169 12.4567 15.8133C12.0026 16.9096 11.8838 18.116 12.1153 19.2799C12.3468 20.4438 12.9182 21.5129 13.7574 22.352C14.5965 23.1911 15.6656 23.7626 16.8295 23.9941C17.9933 24.2256 19.1997 24.1068 20.2961 23.6527C21.3925 23.1985 22.3295 22.4295 22.9888 21.4428C23.6481 20.4561 24 19.2961 24 18.1094V6.10938C24 7.70067 23.3679 9.2268 22.2426 10.352C21.1174 11.4772 19.5913 12.1094 18 12.1094Z" fill="#2D69AA"/>
<path fill-rule="evenodd" clip-rule="evenodd" d="M19.9193 8.28583C20.0408 7.90408 19.9193 7.62695 19.3811 7.62695H17.5943C17.4278 7.6177 17.2626 7.66136 17.1224 7.75169C16.9822 7.84202 16.8742 7.97438 16.8139 8.12983C16.2551 9.44753 15.5131 10.6798 14.61 11.7902C14.1938 12.2065 14.0033 12.3456 13.7775 12.3456C13.656 12.3456 13.5 12.2065 13.5 11.8247V8.26858C13.5 7.81745 13.3609 7.60933 12.9795 7.60933H10.2398C10.1827 7.60657 10.1257 7.61521 10.072 7.63471C10.0183 7.65422 9.96899 7.68422 9.927 7.72296C9.88502 7.7617 9.85116 7.80841 9.8274 7.86036C9.80365 7.91232 9.79046 7.96848 9.78863 8.02558C9.78863 8.45945 10.4306 8.56333 10.5 9.77795V12.4146C10.5 12.9872 10.3958 13.0915 10.1704 13.0915C9.56288 13.0915 7.84425 10.8535 6.95925 8.30308C6.78563 7.79983 6.61275 7.60933 6.16125 7.60933H4.35713C3.83663 7.60933 3.75 7.85195 3.75 8.1122C3.75 9.2582 6.98925 17.3417 12.2164 17.3417C13.3609 17.3417 13.5 17.0818 13.5 16.648V15.0347C13.5 14.5138 13.6043 14.4272 13.9684 14.4272C14.8988 14.4272 16.5825 16.5055 17.0175 16.9408C17.1179 17.0676 17.2449 17.1707 17.3895 17.243C17.5341 17.3153 17.6929 17.355 17.8545 17.3593H19.6414C20.1619 17.3593 20.343 17.0432 20.2046 16.5403C19.8829 15.5053 17.6445 13.3761 17.5253 13.213C17.2646 12.8657 17.334 12.7273 17.5253 12.4146C17.5076 12.4146 19.6935 9.32683 19.9193 8.28583Z" fill="white"/>
</g>
<defs>
<clipPath id="clip0">
<rect y="0.109375" width="24" height="24" fill="white"/>
</clipPath>
</defs>
</svg>
