<svg width="24" height="25" viewBox="0 0 24 25" fill="none" xmlns="http://www.w3.org/2000/svg">
<g clip-path="url(#clip0)">
<path fill-rule="evenodd" clip-rule="evenodd" d="M18 24.1094H6C4.40872 24.1093 2.88264 23.4771 1.75744 22.3519C0.632233 21.2267 6.96138e-05 19.7007 0 18.1094L0 6.10938C6.96138e-05 4.5181 0.632233 2.99201 1.75744 1.86681C2.88264 0.741608 4.40872 0.109445 6 0.109375L18 0.109375C19.5913 0.109375 21.1174 0.741516 22.2426 1.86673C23.3679 2.99195 24 4.51808 24 6.10938V18.1094C24 19.7007 23.3679 21.2268 22.2426 22.352C21.1174 23.4772 19.5913 24.1094 18 24.1094Z" fill="#FF0000"/>
<path fill-rule="evenodd" clip-rule="evenodd" d="M11.25 6.85938H18C18.8652 6.85932 19.6974 6.527 20.3246 5.93103C20.9519 5.33506 21.3263 4.52097 21.3706 3.65688C21.4149 2.79278 21.1256 1.94468 20.5626 1.28772C19.9995 0.630764 19.2057 0.215118 18.345 0.126625C18.2302 0.12025 18.1166 0.109375 18 0.109375H6C4.40872 0.109445 2.88264 0.741608 1.75744 1.86681C0.632233 2.99201 6.96138e-05 4.5181 0 6.10938L0 18.1094C6.96164e-05 15.1257 1.18536 12.2643 3.29513 10.1545C5.40489 8.04473 8.26634 6.85944 11.25 6.85938Z" fill="#FF5A51"/>
<path fill-rule="evenodd" clip-rule="evenodd" d="M18 12.1094C16.8133 12.1094 15.6533 12.4613 14.6666 13.1206C13.6799 13.7798 12.9109 14.7169 12.4567 15.8133C12.0026 16.9096 11.8838 18.116 12.1153 19.2799C12.3468 20.4438 12.9182 21.5129 13.7574 22.352C14.5965 23.1911 15.6656 23.7626 16.8295 23.9941C17.9933 24.2256 19.1997 24.1068 20.2961 23.6527C21.3925 23.1985 22.3295 22.4295 22.9888 21.4428C23.6481 20.4561 24 19.2961 24 18.1094V6.10938C24 7.70067 23.3679 9.2268 22.2426 10.352C21.1174 11.4772 19.5913 12.1094 18 12.1094Z" fill="#D5002C"/>
<path fill-rule="evenodd" clip-rule="evenodd" d="M9.393 6.81287C9.27938 6.74288 9.14914 6.70449 9.01573 6.70165C8.88231 6.69881 8.75056 6.73163 8.63407 6.79671C8.51757 6.8618 8.42056 6.9568 8.35305 7.07191C8.28553 7.18701 8.24996 7.31805 8.25 7.45149V16.7672C8.24996 16.9007 8.28553 17.0317 8.35305 17.1468C8.42056 17.2619 8.51757 17.3569 8.63407 17.422C8.75056 17.4871 8.88231 17.5199 9.01573 17.5171C9.14914 17.5142 9.27938 17.4758 9.393 17.4059C11.3051 16.2295 15.1226 13.8801 16.962 12.748C17.0711 12.6809 17.1612 12.587 17.2237 12.4752C17.2862 12.3634 17.319 12.2374 17.319 12.1094C17.319 11.9813 17.2862 11.8553 17.2237 11.7435C17.1612 11.6317 17.0711 11.5378 16.962 11.4707C15.1226 10.3386 11.3051 7.98924 9.393 6.81287Z" fill="white"/>
</g>
<defs>
<clipPath id="clip0">
<rect y="0.109375" width="24" height="24" fill="white"/>
</clipPath>
</defs>
</svg>
