<svg width="244" height="257" viewBox="0 0 244 257" fill="none" xmlns="http://www.w3.org/2000/svg">
<path d="M181.25 135.511C181.25 135.511 168.233 137.566 158.422 163.515C156.512 168.565 154.497 173.572 152.202 178.46C147.694 188.062 140.319 207.443 139.991 232.014C139.825 244.108 129.295 253.557 117.254 252.426C98.8456 250.698 78.8942 233.097 95.345 155.335C95.345 155.335 71.3908 154.509 47.4366 158.639C47.4366 158.639 19.3524 166.9 16.0484 142.119C16.0484 142.119 12.7444 127.251 21.0045 123.947C21.0045 123.947 4.48433 119.817 5.31035 101.645C5.31035 101.645 2.83232 83.4729 14.3964 80.9949C14.3964 80.9949 2.83232 76.0389 6.96236 57.8668C6.96236 57.8668 9.38088 45.4387 16.8149 44.6127C16.8149 44.6127 8.61437 23.1745 30.0905 16.5665C30.0905 16.5665 41.6546 5.8284 97.823 4.1764C97.823 4.1764 145.731 -0.779636 169.685 21.5225L188.684 21.5225L188.684 133.033L181.25 135.511Z" fill="#D1DCE4"/>
<g opacity="0.2">
<path opacity="0.2" d="M111.04 131.381C111.04 131.381 104.432 119.817 76.3477 123.121L17.5064 125.872L89.9768 113.622C89.9768 113.622 114.757 112.796 111.04 131.381Z" fill="#102770"/>
</g>
<g opacity="0.2">
<path opacity="0.2" d="M109.388 92.5588C109.388 92.5588 104.432 78.5167 74.6954 82.6468L10.267 84.2988L16.049 80.9948L88.3245 74.7997C88.3245 74.7997 113.105 73.9737 109.388 92.5588Z" fill="#102770"/>
</g>
<g opacity="0.6">
<path opacity="0.6" d="M73.0447 34.7383L76.4643 31.8886C77.6902 30.867 78.6342 29.5487 79.2067 28.0592C80.6291 24.3802 82.1307 17.3922 76.3487 11.6101C76.3487 11.6101 90.4883 15.9814 85.2696 30.1127C85.2696 30.1127 81.7111 35.1546 80.8851 35.1546C80.0591 35.1546 73.0381 36.6216 73.0381 36.6216L73.0447 34.7383Z" fill="white"/>
</g>
<g opacity="0.2">
<path opacity="0.2" d="M100.648 57.822C100.648 57.822 92.8691 46.3025 68.9149 45.4765L11.6397 46.818L20.8051 43.9022C20.8051 43.9022 92.4561 24.4084 99.0641 49.1886L100.648 57.822Z" fill="#102770"/>
</g>
<g opacity="0.6">
<path opacity="0.6" d="M81.3038 71.0827L91.2158 66.9527C91.2158 66.9527 101.128 60.3446 94.5198 44.6505C94.5198 44.6505 103.193 50.0196 100.715 59.9316L95.7589 69.0177C95.7589 69.0177 89.1937 72.8768 88.7593 72.5992C88.3248 72.3217 81.3038 71.0827 81.3038 71.0827Z" fill="white"/>
</g>
<g opacity="0.6">
<path opacity="0.6" d="M84.6082 111.557L96.0963 106.72C99.8378 105.157 102.82 102.192 104.404 98.46C106.238 94.1102 107.394 87.7946 104.432 80.1772C104.432 80.1772 112.279 87.1982 109.801 96.2843C109.801 96.2843 105.671 109.5 95.7592 111.152L84.6082 111.557Z" fill="white"/>
</g>
<g opacity="0.6">
<path opacity="0.6" d="M41.6561 155.335L88.0149 149.256C90.9951 148.876 93.8317 147.752 96.2634 145.988C112.693 137.989 112.693 113.209 94.5205 114.035C94.5205 114.035 106.498 109.492 111.454 121.882L113.932 137.576C113.932 137.576 104.373 152.94 88.9152 155.167L41.6561 155.335Z" fill="white"/>
</g>
<path d="M136.601 241.853L139.274 229.958L139.54 213.572L142.844 202.834C142.844 202.834 124.506 196.908 117.158 204.826L115.952 223.107C115.952 223.107 117.142 248.662 136.601 241.853Z" fill="#CAD5DF"/>
<path d="M108.816 2.32772e-05C124.773 2.46722e-05 152.76 2.4384 170.351 17.8417L187.92 17.8418C188.906 17.8418 189.851 18.2334 190.548 18.9305C191.245 19.6275 191.637 20.573 191.637 21.5588L191.637 133.07C191.637 133.85 191.391 134.611 190.935 135.244C190.479 135.877 189.835 136.35 189.094 136.597L181.66 139.075C181.488 139.133 181.312 139.177 181.133 139.208C180.793 139.284 169.789 141.976 161.134 164.867C158.848 170.914 156.839 175.746 154.803 180.078C150.508 189.218 143.264 208.13 142.944 232.101C142.89 235.482 142.138 238.816 140.736 241.893C139.334 244.97 137.312 247.724 134.795 249.983C132.279 252.242 129.324 253.957 126.114 255.021C122.904 256.085 119.509 256.474 116.141 256.164C106.996 255.305 99.6693 251.208 94.363 244.002C83.2466 228.894 81.7945 200.32 90.0347 159.028C82.1051 159.016 64.7259 159.358 47.4921 162.307C45.4734 162.862 31.5816 166.323 21.4647 159.75C15.9916 156.194 12.6809 150.498 11.622 142.805C10.5746 137.963 10.2426 130.324 13.4392 125.128C7.18141 121.51 0.388349 114.187 0.814573 101.845C0.0166461 95.4731 0.731949 85.48 6.78493 80.3258C3.27605 76.394 -0.179931 69.2342 2.5558 57.1282C2.85977 55.6034 5.02057 45.921 11.5311 42.2717C10.6523 38.183 9.98488 31.3486 13.0774 25.0016C15.7653 19.4872 20.6321 15.5405 27.5458 13.2624C31.0546 10.6819 46.5043 1.99069 96.813 0.497276C97.8124 0.403114 102.317 2.2709e-05 108.816 2.32772e-05ZM184.203 25.2758L168.922 25.2758C167.982 25.2777 167.077 24.9235 166.389 24.2846C143.922 3.37509 97.9033 7.86854 97.4407 7.91645C97.3498 7.91645 97.259 7.93133 97.1681 7.93299C45.6254 9.44953 32.596 18.7735 31.8212 19.3665C31.4339 19.7531 30.9493 20.0277 30.4186 20.1612C25.1867 21.7702 21.6035 24.4994 19.7664 28.2693C16.4938 34.983 19.4906 43.2464 19.5236 43.3273C19.7261 43.8578 19.8045 44.4275 19.7527 44.9929C19.7009 45.5583 19.5203 46.1044 19.2248 46.5892C18.9293 47.0741 18.5267 47.4847 18.0479 47.7898C17.569 48.095 17.0267 48.2864 16.4624 48.3494C12.9288 48.7426 10.4788 55.4432 9.85437 58.6266C9.84612 58.6597 9.83788 58.6993 9.83126 58.7323C6.49089 73.4352 14.7989 77.4777 15.154 77.6412C15.8758 77.9515 16.4796 78.4843 16.8772 79.1619C17.2748 79.8395 17.4455 80.6264 17.3644 81.4078C17.2825 82.1938 16.9531 82.9334 16.4237 83.5201C15.8943 84.1068 15.1923 84.5102 14.4189 84.6722C6.44794 86.3787 8.21722 101.037 8.23704 101.184C8.26837 101.406 8.27832 101.631 8.26677 101.855C7.5944 116.667 20.6139 120.243 21.169 120.389C21.9267 120.585 22.6032 121.015 23.1022 121.618C23.6013 122.221 23.8974 122.966 23.9484 123.747C23.9995 124.529 23.8029 125.306 23.3866 125.969C22.9703 126.632 22.3556 127.146 21.6299 127.439C17.2405 129.196 18.3771 138.868 18.9222 141.361C18.9437 141.462 18.9636 141.569 18.9768 141.67C19.7235 147.267 21.8645 151.144 25.5237 153.52C33.265 158.549 45.513 155.15 45.632 155.116C45.7692 155.075 45.9088 155.042 46.05 155.018C70.1049 150.872 93.7237 151.628 94.7165 151.663C95.2589 151.681 95.7906 151.818 96.2744 152.064C96.7582 152.31 97.1822 152.659 97.5166 153.086C97.8511 153.514 98.0879 154.009 98.2103 154.538C98.3328 155.066 98.3379 155.616 98.2254 156.146C87.2858 207.854 93.347 230.072 100.358 239.601C104.354 245.031 109.902 248.116 116.845 248.768C119.19 248.981 121.554 248.708 123.789 247.966C126.023 247.224 128.081 246.029 129.833 244.455C131.585 242.882 132.993 240.965 133.971 238.822C134.948 236.68 135.473 234.359 135.513 232.005C135.853 206.639 143.53 186.606 148.077 176.922C150.026 172.771 151.967 168.105 154.189 162.242C163.903 136.552 176.848 132.521 179.549 131.949L184.211 130.397L184.203 25.2758Z" fill="#D1DCE4"/>
<path d="M224.822 7.92961C228.725 7.93399 232.467 9.48636 235.226 12.2461C237.986 15.0059 239.539 18.7478 239.543 22.6507L239.543 131.153C239.539 135.056 237.986 138.798 235.226 141.557C232.467 144.317 228.725 145.869 224.822 145.873L190.667 145.873C186.764 145.868 183.023 144.316 180.263 141.557C177.504 138.797 175.952 135.056 175.947 131.153L175.947 22.6507C175.952 18.7481 177.504 15.0065 180.263 12.2467C183.023 9.48699 186.764 7.93443 190.667 7.92961L224.822 7.92961Z" fill="#D1DCE4"/>
<path d="M190.668 142.157C189.223 142.157 187.792 141.873 186.457 141.32C185.122 140.767 183.91 139.956 182.888 138.934C181.866 137.912 181.056 136.699 180.503 135.364C179.95 134.029 179.666 132.598 179.666 131.153L179.666 22.6508C179.666 19.7328 180.825 16.9342 182.888 14.8709C184.952 12.8075 187.75 11.6484 190.668 11.6484L224.824 11.6484C226.269 11.6481 227.7 11.9325 229.035 12.4854C230.37 13.0382 231.583 13.8486 232.605 14.8703C233.626 15.892 234.437 17.105 234.99 18.44C235.543 19.7749 235.828 21.2058 235.828 22.6508L235.828 131.153C235.828 132.598 235.543 134.029 234.99 135.364C234.437 136.699 233.626 137.912 232.605 138.934C231.583 139.956 230.37 140.767 229.035 141.32C227.7 141.873 226.269 142.157 224.824 142.157L190.668 142.157ZM190.668 149.591L224.824 149.591C229.712 149.586 234.398 147.641 237.855 144.185C241.312 140.728 243.256 136.042 243.262 131.153L243.262 22.6508C243.256 17.7626 241.312 13.0762 237.855 9.61992C234.398 6.1636 229.712 4.21954 224.824 4.21431L190.668 4.21431C185.78 4.21954 181.094 6.16363 177.638 9.61999C174.181 13.0764 172.237 17.7627 172.232 22.6508L172.232 131.153C172.237 136.041 174.181 140.728 177.637 144.185C181.094 147.641 185.78 149.586 190.668 149.591Z" fill="#363C46"/>
<g opacity="0.6">
<path opacity="0.6" d="M190.668 142.157L224.832 142.157C226.277 142.157 227.707 141.873 229.042 141.32C230.377 140.767 231.59 139.956 232.612 138.934C233.634 137.912 234.444 136.699 234.997 135.364C235.55 134.029 235.834 132.598 235.834 131.153L235.834 22.6507C235.833 20.3303 235.099 18.0695 233.736 16.1917C232.373 14.3138 230.451 12.915 228.245 12.1951C229.318 13.2197 230.173 14.4518 230.756 15.8166C231.34 17.1814 231.639 18.6505 231.638 20.1347L231.638 84.6573C228.686 87.4657 226.682 92.9058 226.682 99.1669C226.682 105.428 228.686 110.875 231.638 113.677L231.638 128.639C231.638 131.557 230.479 134.355 228.415 136.419C226.352 138.482 223.553 139.641 220.635 139.641L186.472 139.641C185.312 139.641 184.159 139.456 183.057 139.094C185.102 141.062 187.83 142.16 190.668 142.157Z" fill="white"/>
</g>
<path d="M91.9644 152.031C92.46 151.84 93.139 151.551 93.7304 151.28C94.3218 151.009 94.9496 150.702 95.5476 150.398C96.7591 149.789 97.9326 149.124 99.0681 148.405C101.292 147.012 103.34 145.357 105.169 143.476C106.88 141.721 108.236 139.653 109.164 137.385C110.019 135.187 110.284 132.84 110.087 130.436C109.89 128.033 109.124 125.601 108 123.167C107.783 122.678 107.522 122.209 107.221 121.767C106.889 121.276 106.532 120.803 106.15 120.351C105.384 119.449 104.508 118.647 103.542 117.964C101.603 116.587 99.3416 115.737 96.9766 115.496C96.3654 115.472 95.7541 115.388 95.1396 115.396L93.2844 115.481L88.9346 116.041C77.3364 117.525 65.7255 118.939 54.102 120.281C42.485 121.66 30.8488 122.933 19.1933 124.101C19.0721 124.114 18.9505 124.08 18.8538 124.006C18.7571 123.932 18.6929 123.823 18.6746 123.702C18.6562 123.582 18.6852 123.459 18.7554 123.359C18.8255 123.259 18.9316 123.191 19.0512 123.167C30.5283 120.809 42.0258 118.568 53.5436 116.444C65.0537 114.26 76.577 112.158 88.1136 110.14L92.4385 109.383C93.2645 109.291 94.1186 109.218 94.9595 109.144C95.8037 109.096 96.6545 109.144 97.5053 109.162C101.006 109.358 104.392 110.48 107.317 112.413C108.775 113.372 110.107 114.51 111.281 115.801C111.867 116.446 112.415 117.123 112.924 117.83C113.467 118.582 113.944 119.379 114.349 120.214C115.748 123.05 116.85 126.283 117.219 129.695C117.615 133.179 117.17 136.708 115.92 139.985C115.291 141.595 114.493 143.134 113.538 144.576C112.593 145.963 111.527 147.265 110.353 148.465C108.052 150.845 105.427 152.75 102.703 154.361C101.338 155.164 99.942 155.895 98.5146 156.556C97.8059 156.887 97.0758 157.191 96.3406 157.481C95.6055 157.772 94.9017 158.028 94.0146 158.307C93.1991 158.559 92.318 158.485 91.5557 158.101C90.7935 157.718 90.2092 157.054 89.9252 156.25C89.6413 155.445 89.6796 154.561 90.0323 153.784C90.3851 153.007 91.0247 152.397 91.8174 152.081L91.9644 152.031Z" fill="#363C46"/>
<path d="M98.4575 109.409C98.6062 109.304 98.8985 109.102 99.1298 108.924C99.3611 108.745 99.6255 108.544 99.8634 108.352C100.347 107.954 100.833 107.546 101.297 107.116C102.233 106.275 103.109 105.37 103.921 104.409C105.483 102.557 106.727 100.459 107.603 98.2003C108.401 96.0307 108.745 93.7203 108.614 91.4122C108.445 89.1144 107.768 86.8828 106.632 84.8785C105.492 82.8413 103.922 81.0768 102.031 79.7077C101.066 78.9992 100.036 78.3857 98.9531 77.8757C97.8521 77.3541 96.7072 76.9307 95.5317 76.6102C93.1377 75.9692 90.6556 75.7204 88.182 75.8734C87.5922 75.8999 86.8604 75.9758 86.1517 76.0386L84.0338 76.2352L79.7996 76.6301C68.5032 77.6752 57.1991 78.6482 45.8872 79.5491C34.5797 80.4875 23.2585 81.319 11.9235 82.0437C11.8007 82.0549 11.6785 82.0176 11.5828 81.9399C11.4871 81.8622 11.4256 81.7501 11.4113 81.6277C11.3971 81.5052 11.4313 81.3821 11.5066 81.2845C11.582 81.1869 11.6924 81.1226 11.8145 81.1053C23.0096 79.1835 34.219 77.3806 45.4428 75.6966C56.6588 73.951 67.8854 72.2897 79.1223 70.7125L83.3366 70.1195L85.4429 69.8221C86.1484 69.7247 86.8174 69.6205 87.6418 69.5379C90.8237 69.1793 94.0434 69.3665 97.1623 70.0914C98.7379 70.4636 100.278 70.9744 101.763 71.6178C103.271 72.2665 104.713 73.0593 106.068 73.9852C108.832 75.8942 111.141 78.3883 112.832 81.2904C114.559 84.2094 115.585 87.4893 115.83 90.872C115.927 91.7179 115.855 92.5571 115.855 93.4013C115.849 94.2445 115.771 95.0857 115.622 95.9156C115.556 96.3319 115.508 96.7532 115.42 97.1629L115.1 98.3821C114.989 98.7868 114.887 99.1949 114.769 99.5947L114.325 100.763C113.134 103.877 111.292 106.619 109.182 108.988C108.126 110.161 106.989 111.26 105.781 112.276C105.189 112.793 104.557 113.258 103.917 113.723C103.587 113.951 103.275 114.182 102.926 114.4C102.578 114.618 102.279 114.821 101.823 115.087C101.091 115.493 100.232 115.606 99.4197 115.403C98.6076 115.2 97.9027 114.697 97.4476 113.994C96.9924 113.292 96.8208 112.443 96.9675 111.619C97.1142 110.795 97.5682 110.057 98.2378 109.555L98.4575 109.409Z" fill="#363C46"/>
<path d="M66.4343 3.24446C80.4764 3.24446 85.8851 12.5387 86.7226 14.1609C94.0807 26.1 86.4649 35.7065 82.8371 39.2913C82.2107 39.8906 81.3739 40.2197 80.5072 40.2077C79.6404 40.1957 78.813 39.8435 78.2035 39.227C77.594 38.6106 77.2512 37.7793 77.249 36.9125C77.2468 36.0456 77.5853 35.2126 78.1916 34.593C82.0012 30.8281 85.586 24.8115 81.0347 17.5294C80.963 17.4131 80.898 17.2929 80.8398 17.1692C80.6928 16.8702 76.7759 9.15698 64.769 9.90038C64.3333 9.93237 63.8955 9.87764 63.481 9.73929C63.0666 9.60095 62.6836 9.38175 62.3544 9.09442C62.0252 8.80709 61.7563 8.45735 61.5632 8.06538C61.3701 7.67341 61.2567 7.24703 61.2295 6.81093C61.2023 6.37483 61.2619 5.93765 61.4048 5.52473C61.5477 5.11181 61.771 4.73136 62.062 4.40534C62.3529 4.07934 62.7056 3.81426 63.0997 3.62548C63.4938 3.4367 63.9213 3.32797 64.3577 3.30556C65.0725 3.26371 65.7647 3.24336 66.4343 3.24446Z" fill="#363C46"/>
<path d="M91.603 69.8571C94.4263 67.7541 96.7638 65.2893 97.9285 62.4528C98.5233 61.038 98.8536 59.5262 98.9032 57.9923C98.9631 56.4008 98.7724 54.8098 98.3382 53.2775C97.4574 50.1468 95.6766 47.3435 93.217 45.2157C90.7081 43.0387 87.6467 41.5969 84.3705 41.0493L84.6827 41.0758C78.9552 40.7454 73.2177 40.4447 67.482 40.415C61.7445 40.3373 56.0038 40.4232 50.2713 40.7255C44.5388 41.0278 38.8195 41.5515 33.1317 42.3693C27.4261 43.148 21.7834 44.3328 16.2465 45.9145C16.129 45.9583 15.999 45.9537 15.885 45.9016C15.771 45.8496 15.6823 45.7544 15.6385 45.6369C15.5947 45.5195 15.5993 45.3895 15.6514 45.2755C15.7034 45.1615 15.7986 45.0728 15.9161 45.029C18.5948 43.854 21.3357 42.826 24.1265 41.9496C26.9102 41.0377 29.7434 40.2729 32.5766 39.546C38.2782 38.1838 44.0479 37.1244 49.8616 36.3725C55.6717 35.5745 61.5182 35.1483 67.3729 34.8245C73.2276 34.5007 79.0807 34.5073 84.9387 34.5255C84.9949 34.5255 85.0494 34.5255 85.104 34.5338L85.251 34.552C89.8299 35.1063 94.1603 36.9383 97.7468 39.8384C101.299 42.774 104.038 46.8082 105.295 51.3331C105.947 53.5988 106.226 55.9557 106.121 58.3112C106.004 60.7276 105.444 63.102 104.469 65.3157C103.481 67.4671 102.136 69.4356 100.491 71.1374C98.9298 72.7455 97.1778 74.1564 95.2737 75.3385C94.5523 75.8027 93.6784 75.9681 92.8372 75.7997C91.9959 75.6313 91.2532 75.1422 90.766 74.436C90.2789 73.7297 90.0856 72.8617 90.227 72.0155C90.3684 71.1693 90.8334 70.4112 91.5237 69.9017L91.603 69.8571Z" fill="#363C46"/>
<path d="M132.334 197.078C136.134 197.078 140.251 197.678 144.282 199.391C144.987 199.692 145.544 200.261 145.83 200.972C146.116 201.684 146.108 202.48 145.807 203.185C145.507 203.89 144.938 204.447 144.226 204.733C143.515 205.02 142.719 205.011 142.014 204.711C134.358 201.446 126.029 203.199 121.743 204.535C121.071 204.751 120.476 205.156 120.031 205.703C119.585 206.25 119.307 206.915 119.232 207.616C117.062 226.628 121.007 234.757 124.697 238.23C128.862 242.147 133.846 241.321 134.056 241.283C134.809 241.14 135.588 241.303 136.222 241.735C136.855 242.166 137.292 242.832 137.434 243.586C137.577 244.339 137.414 245.118 136.982 245.752C136.551 246.385 135.885 246.821 135.131 246.964C134.812 247.025 127.202 248.419 120.843 242.542C113.99 236.201 111.516 224.229 113.488 206.959C113.69 205.144 114.415 203.426 115.575 202.015C116.736 200.605 118.281 199.562 120.024 199.014C122.895 198.122 127.325 197.078 132.334 197.078Z" fill="#363C46"/>
<g opacity="0.2">
<path opacity="0.2" d="M84.608 26.4782C84.608 26.4782 65.6925 5.99328 16.5038 28.2112L28.0266 17.8035L73.4569 6.23943C73.4569 6.23943 92.455 8.7191 84.608 26.4782Z" fill="#102770"/>
</g>
<g opacity="0.2">
<path opacity="0.2" d="M82.1905 37.5468C82.1905 37.5468 104.02 40.9334 102.368 54.9755C102.368 54.9755 104.053 65.0016 91.2336 71.5534C91.2336 71.5534 116.41 77.2776 112.28 97.1018C112.28 97.1018 110.405 108.489 96.8885 112.3C96.8885 112.3 123.035 118.259 112.288 139.897L103.422 150.255C100.141 152.687 95.8229 155.038 90.8041 155.755L90.8041 175.05C90.8041 175.05 85.022 221.003 93.6951 225.546C93.6951 225.546 93.6951 182.593 105.259 168.551C105.259 168.551 109.487 162.53 110.772 154.659C115.526 152.12 135.197 139.957 124.257 117.339L118.888 109.492C118.888 109.492 137.886 95.4498 123.018 77.2776C123.018 77.2776 118.062 70.6696 112.28 69.0176C112.28 69.0176 124.257 57.8665 116.823 43.8244C114.288 40.9644 111.445 38.3931 108.345 36.1574C102.421 31.8622 103.424 22.6737 110.233 19.9974C119.693 16.2804 135.299 13.7776 160.602 17.3922C160.602 17.3922 113.932 -3.67092 73.458 6.24114C73.458 6.24114 95.8774 15.1785 82.1905 37.5468Z" fill="#102770"/>
</g>
<g opacity="0.2">
<path opacity="0.2" d="M184.143 140.88C184.143 140.88 183.317 18.6313 236.182 15.3273L229.574 8.71922L183.317 8.71922L174.396 21.1093L176.709 139.228L184.143 140.88Z" fill="#102770"/>
</g>
<g opacity="0.2">
<path opacity="0.2" d="M120.954 235.458C120.828 231.133 120.935 226.806 121.275 222.493C122.211 211.366 131.991 202.999 143.123 203.865L143.463 203.893C143.463 203.893 129.214 196.474 117.031 203.782C117.031 203.782 115.585 225.133 120.954 235.458Z" fill="#102770"/>
</g>
</svg>
