<svg width="666" height="462" viewBox="0 0 666 462" fill="none" xmlns="http://www.w3.org/2000/svg">
<path d="M184.369 239.863C184.369 239.863 162.224 181.855 162.219 168.643C162.214 155.431 163.738 152.222 177.321 142C190.905 131.777 170.676 118.207 183.643 104.704C196.61 91.2015 192.732 93.3376 194.085 83.3487C195.437 73.3597 195.665 66.6988 214.612 63.6092C214.612 63.6092 219.358 61.9356 229.672 49.4435C239.985 36.9514 251.713 45.4622 249.549 68.2055C247.385 90.9488 267.941 79.6201 254.167 110.45C254.167 110.45 247.233 117.087 257.584 128.134C267.936 139.182 241.381 159.603 241.704 164.004C242.026 168.405 256.863 185.827 234.665 200.818C212.467 215.808 184.369 239.863 184.369 239.863Z" fill="#B7C4CD"/>
<path d="M186.109 234.418C190.941 218.603 195.516 202.749 200.068 186.9L206.874 163.132C209.176 155.222 211.411 147.293 213.747 139.397C218.374 123.591 222.992 107.785 227.985 92.0983L229.812 86.2003L231.739 80.3357L233.638 74.4615C233.951 73.508 234.255 72.4971 234.587 71.5245L235.608 68.6112C236.946 64.7206 238.251 60.806 239.632 56.9249L241.792 51.1318C242.49 49.1865 243.216 47.2507 243.89 45.291C242.912 47.1124 241.991 48.9481 241.009 50.779L238.185 56.3098C237.71 57.2253 237.273 58.1693 236.851 59.1134L235.574 61.9408L233.016 67.6004L231.754 70.4374C231.345 71.391 230.966 72.3446 230.572 73.2982L228.241 79.0483L225.921 84.8272C225.185 86.763 224.468 88.7035 223.756 90.6441C217.966 106.154 212.954 121.927 208.317 137.799L206.608 143.759C206.039 145.748 205.46 147.731 204.928 149.729L201.715 161.701C199.655 169.707 197.638 177.722 195.782 185.775C194.833 189.799 193.936 193.833 193.063 197.871C192.189 201.91 191.335 205.953 190.514 210.006C188.9 218.116 187.339 226.231 186.109 234.418Z" fill="url(#paint0_linear)"/>
<path d="M248.199 119.452C244.771 119.682 241.369 120.202 238.028 121.006C234.659 121.789 231.355 122.833 228.146 124.129C226.537 124.792 224.952 125.517 223.4 126.323C221.842 127.144 220.327 128.046 218.863 129.026C217.39 130.03 215.985 131.13 214.658 132.321C213.325 133.54 212.094 134.865 210.975 136.283L214.231 137.237C214.121 136.188 213.993 135.22 213.851 134.219C213.708 133.217 213.538 132.24 213.352 131.258C213.001 129.288 212.574 127.338 212.085 125.398C211.596 123.457 211.041 121.536 210.429 119.628C209.817 117.721 209.105 115.843 208.312 113.998C206.772 110.271 204.766 106.758 202.341 103.541C199.897 100.361 196.807 97.5575 193.195 95.9507C193.58 96.2606 193.969 96.561 194.353 96.8614C194.738 97.1617 195.08 97.5146 195.445 97.815C195.813 98.1367 196.164 98.4789 196.494 98.8401L196.992 99.3598C197.158 99.5362 197.306 99.7317 197.467 99.9129C197.766 100.294 198.103 100.633 198.383 101.029L199.247 102.178C199.783 102.979 200.319 103.775 200.799 104.605C202.728 107.932 204.318 111.446 205.545 115.094C206.793 118.742 207.833 122.46 208.658 126.227C209.076 128.111 209.446 130.008 209.788 131.911C209.954 132.864 210.101 133.818 210.263 134.772C210.424 135.725 210.538 136.679 210.638 137.599L211.112 142.081L213.875 138.538C214.862 137.271 215.935 136.075 217.088 134.958C218.274 133.845 219.521 132.799 220.823 131.825C223.501 129.874 226.336 128.152 229.3 126.676C232.306 125.172 235.389 123.828 238.536 122.651C241.684 121.444 244.905 120.377 248.199 119.452Z" fill="url(#paint1_linear)"/>
<path d="M249.355 82.2187C248.257 82.1774 247.157 82.2029 246.061 82.295C244.96 82.3713 243.869 82.5191 242.777 82.686C240.587 83.048 238.429 83.582 236.322 84.2832C234.186 84.9881 232.12 85.8932 230.152 86.9867L228.69 87.8449C228.216 88.1501 227.741 88.4838 227.266 88.7985L226.564 89.2753C226.341 89.447 226.122 89.6329 225.904 89.8141L224.585 90.9107L226.958 92.0026C226.958 91.6116 226.958 91.3303 226.925 91.0156C226.891 90.7009 226.863 90.4053 226.83 90.1002C226.796 89.795 226.749 89.5042 226.706 89.2038C226.664 88.9034 226.611 88.6078 226.55 88.3169L226.374 87.4396L226.156 86.5766C226.018 85.9949 225.838 85.4323 225.681 84.8649C224.952 82.6276 224.018 80.4632 222.89 78.3995C222.311 77.384 221.727 76.3779 221.063 75.4196C220.731 74.9428 220.432 74.466 220.071 73.9892L219.013 72.616C218.661 72.1392 218.277 71.7196 217.897 71.2905C217.518 70.8614 217.133 70.4275 216.739 70.0031C215.937 69.1783 215.102 68.3868 214.262 67.6191C214.561 68.0959 214.874 68.5727 215.178 69.0734C215.481 69.574 215.814 70.027 216.103 70.5038C216.393 70.9806 216.687 71.4574 216.977 71.9628C217.266 72.4682 217.575 72.9164 217.836 73.4218C218.381 74.4087 218.941 75.3766 219.426 76.3875C219.663 76.8929 219.952 77.3744 220.166 77.8894C220.38 78.4043 220.641 78.905 220.854 79.4104C221.733 81.4357 222.472 83.5195 223.066 85.6469C223.204 86.1761 223.365 86.7006 223.469 87.2346L223.645 88.0309L223.787 88.8319C223.844 89.0989 223.887 89.3659 223.92 89.6281C223.953 89.8904 224.001 90.1622 224.025 90.4292C224.048 90.6962 224.082 90.9584 224.096 91.2159C224.11 91.4733 224.129 91.7547 224.129 91.9358V95.0207L226.502 93.0277L227.689 92.0217C227.888 91.8548 228.078 91.6831 228.282 91.5449L228.913 91.0681C229.336 90.7629 229.744 90.4387 230.176 90.1479L231.495 89.2991C233.289 88.1863 235.157 87.1986 237.086 86.343C241.043 84.5982 245.15 83.2178 249.355 82.2187Z" fill="url(#paint2_linear)"/>
<path d="M241.686 164.018C239.845 163.923 237.999 163.951 236.157 164.018C234.316 164.085 232.474 164.237 230.637 164.433C226.948 164.829 223.289 165.466 219.683 166.34C217.875 166.793 216.076 167.294 214.296 167.88C212.516 168.467 210.755 169.129 209.023 169.887C205.503 171.383 202.189 173.325 199.16 175.666L202.421 176.977C202.283 176.024 202.131 175.147 201.946 174.241C201.761 173.335 201.571 172.467 201.363 171.58C200.959 169.816 200.466 168.071 199.939 166.335C198.869 162.862 197.516 159.483 195.895 156.232C194.285 152.957 192.284 149.891 189.938 147.101C188.76 145.714 187.459 144.437 186.051 143.287C185.344 142.719 184.627 142.181 183.868 141.685C183.113 141.202 182.33 140.766 181.523 140.378C182.858 141.525 184.094 142.782 185.221 144.136C186.328 145.471 187.346 146.879 188.268 148.35C190.079 151.29 191.628 154.386 192.895 157.6C194.169 160.819 195.264 164.106 196.175 167.446C196.65 169.115 197.044 170.784 197.428 172.491C197.618 173.335 197.798 174.183 197.96 175.032C198.121 175.881 198.292 176.744 198.434 177.535L198.961 181.002L201.7 178.847C203.069 177.776 204.495 176.779 205.971 175.862C207.476 174.956 209.028 174.117 210.613 173.33C212.198 172.543 213.845 171.838 215.502 171.17C217.158 170.503 218.848 169.892 220.556 169.32C223.969 168.181 227.453 167.179 230.998 166.311C232.764 165.873 234.539 165.472 236.323 165.077C238.108 164.681 239.873 164.333 241.686 164.018Z" fill="url(#paint3_linear)"/>
<path d="M177.741 240.783C177.741 240.783 109.795 200.884 99.3246 187.772C88.8544 174.661 87.8055 170.25 93.2114 149.238C98.6174 128.225 67.7528 130.933 69.955 107.155C72.1573 83.3774 69.955 88.5984 63.3815 77.6177C56.808 66.637 51.7628 59.8283 68.1277 41.6099C68.1277 41.6099 71.4928 36.1648 71.8535 15.5004C72.2142 -5.16407 90.5868 -6.07476 106.453 18.2324C122.32 42.5396 133.758 14.8662 144.508 56.486C144.508 56.486 142.876 68.6205 161.913 71.3096C180.95 73.9988 170.755 115.509 174.561 119.628C178.368 123.748 206.902 129.164 196.736 161.801C186.569 194.438 177.741 240.783 177.741 240.783Z" fill="#D1DCE4"/>
<path d="M175.134 233.979C167.397 214.407 159.381 195.015 151.346 175.638L139.271 146.596C135.289 136.898 131.203 127.243 127.292 117.536C119.361 98.1442 111.425 78.7623 103.936 59.2088L101.088 51.89L98.3637 44.533L95.5966 37.1903C95.122 35.9649 94.6474 34.7443 94.2108 33.5142L92.9103 29.8094C91.1637 24.8746 89.3601 19.9445 87.6515 14.9858L85.2025 7.50957C84.3576 5.00638 83.5318 2.50796 82.668 0C83.1426 2.58902 83.6552 5.16373 84.1488 7.75274L85.7293 15.5007C85.9713 16.8024 86.2941 18.0754 86.6263 19.3485L87.5756 23.1629L89.5215 30.825L90.5182 34.6394C90.8647 35.9125 91.2491 37.1712 91.6146 38.4538L93.8785 46.0587L96.1614 53.6255C96.962 56.1335 97.7831 58.6351 98.6247 61.1303C105.16 81.1559 112.678 100.829 120.652 120.291L123.675 127.577C124.686 130.004 125.683 132.44 126.741 134.848L133.03 149.309C137.302 158.903 141.673 168.472 146.215 177.951C148.455 182.719 150.762 187.425 153.092 192.135C155.423 196.846 157.781 201.543 160.178 206.22C165.019 215.551 169.884 224.868 175.134 233.979Z" fill="url(#paint4_linear)"/>
<path d="M145.707 70.189C142.489 73.1581 139.524 76.3943 136.846 79.8632C134.116 83.3328 131.661 87.0123 129.504 90.8677C128.431 92.8067 127.439 94.7981 126.528 96.842C125.628 98.9031 124.835 101.01 124.155 103.155C123.487 105.327 122.964 107.541 122.589 109.782C122.23 112.059 122.057 114.362 122.071 116.667L126.044 114.994C125.095 114.04 124.212 113.177 123.282 112.3C122.351 111.422 121.383 110.588 120.434 109.758C118.535 108.09 116.567 106.488 114.53 104.952C112.517 103.408 110.429 101.958 108.317 100.551C106.205 99.1449 103.998 97.8528 101.753 96.656C97.2785 94.1941 92.5096 92.3162 87.5617 91.068C82.6161 89.8617 77.3289 89.547 72.4688 90.8391C73.0952 90.8391 73.7217 90.8391 74.3388 90.8391C74.9558 90.8391 75.5775 90.9059 76.1945 90.9297C76.8079 90.9607 77.4194 91.0228 78.0266 91.1156L78.9378 91.2348C79.2416 91.2778 79.5406 91.354 79.8396 91.4113C80.4424 91.5495 81.0451 91.6163 81.6337 91.7832L83.404 92.26C84.5716 92.6271 85.7297 92.9847 86.8687 93.4281C91.4123 95.1854 95.769 97.3961 99.8733 100.027C104.003 102.656 107.979 105.522 111.782 108.609C113.68 110.145 115.579 111.732 117.406 113.349C118.327 114.159 119.228 114.989 120.125 115.819C121.022 116.648 121.929 117.502 122.745 118.327L126.78 122.379L126.718 116.658C126.695 114.611 126.814 112.566 127.074 110.536C127.371 108.48 127.78 106.443 128.298 104.433C129.413 100.357 130.862 96.381 132.632 92.546C134.429 88.6521 136.426 84.8548 138.617 81.1696C140.813 77.3997 143.176 73.7395 145.707 70.189Z" fill="url(#paint5_linear)"/>
<path d="M117.366 32.293C116.243 33.1316 115.171 34.0375 114.157 35.0059C113.127 35.9595 112.154 36.9799 111.205 38.0193C109.317 40.1281 107.598 42.3841 106.065 44.766C104.507 47.1777 103.18 49.732 102.102 52.3948L101.328 54.4116C101.091 55.0982 100.906 55.7991 100.692 56.4905L100.384 57.5347C100.298 57.8875 100.232 58.2451 100.156 58.6027L99.7146 60.7435L102.937 59.9234C102.633 59.5372 102.401 59.2702 102.121 58.9698C101.841 58.6694 101.58 58.412 101.309 58.1354C101.039 57.8589 100.749 57.6062 100.474 57.3439C100.199 57.0817 99.9092 56.829 99.6196 56.5858L98.7463 55.8563L97.8446 55.1745C97.2465 54.6977 96.62 54.2924 96.003 53.8681C93.5085 52.2272 90.8659 50.8255 88.1101 49.6818C86.7337 49.1335 85.3525 48.5995 83.9382 48.1799C83.2262 47.9749 82.538 47.7031 81.8166 47.5553L79.6761 47.0356C78.9641 46.8592 78.2522 46.7352 77.5213 46.6112C76.7904 46.4873 76.0974 46.3681 75.3523 46.2632C73.9284 46.082 72.4476 45.9628 71 45.8674C71.6835 46.1201 72.3764 46.3442 73.0599 46.5826C73.7433 46.821 74.441 47.0117 75.115 47.2644C75.7889 47.5171 76.4676 47.7412 77.1416 48.013C77.8156 48.2848 78.4895 48.4898 79.1492 48.7807C80.4687 49.3242 81.7976 49.8344 83.0744 50.4542C83.7151 50.7641 84.3796 51.0073 85.0013 51.3506C85.6231 51.6939 86.2591 51.9943 86.8998 52.3042C89.3705 53.6126 91.7491 55.0894 94.0191 56.7241C94.5744 57.1389 95.144 57.5347 95.6755 57.9829L96.4824 58.6361L97.2608 59.3131C97.5218 59.5325 97.7781 59.7661 98.0202 59.9997C98.2622 60.2333 98.528 60.4765 98.7558 60.7101C98.9837 60.9438 99.2305 61.1869 99.4488 61.4349C99.6671 61.6828 99.9234 61.945 100.056 62.1215L102.524 65.1682L103.279 61.3014L103.663 59.356C103.73 59.0318 103.782 58.7076 103.858 58.4024L104.114 57.4488C104.29 56.8099 104.442 56.1615 104.636 55.5417L105.272 53.6345C106.175 51.0942 107.248 48.6186 108.486 46.225C111.023 41.3225 113.995 36.6596 117.366 32.293Z" fill="url(#paint6_linear)"/>
<path d="M174.548 119.633C172.649 121.006 170.836 122.494 169.066 124.058C167.296 125.622 165.582 127.219 163.911 128.883C160.564 132.228 157.435 135.787 154.547 139.54C153.123 141.447 151.728 143.354 150.418 145.376C149.108 147.397 147.893 149.448 146.773 151.574C144.464 155.875 142.71 160.455 141.552 165.201L145.824 163.89C144.922 163.046 144.082 162.307 143.19 161.553C142.297 160.8 141.41 160.09 140.503 159.379C138.7 157.949 136.83 156.609 134.926 155.317C131.12 152.724 127.107 150.452 122.928 148.523C118.733 146.564 114.316 145.123 109.776 144.231C107.507 143.798 105.204 143.57 102.894 143.55C101.746 143.55 100.597 143.597 99.4627 143.712C98.3306 143.834 97.2069 144.025 96.0977 144.284C98.33 144.357 100.552 144.615 102.742 145.056C104.899 145.497 107.024 146.083 109.102 146.811C113.232 148.275 117.224 150.107 121.029 152.284C124.845 154.458 128.535 156.846 132.083 159.436C133.868 160.724 135.605 162.073 137.328 163.442C138.189 164.128 139.035 164.827 139.867 165.539C140.688 166.24 141.552 166.97 142.297 167.666L145.567 170.694L146.583 166.369C147.1 164.206 147.734 162.074 148.482 159.98C149.255 157.882 150.133 155.803 151.087 153.753C152.041 151.703 153.114 149.695 154.229 147.707C155.345 145.719 156.541 143.759 157.779 141.828C160.266 137.966 162.924 134.192 165.753 130.504C167.177 128.654 168.601 126.838 170.063 125.016C171.524 123.195 173.01 121.407 174.548 119.633Z" fill="url(#paint7_linear)"/>
<path d="M171.785 242.767C171.785 242.767 110.122 247.511 97.5209 243.72C84.9197 239.93 82.2903 237.584 76.4145 221.587C70.5387 205.591 51.8149 221.196 42.6452 204.847C33.4756 188.497 34.3963 192.846 25.2504 188.712C16.1044 184.578 9.82521 182.437 12.2932 163.308C12.2932 163.308 12.0417 158.278 3.0761 144.765C-5.88948 131.253 5.57735 122.404 26.6553 130.986C47.7332 139.568 42.7924 116.544 68.2747 138.615C68.2747 138.615 72.6223 147.197 86.1205 140.374C99.6187 133.551 111.508 164.972 115.808 165.926C120.108 166.879 140.963 157.567 148.908 183.219C156.853 208.871 171.785 242.767 171.785 242.767Z" fill="#B7C4CD"/>
<path d="M167.09 239.539C153.383 230.37 139.562 221.42 125.75 212.523L105.019 199.173C98.1323 194.696 91.2076 190.28 84.3398 185.775C70.5758 176.806 56.8118 167.847 43.2851 158.573L38.1782 155.131L33.1377 151.622L28.0783 148.093C27.2335 147.512 26.3792 146.935 25.5438 146.343L23.0568 144.532C19.7345 142.148 16.3694 139.764 13.0565 137.318L8.14897 133.58C6.49254 132.354 4.8551 131.105 3.17969 129.889C4.63203 131.353 6.11759 132.783 7.59366 134.233L12.0598 138.524C12.7955 139.253 13.5739 139.931 14.3523 140.608L16.6826 142.644L21.3577 146.734L23.6975 148.761C24.4902 149.424 25.297 150.067 26.0706 150.72L30.8975 154.606L35.7387 158.473C37.3777 159.745 39.0215 160.992 40.67 162.216C53.8122 172.229 67.4291 181.555 81.2453 190.552L86.4661 193.89C88.1985 195.006 89.9261 196.126 91.687 197.227L102.19 203.75C109.238 208.017 116.306 212.251 123.458 216.338C127.027 218.402 130.62 220.414 134.222 222.412C137.825 224.41 141.437 226.384 145.068 228.334C152.353 232.201 159.634 236.015 167.09 239.539Z" fill="url(#paint8_linear)"/>
<path d="M75.1556 146.916C74.4005 150.281 73.9243 153.703 73.7318 157.148C73.5136 160.616 73.5659 164.096 73.8884 167.556C74.0592 169.296 74.2965 171.032 74.624 172.758C74.9604 174.493 75.3882 176.209 75.9055 177.898C76.4367 179.602 77.082 181.268 77.8372 182.885C78.6185 184.518 79.5312 186.084 80.5663 187.567L82.3888 184.707C81.3589 184.506 80.3954 184.354 79.4035 184.206C78.4115 184.058 77.4243 183.944 76.4371 183.839C74.4563 183.619 72.4724 183.469 70.4853 183.386C68.4919 183.291 66.4985 183.291 64.5051 183.333C62.5117 183.376 60.5183 183.529 58.5296 183.763C54.5352 184.18 50.61 185.108 46.8492 186.523C43.1187 187.954 39.559 190.137 36.9961 193.16L38.1921 192.302C38.5861 192.016 39.0275 191.792 39.4356 191.53C39.8444 191.272 40.2675 191.038 40.7029 190.829L41.3436 190.495C41.5572 190.385 41.785 190.299 42.0033 190.199C42.478 190.023 42.8719 189.794 43.3275 189.637L44.6755 189.131C45.5915 188.845 46.5028 188.559 47.433 188.335C51.1518 187.428 54.9521 186.899 58.7764 186.757C62.6132 186.596 66.4561 186.656 70.286 186.938C72.1845 187.072 74.1162 187.257 76.0289 187.477C76.9782 187.586 77.9274 187.72 78.8766 187.849C79.8259 187.977 80.7751 188.13 81.6817 188.292L86.0956 189.103L83.5327 185.422C82.6095 184.111 81.777 182.737 81.0409 181.312C80.3175 179.849 79.6743 178.348 79.1139 176.816C78.0192 173.68 77.1873 170.459 76.6269 167.184C76.0511 163.861 75.6503 160.509 75.4261 157.143C75.1888 153.758 75.0987 150.348 75.1556 146.916Z" fill="url(#paint9_linear)"/>
<path d="M39.9733 135.162C39.6196 136.208 39.3296 137.275 39.1048 138.357C38.8627 139.434 38.6919 140.531 38.54 141.627C38.2587 143.841 38.1508 146.073 38.2172 148.303C38.2857 150.549 38.5622 152.783 39.0431 154.978L39.4418 156.632C39.5936 157.181 39.7835 157.715 39.9544 158.258L40.2201 159.074C40.3198 159.341 40.4385 159.603 40.5476 159.865L41.2168 161.443L42.935 159.469C42.5648 159.355 42.2942 159.288 41.9857 159.221C41.6772 159.155 41.3877 159.102 41.0887 159.05C40.7897 158.997 40.4954 158.959 40.1964 158.911C39.8974 158.864 39.6031 158.83 39.3089 158.807L38.4166 158.73L37.529 158.692C36.9405 158.654 36.352 158.692 35.7587 158.692C33.417 158.755 31.0861 159.036 28.796 159.531C27.6617 159.798 26.5321 160.07 25.431 160.437C24.8804 160.623 24.3204 160.766 23.784 160.986L22.1703 161.634C21.6293 161.834 21.1072 162.082 20.5851 162.325C20.063 162.568 19.5457 162.802 19.0283 163.074C18.0126 163.608 17.0207 164.185 16.043 164.776C16.5983 164.628 17.1441 164.466 17.6899 164.299C18.2357 164.132 18.772 163.961 19.3226 163.822C19.8732 163.684 20.419 163.536 20.9648 163.398C21.5106 163.26 22.0469 163.098 22.6022 162.993C23.6986 162.745 24.7855 162.483 25.8866 162.306C26.4372 162.22 26.9782 162.082 27.5288 162.025L29.1757 161.791C31.3597 161.526 33.5591 161.41 35.7587 161.443C36.2998 161.443 36.8503 161.443 37.3867 161.515L38.1983 161.572L39.0051 161.663C39.2709 161.686 39.5414 161.72 39.8025 161.763C40.0635 161.806 40.334 161.834 40.5903 161.891C40.8466 161.949 41.1172 161.987 41.364 162.049C41.6108 162.111 41.8908 162.168 42.0617 162.22L45.0138 163.079L43.7798 160.204L43.1628 158.773C43.0584 158.535 42.9492 158.296 42.8543 158.058L42.5932 157.343C42.4224 156.866 42.2325 156.361 42.0759 155.865L41.6393 154.348C41.0925 152.303 40.685 150.223 40.4195 148.121C39.882 143.824 39.7327 139.487 39.9733 135.162Z" fill="url(#paint10_linear)"/>
<path d="M115.808 165.925C115.187 167.67 114.688 169.454 114.233 171.246C113.777 173.039 113.388 174.856 113.051 176.682C112.376 180.348 111.938 184.054 111.741 187.777C111.66 189.641 111.627 191.52 111.674 193.398C111.722 195.277 111.855 197.165 112.078 199.049C112.502 202.864 113.407 206.61 114.774 210.196L116.957 207.431C116.008 207.288 115.125 207.187 114.214 207.102C113.302 207.016 112.41 206.954 111.508 206.901C109.709 206.787 107.901 206.763 106.098 206.782C102.478 206.817 98.8685 207.154 95.3047 207.788C91.7214 208.401 88.2261 209.452 84.8963 210.916C83.2386 211.654 81.6501 212.539 80.1501 213.562C79.4065 214.076 78.6889 214.626 78 215.212C77.3306 215.8 76.6967 216.427 76.1016 217.091C77.5802 216.136 79.1343 215.306 80.7481 214.606C82.3364 213.92 83.9698 213.343 85.6367 212.88C88.9588 211.974 92.3547 211.366 95.7841 211.064C99.2193 210.758 102.669 210.645 106.117 210.725C107.839 210.754 109.562 210.845 111.285 210.954C112.144 211.011 113.003 211.083 113.858 211.169C114.712 211.255 115.59 211.34 116.378 211.45L119.833 211.927L118.561 208.675C117.929 207.048 117.386 205.388 116.933 203.702C116.501 202 116.145 200.264 115.846 198.51C115.547 196.755 115.372 194.977 115.187 193.189C115.001 191.401 114.921 189.598 114.864 187.796C114.75 184.182 114.793 180.544 114.973 176.896C115.058 175.07 115.182 173.244 115.315 171.413C115.448 169.582 115.599 167.751 115.808 165.925Z" fill="url(#paint11_linear)"/>
<g filter="url(#filter0_dd)">
<path d="M547.043 437.176V171.285C547.043 168.272 546.452 165.288 545.305 162.505C544.157 159.721 542.475 157.192 540.354 155.061C538.233 152.931 535.715 151.241 532.944 150.088C530.174 148.935 527.204 148.341 524.204 148.341H143.084C137.028 148.343 131.22 150.76 126.938 155.063C122.656 159.366 120.25 165.201 120.25 171.285V437.176H547.043Z" fill="#7F848C"/>
</g>
<path d="M581.081 452.82H86.2132C75.9471 452.82 74.3477 439.169 74.3477 439.169H592.923C592.923 439.169 591.347 452.82 581.081 452.82Z" fill="#363C46"/>
<path d="M592.928 433.838H74.3672V441.496H592.928V433.838Z" fill="#363C46"/>
<path d="M383.679 433.838H283.605V438.177H383.679V433.838Z" fill="#D9E1E8"/>
<g filter="url(#filter1_ii)">
<path d="M530.355 170.012H136.941V419.768H530.355V170.012Z" fill="#E8EDF1"/>
</g>
<path d="M237.04 352.259C269.751 352.259 296.268 325.62 296.268 292.759C296.268 259.898 269.751 233.259 237.04 233.259C204.33 233.259 177.812 259.898 177.812 292.759C177.812 325.62 204.33 352.259 237.04 352.259Z" fill="#D9E1E8"/>
<path d="M237.044 337.73C261.767 337.73 281.81 317.596 281.81 292.759C281.81 267.922 261.767 247.787 237.044 247.787C212.32 247.787 192.277 267.922 192.277 292.759C192.277 317.596 212.32 337.73 237.044 337.73Z" fill="#E8EDF1"/>
<path d="M230.153 310.748C228.772 309.361 228.084 307.287 227.396 304.521L215.691 305.904C216.38 311.44 218.444 316.279 221.885 319.049C225.331 322.506 229.479 323.894 234.282 324.585V330.116H240.481V323.894C245.991 323.198 250.813 321.124 253.566 316.975C257.012 313.514 258.388 308.67 258.388 303.83C258.388 298.991 257.012 294.833 254.254 292.067C251.497 289.302 246.66 286.532 239.793 284.439V268.542C242.55 269.93 244.615 272.004 245.303 275.461L256.319 274.078C255.62 270.122 253.692 266.491 250.813 263.703C248.056 260.933 244.615 259.55 239.793 258.858V254.014H233.594V258.167C228.777 258.858 224.643 260.241 221.202 263.703C218.444 267.159 216.38 271.331 216.38 276.157C216.38 280.982 217.756 285.149 220.509 288.606C223.262 292.063 227.396 294.142 232.906 296.235V314.916C231.672 313.766 230.728 312.338 230.153 310.748ZM240.481 298.294C243.238 298.986 245.303 300.369 245.991 301.751C246.679 303.134 248.056 305.213 248.056 306.596C248.11 308.64 247.369 310.625 245.991 312.131C244.615 313.514 242.55 314.897 240.481 314.897V298.294ZM230.153 280.305C229.465 278.922 228.772 277.539 228.772 276.157C228.772 274.774 229.465 272.695 230.153 271.312C230.841 269.93 232.218 269.238 234.282 268.542V283.766C232.505 283.206 231.02 281.961 230.153 280.305Z" fill="#B7C4CD"/>
<path d="M430.247 352.259C462.958 352.259 489.475 325.62 489.475 292.759C489.475 259.898 462.958 233.259 430.247 233.259C397.537 233.259 371.02 259.898 371.02 292.759C371.02 325.62 397.537 352.259 430.247 352.259Z" fill="#D9E1E8"/>
<path d="M430.247 337.73C454.97 337.73 475.013 317.596 475.013 292.759C475.013 267.922 454.97 247.787 430.247 247.787C405.523 247.787 385.48 267.922 385.48 292.759C385.48 317.596 405.523 337.73 430.247 337.73Z" fill="#E8EDF1"/>
<path d="M366.974 247.787L344.306 225.015V239.51H301.125V256.069H344.306V270.564L366.974 247.787Z" fill="#7F848C"/>
<path d="M302.109 332.166L324.099 310.076V324.137H365.984V340.2H324.099V354.256L302.109 332.166Z" fill="#7F848C"/>
<path d="M483.375 263.216C483.213 263.351 483.075 263.512 482.967 263.693C482.846 263.925 482.738 264.164 482.644 264.408L482.606 264.475C482.483 264.725 482.314 264.95 482.108 265.138C481.557 265.614 480.769 267.331 479.734 267.946C479.501 268.091 479.231 268.167 478.956 268.165C478.806 268.155 478.659 268.121 478.519 268.065H478.496C477.157 267.517 480.081 260.279 481.315 257.385L481.723 256.431C481.736 256.387 481.752 256.344 481.771 256.302L481.827 256.183C482.843 253.656 484.447 253.322 484.201 255.187C483.954 257.051 481.481 261.905 482.15 262.677C482.819 263.45 483.432 258.3 485.107 258.977C486.783 259.654 484.144 262.544 483.375 263.216Z" fill="url(#paint12_linear)"/>
<path d="M483.379 263.216C483.216 263.5 483.068 263.793 482.938 264.094C482.937 264.032 482.938 263.974 482.938 263.922C482.938 263.784 482.938 263.703 482.938 263.703C483.055 263.516 483.205 263.352 483.379 263.216Z" fill="url(#paint13_linear)"/>
<path d="M482.968 263.703C482.968 263.703 482.968 263.784 482.968 263.922L482.664 264.399C482.753 264.161 482.854 263.929 482.968 263.703Z" fill="url(#paint14_linear)"/>
<path d="M482.356 273.682C481.446 273.817 480.551 274.039 479.684 274.345C480.549 274.033 481.445 273.811 482.356 273.682Z" fill="url(#paint15_linear)"/>
<path d="M183.032 423.106C176.833 382.468 141.65 345.636 141.65 345.636H101.886C101.886 345.636 66.6975 382.468 60.4989 423.106C59.7731 427.839 60.0743 432.674 61.382 437.279C62.6896 441.884 64.9728 446.15 68.075 449.786C71.1773 453.422 75.0253 456.341 79.3554 458.344C83.6856 460.346 88.3954 461.385 93.1623 461.388H150.373C155.14 461.385 159.85 460.347 164.18 458.344C168.509 456.341 172.357 453.422 175.459 449.786C178.561 446.15 180.844 441.883 182.151 437.278C183.458 432.673 183.758 427.839 183.032 423.106Z" fill="#D1DCE4"/>
<path d="M143.81 342.889C143.803 343.618 143.509 344.314 142.994 344.826C142.479 345.339 141.783 345.626 141.058 345.626H102.196C101.469 345.626 100.773 345.336 100.259 344.82C99.7456 344.305 99.457 343.605 99.457 342.875C99.457 342.145 99.7456 341.446 100.259 340.93C100.773 340.414 101.469 340.124 102.196 340.124H141.077C141.803 340.132 142.496 340.426 143.008 340.943C143.52 341.461 143.808 342.16 143.81 342.889Z" fill="url(#paint16_linear)"/>
<path d="M105.32 340.124H102.197C100.361 334.626 87.1187 323.96 84.3659 321.195C81.6131 318.43 92.686 313.204 95.3439 311.302C97.0288 310.1 95.8944 307.458 94.8265 305.613C97.2708 309.394 103.469 320.733 105.32 340.124Z" fill="#B7C4CD"/>
<path d="M141.077 340.124H139.117C139.915 328.723 146.308 311.821 147.594 308.564C147.356 309.947 147.439 311.367 147.836 312.713C149.151 316.956 156.431 315.235 158.33 321.381C160.228 327.527 143.892 330.078 141.077 340.124Z" fill="#B7C4CD"/>
<path d="M148.972 304.111C148.298 305.492 147.839 306.968 147.61 308.488C147.582 308.522 147.582 308.522 147.582 308.55C146.295 311.807 139.902 328.709 139.105 340.109H105.321C103.485 320.718 97.2528 309.38 94.8275 305.599L94.5522 305.122C94.125 304.474 93.8782 304.14 93.8782 304.14C93.8375 304.083 93.8098 304.018 93.797 303.949C93.7843 303.88 93.7869 303.809 93.8045 303.741C93.8222 303.673 93.8546 303.61 93.8993 303.556C93.944 303.502 94 303.459 94.0633 303.429C98.1593 301.68 129.285 283.118 148.759 303.429C148.859 303.507 148.934 303.615 148.972 303.737C149.01 303.859 149.01 303.989 148.972 304.111Z" fill="#D1DCE4"/>
<path d="M117.335 439.913V431.936C111.735 431.683 106.3 430.172 103.125 428.327L105.631 418.505C109.883 420.862 114.648 422.13 119.504 422.195C124.25 422.195 127.53 420.35 127.53 416.993C127.53 413.799 124.853 411.787 118.669 409.689C109.727 406.666 103.628 402.465 103.628 394.321C103.628 386.931 108.806 381.143 117.753 379.379V371.426H125.94V378.811C131.541 379.064 135.3 380.242 138.062 381.581L135.637 391.07C133.463 390.149 129.618 388.209 123.6 388.209C118.17 388.209 116.414 390.559 116.414 392.91C116.414 395.68 119.338 397.444 126.443 400.129C136.386 403.657 140.402 408.273 140.402 415.83C140.402 423.301 135.133 429.686 125.522 431.364V439.946L117.335 439.913Z" fill="#7F848C"/>
<path d="M172.89 403.991C172.811 404.489 172.574 404.948 172.215 405.301C171.856 405.654 171.394 405.882 170.897 405.951C156.117 408.011 153.469 395.428 150.398 380.852C149.544 376.804 148.661 372.618 147.475 368.188C142.254 348.706 122.6 344.825 122.405 344.801C122.102 344.745 121.813 344.63 121.555 344.462C121.296 344.293 121.073 344.076 120.898 343.821C120.724 343.566 120.601 343.279 120.536 342.977C120.472 342.674 120.467 342.362 120.523 342.057C120.579 341.753 120.694 341.463 120.861 341.203C121.029 340.943 121.245 340.719 121.499 340.544C121.753 340.368 122.038 340.245 122.34 340.18C122.641 340.115 122.952 340.111 123.255 340.167C124.204 340.339 146.036 344.639 152.007 366.963C153.227 371.516 154.162 375.96 154.988 379.875C158.31 395.728 160.209 402.68 170.252 401.283C170.556 401.24 170.867 401.258 171.165 401.335C171.463 401.413 171.742 401.549 171.988 401.735C172.234 401.922 172.44 402.155 172.596 402.422C172.751 402.689 172.853 402.984 172.895 403.29C172.927 403.523 172.925 403.759 172.89 403.991Z" fill="url(#paint17_linear)"/>
<path d="M147.675 406.18C147.615 406.553 147.467 406.906 147.243 407.21C147.018 407.513 146.725 407.758 146.387 407.924C146.048 408.09 145.675 408.172 145.299 408.163C144.923 408.154 144.554 408.054 144.225 407.872C135.885 403.271 136.27 396.086 139.635 375.054C142.749 355.582 122.52 345.431 121.656 345.016C121.097 344.743 120.668 344.257 120.465 343.667C120.261 343.076 120.3 342.429 120.572 341.867C120.844 341.304 121.327 340.874 121.915 340.67C122.503 340.465 123.147 340.504 123.707 340.777C123.949 340.891 147.936 352.854 144.267 375.812C140.727 397.95 141.586 401.044 146.484 403.748C146.905 403.984 147.244 404.343 147.457 404.777C147.67 405.211 147.746 405.701 147.675 406.18Z" fill="url(#paint18_linear)"/>
<g filter="url(#filter2_ii)">
<path d="M388.4 96.3129C388.145 98.0214 387.392 99.6157 386.236 100.894C385.079 102.173 383.571 103.078 381.903 103.496C380.234 103.914 378.48 103.825 376.861 103.241C375.243 102.657 373.833 101.604 372.81 100.215C371.788 98.8263 371.198 97.164 371.115 95.4385C371.033 93.7129 371.462 92.0015 372.348 90.5208C373.233 89.0401 374.536 87.8564 376.092 87.1196C377.647 86.3827 379.385 86.1258 381.086 86.3811C382.216 86.5501 383.301 86.9412 384.28 87.5319C385.259 88.1227 386.113 88.9015 386.792 89.8239C387.471 90.7463 387.963 91.7942 388.239 92.9076C388.515 94.0211 388.569 95.1782 388.4 96.3129Z" fill="#E8EDF1"/>
</g>
<path d="M378.371 99.4695C378.274 99.4104 378.189 99.3345 378.119 99.2454L375.224 95.431C375.09 95.2347 375.037 94.9944 375.074 94.7595C375.111 94.5247 375.237 94.3131 375.425 94.1683C375.613 94.0236 375.849 93.9567 376.084 93.9814C376.319 94.006 376.537 94.1204 376.691 94.301L378.945 97.2667L383.634 92.5606C383.719 92.4682 383.821 92.3938 383.935 92.3422C384.049 92.2905 384.172 92.2625 384.297 92.26C384.422 92.2574 384.546 92.2803 384.662 92.3273C384.778 92.3743 384.883 92.4443 384.972 92.5333C385.06 92.6222 385.129 92.7282 385.176 92.8448C385.222 92.9615 385.244 93.0863 385.241 93.2118C385.238 93.3374 385.21 93.461 385.158 93.5752C385.106 93.6895 385.032 93.792 384.94 93.8766L379.505 99.336C379.413 99.4304 379.302 99.5037 379.179 99.5506C379.056 99.5975 378.924 99.617 378.793 99.6077C378.643 99.599 378.497 99.5514 378.371 99.4695Z" fill="#7F848C"/>
<g filter="url(#filter3_ii)">
<path d="M577.097 242.957C576.915 244.176 576.376 245.314 575.55 246.227C574.724 247.139 573.647 247.785 572.456 248.082C571.265 248.38 570.012 248.316 568.857 247.898C567.702 247.481 566.696 246.729 565.966 245.737C565.236 244.746 564.815 243.559 564.757 242.327C564.699 241.095 565.005 239.873 565.638 238.816C566.27 237.759 567.201 236.915 568.311 236.389C569.421 235.863 570.662 235.68 571.876 235.862C573.505 236.108 574.97 236.993 575.949 238.324C576.928 239.654 577.341 241.321 577.097 242.957Z" fill="#E8EDF1"/>
</g>
<path d="M569.928 245.198C569.86 245.156 569.8 245.1 569.752 245.036L567.683 242.318C567.626 242.248 567.585 242.168 567.56 242.081C567.536 241.994 567.529 241.904 567.541 241.815C567.552 241.725 567.582 241.639 567.627 241.562C567.673 241.485 567.734 241.417 567.806 241.364C567.876 241.309 567.957 241.268 568.043 241.244C568.129 241.22 568.219 241.214 568.307 241.226C568.395 241.237 568.481 241.266 568.558 241.312C568.635 241.357 568.702 241.417 568.756 241.488L570.365 243.605L573.715 240.268C573.841 240.141 574.012 240.07 574.19 240.07C574.368 240.07 574.539 240.141 574.665 240.268C574.791 240.394 574.861 240.566 574.861 240.745C574.861 240.923 574.791 241.095 574.665 241.221L570.782 245.117C570.716 245.184 570.637 245.236 570.549 245.27C570.462 245.304 570.368 245.318 570.274 245.312C570.151 245.307 570.031 245.267 569.928 245.198Z" fill="#7F848C"/>
<g filter="url(#filter4_ii)">
<path d="M192.389 44.5848C192.208 45.8062 191.671 46.9463 190.845 47.8607C190.019 48.7752 188.941 49.423 187.749 49.7221C186.556 50.0211 185.302 49.9581 184.145 49.5409C182.988 49.1237 181.98 48.3711 181.249 47.3784C180.518 46.3856 180.097 45.1973 180.038 43.9638C179.98 42.7304 180.287 41.5072 180.92 40.4491C181.554 39.391 182.486 38.5455 183.598 38.0196C184.71 37.4937 185.953 37.311 187.168 37.4948C188.796 37.7408 190.26 38.6255 191.239 39.9548C192.218 41.2841 192.631 42.9493 192.389 44.5848Z" fill="#E8EDF1"/>
</g>
<path d="M185.221 46.8307C185.152 46.7885 185.091 46.7335 185.041 46.6686L182.972 43.9509C182.919 43.8817 182.88 43.8027 182.858 43.7186C182.836 43.6344 182.83 43.5466 182.842 43.4603C182.865 43.2859 182.956 43.128 183.095 43.0211C183.234 42.9142 183.41 42.8673 183.583 42.8905C183.757 42.9138 183.914 43.0053 184.021 43.1451L185.634 45.2621L188.985 41.9006C189.111 41.7742 189.282 41.7031 189.46 41.7031C189.638 41.7031 189.809 41.7742 189.934 41.9006C190.06 42.0271 190.131 42.1986 190.131 42.3774C190.131 42.5563 190.06 42.7278 189.934 42.8542L186.052 46.7258C185.986 46.7922 185.906 46.8436 185.819 46.8764C185.731 46.9093 185.637 46.923 185.544 46.9165C185.431 46.9183 185.319 46.8886 185.221 46.8307Z" fill="#7F848C"/>
<g filter="url(#filter5_ii)">
<path d="M640.935 123.252C640.754 124.473 640.215 125.613 639.389 126.526C638.563 127.44 637.485 128.087 636.292 128.385C635.1 128.684 633.846 128.62 632.689 128.203C631.533 127.785 630.526 127.032 629.795 126.039C629.064 125.047 628.643 123.858 628.585 122.625C628.527 121.392 628.834 120.169 629.468 119.111C630.101 118.053 631.033 117.208 632.145 116.682C633.257 116.156 634.499 115.974 635.715 116.157C637.343 116.403 638.808 117.289 639.787 118.619C640.766 119.949 641.179 121.616 640.935 123.252Z" fill="#E8EDF1"/>
</g>
<path d="M633.766 125.493C633.695 125.453 633.634 125.397 633.586 125.331L631.521 122.613C631.464 122.544 631.422 122.463 631.397 122.377C631.372 122.29 631.365 122.199 631.377 122.11C631.388 122.02 631.418 121.934 631.464 121.857C631.51 121.779 631.571 121.712 631.644 121.66C631.783 121.554 631.958 121.508 632.13 121.531C632.303 121.555 632.459 121.645 632.565 121.784L634.179 123.901L637.53 120.563C637.656 120.437 637.826 120.366 638.004 120.366C638.182 120.366 638.353 120.437 638.479 120.563C638.605 120.69 638.676 120.861 638.676 121.04C638.676 121.219 638.605 121.39 638.479 121.517L634.568 125.398C634.502 125.465 634.423 125.517 634.335 125.551C634.248 125.585 634.154 125.599 634.06 125.593C633.956 125.583 633.855 125.549 633.766 125.493Z" fill="#7F848C"/>
<g filter="url(#filter6_ii)">
<path d="M520.499 38.1722C520.318 39.3936 519.78 40.5337 518.954 41.4481C518.128 42.3626 517.051 43.0104 515.858 43.3095C514.665 43.6085 513.411 43.5455 512.254 43.1283C511.097 42.7111 510.09 41.9585 509.359 40.9657C508.628 39.973 508.206 38.7847 508.148 37.5512C508.089 36.3178 508.396 35.0946 509.03 34.0365C509.663 32.9784 510.595 32.1329 511.708 31.607C512.82 31.0811 514.062 30.8984 515.278 31.0822C516.905 31.3282 518.369 32.2129 519.348 33.5422C520.327 34.8715 520.741 36.5367 520.499 38.1722Z" fill="#E8EDF1"/>
</g>
<path d="M513.332 40.4177C513.263 40.3743 513.202 40.3195 513.151 40.2556L511.087 37.5379C511.027 37.4707 510.981 37.3919 510.952 37.3063C510.924 37.2207 510.913 37.1301 510.92 37.0401C510.928 36.9501 510.953 36.8626 510.996 36.7829C511.038 36.7033 511.096 36.6331 511.166 36.5768C511.237 36.5205 511.318 36.4793 511.404 36.4556C511.491 36.4318 511.582 36.4262 511.671 36.4389C511.76 36.4517 511.845 36.4826 511.922 36.5297C511.999 36.5769 512.065 36.6392 512.117 36.713L513.73 38.83L517.081 35.4924C517.207 35.366 517.378 35.2949 517.556 35.2949C517.734 35.2949 517.905 35.366 518.031 35.4924C518.156 35.6189 518.227 35.7904 518.227 35.9692C518.227 36.1481 518.156 36.3196 518.031 36.446L514.148 40.3415C514.045 40.449 513.907 40.5172 513.759 40.5346C513.611 40.552 513.462 40.5174 513.337 40.4368L513.332 40.4177Z" fill="#7F848C"/>
<g filter="url(#filter7_ii)">
<path d="M53.4785 355.405C53.2248 357.114 52.4721 358.709 51.3158 359.988C50.1595 361.268 48.6515 362.173 46.9825 362.592C45.3136 363.01 43.5587 362.921 41.9399 362.337C40.321 361.753 38.911 360.7 37.8881 359.311C36.8652 357.921 36.2755 356.259 36.1935 354.533C36.1115 352.807 36.5409 351.095 37.4274 349.614C38.3139 348.134 39.6177 346.95 41.1738 346.214C42.7299 345.478 44.4684 345.222 46.1694 345.478C48.4485 345.822 50.4986 347.06 51.8692 348.922C53.2397 350.783 53.8186 353.115 53.4785 355.405Z" fill="#E8EDF1"/>
</g>
<path d="M43.4511 358.552C43.3554 358.49 43.2704 358.413 43.1995 358.323L40.3091 354.509C40.1848 354.314 40.138 354.078 40.178 353.85C40.218 353.622 40.3419 353.417 40.5252 353.276C40.7084 353.135 40.9376 353.068 41.1675 353.089C41.3973 353.11 41.611 353.217 41.7662 353.388L44.0206 356.349L48.7099 351.648C48.883 351.474 49.1177 351.376 49.3625 351.376C49.6073 351.376 49.842 351.474 50.0151 351.648C50.1882 351.822 50.2854 352.058 50.2854 352.304C50.2854 352.55 50.1882 352.785 50.0151 352.959L44.5854 358.414C44.4364 358.557 44.2451 358.647 44.0405 358.671C43.8359 358.695 43.629 358.652 43.4511 358.547V358.552Z" fill="#7F848C"/>
<path opacity="0.4" d="M624.128 335.861H619.624V331.341C619.624 330.867 619.436 330.412 619.102 330.077C618.768 329.742 618.316 329.553 617.844 329.553C617.372 329.553 616.919 329.742 616.585 330.077C616.251 330.412 616.064 330.867 616.064 331.341V335.861H611.56C611.103 335.885 610.673 336.084 610.358 336.417C610.043 336.75 609.867 337.192 609.867 337.652C609.867 338.111 610.043 338.553 610.358 338.886C610.673 339.219 611.103 339.418 611.56 339.442H616.059V343.967C616.059 344.441 616.247 344.896 616.58 345.231C616.914 345.566 617.367 345.755 617.839 345.755C618.311 345.755 618.764 345.566 619.097 345.231C619.431 344.896 619.619 344.441 619.619 343.967V339.442H624.128C624.369 339.455 624.611 339.418 624.838 339.333C625.065 339.249 625.273 339.119 625.449 338.952C625.624 338.784 625.764 338.582 625.859 338.359C625.955 338.136 626.004 337.895 626.004 337.652C626.004 337.408 625.955 337.168 625.859 336.944C625.764 336.721 625.624 336.519 625.449 336.352C625.273 336.184 625.065 336.054 624.838 335.97C624.611 335.886 624.369 335.849 624.128 335.861Z" fill="#7F848C"/>
<path opacity="0.4" d="M506.768 122.723H504.106V120.043C504.088 119.774 503.969 119.522 503.773 119.338C503.577 119.154 503.318 119.051 503.05 119.051C502.781 119.051 502.523 119.154 502.327 119.338C502.131 119.522 502.012 119.774 501.994 120.043V122.723H499.331C499.052 122.723 498.784 122.835 498.586 123.033C498.388 123.232 498.277 123.501 498.277 123.781C498.277 124.062 498.388 124.331 498.586 124.53C498.784 124.728 499.052 124.84 499.331 124.84H501.994V127.515C501.984 127.66 502.004 127.806 502.053 127.943C502.101 128.08 502.178 128.206 502.277 128.312C502.376 128.419 502.495 128.503 502.628 128.561C502.761 128.619 502.905 128.649 503.05 128.649C503.195 128.649 503.338 128.619 503.471 128.561C503.604 128.503 503.724 128.419 503.823 128.312C503.922 128.206 503.998 128.08 504.047 127.943C504.095 127.806 504.115 127.66 504.106 127.515V124.84H506.768C507.048 124.84 507.316 124.728 507.513 124.53C507.711 124.331 507.822 124.062 507.822 123.781C507.822 123.501 507.711 123.232 507.513 123.033C507.316 122.835 507.048 122.723 506.768 122.723Z" fill="#7F848C"/>
<path opacity="0.4" d="M664.652 211.221H661.985V208.546C661.985 208.266 661.874 207.996 661.676 207.798C661.478 207.599 661.21 207.488 660.931 207.488C660.652 207.488 660.383 207.599 660.186 207.798C659.988 207.996 659.877 208.266 659.877 208.546V211.221H657.21C656.93 211.221 656.662 211.333 656.465 211.531C656.267 211.73 656.156 211.999 656.156 212.28C656.156 212.56 656.267 212.83 656.465 213.028C656.662 213.227 656.93 213.338 657.21 213.338H659.877V216.018C659.877 216.298 659.988 216.568 660.186 216.766C660.383 216.965 660.652 217.076 660.931 217.076C661.21 217.076 661.478 216.965 661.676 216.766C661.874 216.568 661.985 216.298 661.985 216.018V213.338H664.652C664.931 213.338 665.199 213.227 665.397 213.028C665.595 212.83 665.706 212.56 665.706 212.28C665.706 211.999 665.595 211.73 665.397 211.531C665.199 211.333 664.931 211.221 664.652 211.221Z" fill="#7F848C"/>
<path opacity="0.4" d="M24.6042 85.0986H21.9369V82.4237C21.9369 82.143 21.8259 81.8738 21.6283 81.6753C21.4307 81.4768 21.1627 81.3652 20.8832 81.3652C20.6038 81.3652 20.3358 81.4768 20.1382 81.6753C19.9406 81.8738 19.8296 82.143 19.8296 82.4237V85.0986H17.1669C16.8875 85.0986 16.6195 85.2101 16.4219 85.4086C16.2243 85.6071 16.1133 85.8763 16.1133 86.157C16.1133 86.4378 16.2243 86.707 16.4219 86.9055C16.6195 87.104 16.8875 87.2155 17.1669 87.2155H19.8296V89.8951C19.8296 90.1759 19.9406 90.4451 20.1382 90.6436C20.3358 90.8421 20.6038 90.9536 20.8832 90.9536C21.1627 90.9536 21.4307 90.8421 21.6283 90.6436C21.8259 90.4451 21.9369 90.1759 21.9369 89.8951V87.2155H24.6042C24.8837 87.2155 25.1517 87.104 25.3493 86.9055C25.5469 86.707 25.6579 86.4378 25.6579 86.157C25.6579 85.8763 25.5469 85.6071 25.3493 85.4086C25.1517 85.2101 24.8837 85.0986 24.6042 85.0986Z" fill="#7F848C"/>
<path opacity="0.4" d="M310.585 14.9853H307.918V12.3104C307.918 12.0297 307.807 11.7605 307.609 11.562C307.411 11.3635 307.143 11.252 306.864 11.252C306.584 11.252 306.316 11.3635 306.119 11.562C305.921 11.7605 305.81 12.0297 305.81 12.3104V14.9853H303.148C302.88 15.0033 302.629 15.1229 302.445 15.3199C302.262 15.5169 302.16 15.7765 302.16 16.0462C302.16 16.3158 302.262 16.5754 302.445 16.7724C302.629 16.9694 302.88 17.089 303.148 17.107H305.81V19.7819C305.81 20.0626 305.921 20.3318 306.119 20.5303C306.316 20.7288 306.584 20.8404 306.864 20.8404C307.143 20.8404 307.411 20.7288 307.609 20.5303C307.807 20.3318 307.918 20.0626 307.918 19.7819V17.107H310.585C310.853 17.089 311.104 16.9694 311.287 16.7724C311.47 16.5754 311.572 16.3158 311.572 16.0462C311.572 15.7765 311.47 15.5169 311.287 15.3199C311.104 15.1229 310.853 15.0033 310.585 14.9853Z" fill="#7F848C"/>
<path opacity="0.4" d="M287.179 127.424H284.512V124.749C284.512 124.469 284.401 124.199 284.203 124.001C284.006 123.802 283.738 123.691 283.458 123.691C283.179 123.691 282.911 123.802 282.713 124.001C282.516 124.199 282.405 124.469 282.405 124.749V127.424H279.737C279.458 127.424 279.19 127.536 278.992 127.734C278.795 127.933 278.684 128.202 278.684 128.483C278.684 128.763 278.795 129.033 278.992 129.231C279.19 129.43 279.458 129.541 279.737 129.541H282.4V132.221C282.4 132.502 282.511 132.771 282.708 132.969C282.906 133.168 283.174 133.279 283.454 133.279C283.733 133.279 284.001 133.168 284.199 132.969C284.396 132.771 284.507 132.502 284.507 132.221V129.541H287.175C287.454 129.541 287.722 129.43 287.92 129.231C288.117 129.033 288.228 128.763 288.228 128.483C288.228 128.202 288.117 127.933 287.92 127.734C287.722 127.536 287.454 127.424 287.175 127.424H287.179Z" fill="#7F848C"/>
<path opacity="0.4" d="M57.3712 268.075H54.7039V265.4C54.7039 265.119 54.5929 264.85 54.3953 264.651C54.1977 264.453 53.9297 264.341 53.6502 264.341C53.3708 264.341 53.1028 264.453 52.9052 264.651C52.7076 264.85 52.5966 265.119 52.5966 265.4V268.075H49.9339C49.7893 268.065 49.6442 268.085 49.5077 268.134C49.3711 268.183 49.246 268.259 49.1402 268.359C49.0343 268.458 48.9499 268.579 48.8922 268.712C48.8345 268.846 48.8047 268.99 48.8047 269.136C48.8047 269.281 48.8345 269.425 48.8922 269.559C48.9499 269.692 49.0343 269.813 49.1402 269.912C49.246 270.012 49.3711 270.088 49.5077 270.137C49.6442 270.186 49.7893 270.206 49.9339 270.196H52.5966V272.871C52.5966 273.152 52.7076 273.421 52.9052 273.62C53.1028 273.818 53.3708 273.93 53.6502 273.93C53.9297 273.93 54.1977 273.818 54.3953 273.62C54.5929 273.421 54.7039 273.152 54.7039 272.871V270.196H57.3712C57.6391 270.178 57.8901 270.059 58.0734 269.862C58.2568 269.665 58.3588 269.405 58.3588 269.136C58.3588 268.866 58.2568 268.606 58.0734 268.409C57.8901 268.212 57.6391 268.093 57.3712 268.075Z" fill="#7F848C"/>
<defs>
<filter id="filter0_dd" x="108.25" y="138.341" width="450.793" height="308.835" filterUnits="userSpaceOnUse" color-interpolation-filters="sRGB">
<feFlood flood-opacity="0" result="BackgroundImageFix"/>
<feColorMatrix in="SourceAlpha" type="matrix" values="0 0 0 0 0 0 0 0 0 0 0 0 0 0 0 0 0 0 127 0"/>
<feOffset dx="4" dy="2"/>
<feGaussianBlur stdDeviation="4"/>
<feColorMatrix type="matrix" values="0 0 0 0 0.534167 0 0 0 0 0.645967 0 0 0 0 0.749167 0 0 0 0.54 0"/>
<feBlend mode="normal" in2="BackgroundImageFix" result="effect1_dropShadow"/>
<feColorMatrix in="SourceAlpha" type="matrix" values="0 0 0 0 0 0 0 0 0 0 0 0 0 0 0 0 0 0 127 0"/>
<feOffset dx="-4" dy="-2"/>
<feGaussianBlur stdDeviation="4"/>
<feColorMatrix type="matrix" values="0 0 0 0 1 0 0 0 0 1 0 0 0 0 1 0 0 0 1 0"/>
<feBlend mode="normal" in2="effect1_dropShadow" result="effect2_dropShadow"/>
<feBlend mode="normal" in="SourceGraphic" in2="effect2_dropShadow" result="shape"/>
</filter>
<filter id="filter1_ii" x="133.941" y="167.012" width="399.413" height="255.757" filterUnits="userSpaceOnUse" color-interpolation-filters="sRGB">
<feFlood flood-opacity="0" result="BackgroundImageFix"/>
<feBlend mode="normal" in="SourceGraphic" in2="BackgroundImageFix" result="shape"/>
<feColorMatrix in="SourceAlpha" type="matrix" values="0 0 0 0 0 0 0 0 0 0 0 0 0 0 0 0 0 0 127 0" result="hardAlpha"/>
<feOffset dx="3" dy="3"/>
<feGaussianBlur stdDeviation="1.5"/>
<feComposite in2="hardAlpha" operator="arithmetic" k2="-1" k3="1"/>
<feColorMatrix type="matrix" values="0 0 0 0 0.534167 0 0 0 0 0.645967 0 0 0 0 0.749167 0 0 0 0.48 0"/>
<feBlend mode="normal" in2="shape" result="effect1_innerShadow"/>
<feColorMatrix in="SourceAlpha" type="matrix" values="0 0 0 0 0 0 0 0 0 0 0 0 0 0 0 0 0 0 127 0" result="hardAlpha"/>
<feOffset dx="-3" dy="-3"/>
<feGaussianBlur stdDeviation="1.5"/>
<feComposite in2="hardAlpha" operator="arithmetic" k2="-1" k3="1"/>
<feColorMatrix type="matrix" values="0 0 0 0 1 0 0 0 0 1 0 0 0 0 1 0 0 0 1 0"/>
<feBlend mode="normal" in2="effect1_innerShadow" result="effect2_innerShadow"/>
</filter>
<filter id="filter2_ii" x="370.105" y="85.2852" width="20.3907" height="20.4699" filterUnits="userSpaceOnUse" color-interpolation-filters="sRGB">
<feFlood flood-opacity="0" result="BackgroundImageFix"/>
<feBlend mode="normal" in="SourceGraphic" in2="BackgroundImageFix" result="shape"/>
<feColorMatrix in="SourceAlpha" type="matrix" values="0 0 0 0 0 0 0 0 0 0 0 0 0 0 0 0 0 0 127 0" result="hardAlpha"/>
<feOffset dx="2" dy="2"/>
<feGaussianBlur stdDeviation="1.5"/>
<feComposite in2="hardAlpha" operator="arithmetic" k2="-1" k3="1"/>
<feColorMatrix type="matrix" values="0 0 0 0 0.534167 0 0 0 0 0.645967 0 0 0 0 0.749167 0 0 0 0.48 0"/>
<feBlend mode="normal" in2="shape" result="effect1_innerShadow"/>
<feColorMatrix in="SourceAlpha" type="matrix" values="0 0 0 0 0 0 0 0 0 0 0 0 0 0 0 0 0 0 127 0" result="hardAlpha"/>
<feOffset dx="-1" dy="-1"/>
<feGaussianBlur stdDeviation="1.5"/>
<feComposite in2="hardAlpha" operator="arithmetic" k2="-1" k3="1"/>
<feColorMatrix type="matrix" values="0 0 0 0 0.9625 0 0 0 0 0.9625 0 0 0 0 0.9625 0 0 0 1 0"/>
<feBlend mode="normal" in2="effect1_innerShadow" result="effect2_innerShadow"/>
</filter>
<filter id="filter3_ii" x="563.75" y="234.793" width="15.4155" height="15.4731" filterUnits="userSpaceOnUse" color-interpolation-filters="sRGB">
<feFlood flood-opacity="0" result="BackgroundImageFix"/>
<feBlend mode="normal" in="SourceGraphic" in2="BackgroundImageFix" result="shape"/>
<feColorMatrix in="SourceAlpha" type="matrix" values="0 0 0 0 0 0 0 0 0 0 0 0 0 0 0 0 0 0 127 0" result="hardAlpha"/>
<feOffset dx="2" dy="2"/>
<feGaussianBlur stdDeviation="1.5"/>
<feComposite in2="hardAlpha" operator="arithmetic" k2="-1" k3="1"/>
<feColorMatrix type="matrix" values="0 0 0 0 0.534167 0 0 0 0 0.645967 0 0 0 0 0.749167 0 0 0 0.48 0"/>
<feBlend mode="normal" in2="shape" result="effect1_innerShadow"/>
<feColorMatrix in="SourceAlpha" type="matrix" values="0 0 0 0 0 0 0 0 0 0 0 0 0 0 0 0 0 0 127 0" result="hardAlpha"/>
<feOffset dx="-1" dy="-1"/>
<feGaussianBlur stdDeviation="1.5"/>
<feComposite in2="hardAlpha" operator="arithmetic" k2="-1" k3="1"/>
<feColorMatrix type="matrix" values="0 0 0 0 0.9625 0 0 0 0 0.9625 0 0 0 0 0.9625 0 0 0 1 0"/>
<feBlend mode="normal" in2="effect1_innerShadow" result="effect2_innerShadow"/>
</filter>
<filter id="filter4_ii" x="179.031" y="36.4253" width="15.4256" height="15.4826" filterUnits="userSpaceOnUse" color-interpolation-filters="sRGB">
<feFlood flood-opacity="0" result="BackgroundImageFix"/>
<feBlend mode="normal" in="SourceGraphic" in2="BackgroundImageFix" result="shape"/>
<feColorMatrix in="SourceAlpha" type="matrix" values="0 0 0 0 0 0 0 0 0 0 0 0 0 0 0 0 0 0 127 0" result="hardAlpha"/>
<feOffset dx="2" dy="2"/>
<feGaussianBlur stdDeviation="1.5"/>
<feComposite in2="hardAlpha" operator="arithmetic" k2="-1" k3="1"/>
<feColorMatrix type="matrix" values="0 0 0 0 0.534167 0 0 0 0 0.645967 0 0 0 0 0.749167 0 0 0 0.48 0"/>
<feBlend mode="normal" in2="shape" result="effect1_innerShadow"/>
<feColorMatrix in="SourceAlpha" type="matrix" values="0 0 0 0 0 0 0 0 0 0 0 0 0 0 0 0 0 0 127 0" result="hardAlpha"/>
<feOffset dx="-1" dy="-1"/>
<feGaussianBlur stdDeviation="1.5"/>
<feComposite in2="hardAlpha" operator="arithmetic" k2="-1" k3="1"/>
<feColorMatrix type="matrix" values="0 0 0 0 0.9625 0 0 0 0 0.9625 0 0 0 0 0.9625 0 0 0 1 0"/>
<feBlend mode="normal" in2="effect1_innerShadow" result="effect2_innerShadow"/>
</filter>
<filter id="filter5_ii" x="627.578" y="115.088" width="15.4255" height="15.4826" filterUnits="userSpaceOnUse" color-interpolation-filters="sRGB">
<feFlood flood-opacity="0" result="BackgroundImageFix"/>
<feBlend mode="normal" in="SourceGraphic" in2="BackgroundImageFix" result="shape"/>
<feColorMatrix in="SourceAlpha" type="matrix" values="0 0 0 0 0 0 0 0 0 0 0 0 0 0 0 0 0 0 127 0" result="hardAlpha"/>
<feOffset dx="2" dy="2"/>
<feGaussianBlur stdDeviation="1.5"/>
<feComposite in2="hardAlpha" operator="arithmetic" k2="-1" k3="1"/>
<feColorMatrix type="matrix" values="0 0 0 0 0.534167 0 0 0 0 0.645967 0 0 0 0 0.749167 0 0 0 0.48 0"/>
<feBlend mode="normal" in2="shape" result="effect1_innerShadow"/>
<feColorMatrix in="SourceAlpha" type="matrix" values="0 0 0 0 0 0 0 0 0 0 0 0 0 0 0 0 0 0 127 0" result="hardAlpha"/>
<feOffset dx="-1" dy="-1"/>
<feGaussianBlur stdDeviation="1.5"/>
<feComposite in2="hardAlpha" operator="arithmetic" k2="-1" k3="1"/>
<feColorMatrix type="matrix" values="0 0 0 0 0.9625 0 0 0 0 0.9625 0 0 0 0 0.9625 0 0 0 1 0"/>
<feBlend mode="normal" in2="effect1_innerShadow" result="effect2_innerShadow"/>
</filter>
<filter id="filter6_ii" x="507.141" y="30.0127" width="15.4255" height="15.4826" filterUnits="userSpaceOnUse" color-interpolation-filters="sRGB">
<feFlood flood-opacity="0" result="BackgroundImageFix"/>
<feBlend mode="normal" in="SourceGraphic" in2="BackgroundImageFix" result="shape"/>
<feColorMatrix in="SourceAlpha" type="matrix" values="0 0 0 0 0 0 0 0 0 0 0 0 0 0 0 0 0 0 127 0" result="hardAlpha"/>
<feOffset dx="2" dy="2"/>
<feGaussianBlur stdDeviation="1.5"/>
<feComposite in2="hardAlpha" operator="arithmetic" k2="-1" k3="1"/>
<feColorMatrix type="matrix" values="0 0 0 0 0.534167 0 0 0 0 0.645967 0 0 0 0 0.749167 0 0 0 0.48 0"/>
<feBlend mode="normal" in2="shape" result="effect1_innerShadow"/>
<feColorMatrix in="SourceAlpha" type="matrix" values="0 0 0 0 0 0 0 0 0 0 0 0 0 0 0 0 0 0 127 0" result="hardAlpha"/>
<feOffset dx="-1" dy="-1"/>
<feGaussianBlur stdDeviation="1.5"/>
<feComposite in2="hardAlpha" operator="arithmetic" k2="-1" k3="1"/>
<feColorMatrix type="matrix" values="0 0 0 0 0.9625 0 0 0 0 0.9625 0 0 0 0 0.9625 0 0 0 1 0"/>
<feBlend mode="normal" in2="effect1_innerShadow" result="effect2_innerShadow"/>
</filter>
<filter id="filter7_ii" x="35.1836" y="344.381" width="20.3901" height="20.4698" filterUnits="userSpaceOnUse" color-interpolation-filters="sRGB">
<feFlood flood-opacity="0" result="BackgroundImageFix"/>
<feBlend mode="normal" in="SourceGraphic" in2="BackgroundImageFix" result="shape"/>
<feColorMatrix in="SourceAlpha" type="matrix" values="0 0 0 0 0 0 0 0 0 0 0 0 0 0 0 0 0 0 127 0" result="hardAlpha"/>
<feOffset dx="2" dy="2"/>
<feGaussianBlur stdDeviation="1.5"/>
<feComposite in2="hardAlpha" operator="arithmetic" k2="-1" k3="1"/>
<feColorMatrix type="matrix" values="0 0 0 0 0.534167 0 0 0 0 0.645967 0 0 0 0 0.749167 0 0 0 0.48 0"/>
<feBlend mode="normal" in2="shape" result="effect1_innerShadow"/>
<feColorMatrix in="SourceAlpha" type="matrix" values="0 0 0 0 0 0 0 0 0 0 0 0 0 0 0 0 0 0 127 0" result="hardAlpha"/>
<feOffset dx="-1" dy="-1"/>
<feGaussianBlur stdDeviation="1.5"/>
<feComposite in2="hardAlpha" operator="arithmetic" k2="-1" k3="1"/>
<feColorMatrix type="matrix" values="0 0 0 0 0.9625 0 0 0 0 0.9625 0 0 0 0 0.9625 0 0 0 1 0"/>
<feBlend mode="normal" in2="effect1_innerShadow" result="effect2_innerShadow"/>
</filter>
<linearGradient id="paint0_linear" x1="215.783" y1="134.347" x2="200.612" y2="130.458" gradientUnits="userSpaceOnUse">
<stop stop-color="#F7F7F7"/>
<stop offset="1" stop-color="white"/>
</linearGradient>
<linearGradient id="paint1_linear" x1="263583" y1="-64604.5" x2="268213" y2="-69111.4" gradientUnits="userSpaceOnUse">
<stop stop-color="#F7F7F7"/>
<stop offset="1" stop-color="white"/>
</linearGradient>
<linearGradient id="paint2_linear" x1="166839" y1="-40479.3" x2="168610" y2="-42330.5" gradientUnits="userSpaceOnUse">
<stop stop-color="#F7F7F7"/>
<stop offset="1" stop-color="white"/>
</linearGradient>
<linearGradient id="paint3_linear" x1="291293" y1="-53730.9" x2="295638" y2="-58983.2" gradientUnits="userSpaceOnUse">
<stop stop-color="#F7F7F7"/>
<stop offset="1" stop-color="white"/>
</linearGradient>
<linearGradient id="paint4_linear" x1="-976249" y1="-172406" x2="-979575" y2="-168979" gradientUnits="userSpaceOnUse">
<stop stop-color="#F7F7F7"/>
<stop offset="1" stop-color="white"/>
</linearGradient>
<linearGradient id="paint5_linear" x1="-282472" y1="98353" x2="-292177" y2="100930" gradientUnits="userSpaceOnUse">
<stop stop-color="#F7F7F7"/>
<stop offset="1" stop-color="white"/>
</linearGradient>
<linearGradient id="paint6_linear" x1="-179163" y1="58888.4" x2="-183112" y2="59926.6" gradientUnits="userSpaceOnUse">
<stop stop-color="#F7F7F7"/>
<stop offset="1" stop-color="white"/>
</linearGradient>
<linearGradient id="paint7_linear" x1="-282715" y1="120841" x2="-293514" y2="123202" gradientUnits="userSpaceOnUse">
<stop stop-color="#F7F7F7"/>
<stop offset="1" stop-color="white"/>
</linearGradient>
<linearGradient id="paint8_linear" x1="-502772" y1="209124" x2="-505747" y2="212392" gradientUnits="userSpaceOnUse">
<stop stop-color="#F7F7F7"/>
<stop offset="1" stop-color="white"/>
</linearGradient>
<linearGradient id="paint9_linear" x1="-213442" y1="69332.9" x2="-216723" y2="74472.9" gradientUnits="userSpaceOnUse">
<stop stop-color="#F7F7F7"/>
<stop offset="1" stop-color="white"/>
</linearGradient>
<linearGradient id="paint10_linear" x1="-138514" y1="41547.5" x2="-139721" y2="43618.9" gradientUnits="userSpaceOnUse">
<stop stop-color="#F7F7F7"/>
<stop offset="1" stop-color="white"/>
</linearGradient>
<linearGradient id="paint11_linear" x1="-233383" y1="70595.3" x2="-236239" y2="76319.5" gradientUnits="userSpaceOnUse">
<stop stop-color="#F7F7F7"/>
<stop offset="1" stop-color="white"/>
</linearGradient>
<linearGradient id="paint12_linear" x1="483.142" y1="260.117" x2="475.36" y2="264.563" gradientUnits="userSpaceOnUse">
<stop stop-color="#FFECDC"/>
<stop offset="0.24" stop-color="#F6DAC4"/>
<stop offset="0.74" stop-color="#E0AD87"/>
<stop offset="1" stop-color="#D39364"/>
</linearGradient>
<linearGradient id="paint13_linear" x1="961.018" y1="748.364" x2="961.433" y2="748.364" gradientUnits="userSpaceOnUse">
<stop stop-color="#808080"/>
<stop offset="0.64" stop-color="#52524D"/>
<stop offset="1" stop-color="#3C3C35"/>
</linearGradient>
<linearGradient id="paint14_linear" x1="482.721" y1="264.06" x2="483.044" y2="264.06" gradientUnits="userSpaceOnUse">
<stop stop-color="#E3CBBA"/>
<stop offset="0.25" stop-color="#DBBAA2"/>
<stop offset="0.78" stop-color="#C88F65"/>
<stop offset="1" stop-color="#BF7C4A"/>
</linearGradient>
<linearGradient id="paint15_linear" x1="3177.5" y1="654.585" x2="3192.52" y2="654.585" gradientUnits="userSpaceOnUse">
<stop stop-color="white"/>
<stop offset="0.37" stop-color="#F2F2FF"/>
<stop offset="1" stop-color="#D2D2FF"/>
</linearGradient>
<linearGradient id="paint16_linear" x1="14550.6" y1="-1461.63" x2="14553.1" y2="-1762.03" gradientUnits="userSpaceOnUse">
<stop stop-color="#98ABB8"/>
<stop offset="1" stop-color="white"/>
</linearGradient>
<linearGradient id="paint17_linear" x1="17204.3" y1="-21286.8" x2="17499.1" y2="-24868.6" gradientUnits="userSpaceOnUse">
<stop stop-color="#98ABB8"/>
<stop offset="1" stop-color="white"/>
</linearGradient>
<linearGradient id="paint18_linear" x1="9036.32" y1="-21803.4" x2="9617.29" y2="-25401.9" gradientUnits="userSpaceOnUse">
<stop stop-color="#98ABB8"/>
<stop offset="1" stop-color="white"/>
</linearGradient>
</defs>
</svg>
