<svg width="45" height="45" viewBox="0 0 45 45" fill="none" xmlns="http://www.w3.org/2000/svg">
<path d="M22.502 43.6816C34.2003 43.6816 43.6836 34.1983 43.6836 22.5C43.6836 10.8017 34.2003 1.31836 22.502 1.31836C10.8037 1.31836 1.32031 10.8017 1.32031 22.5C1.32031 34.1983 10.8037 43.6816 22.502 43.6816Z" fill="white"/>
<path d="M43.6795 22.5C43.6795 10.8018 34.1962 1.31845 22.498 1.31836V43.6816C34.1962 43.6816 43.6795 34.1982 43.6795 22.5Z" fill="#E8EDF1"/>
<path d="M22.5 45C16.49 45 10.8397 42.6596 6.59004 38.4099C2.34044 34.1602 0 28.51 0 22.5C0 16.49 2.34044 10.8398 6.59004 6.59004C10.8397 2.34044 16.49 0 22.5 0C28.51 0 34.1602 2.34044 38.4099 6.59004C42.6596 10.8398 45 16.49 45 22.5C45 28.51 42.6596 34.1602 38.4099 38.4099C34.1602 42.6596 28.51 45 22.5 45ZM22.5 2.63672C11.5473 2.63672 2.63672 11.5473 2.63672 22.5C2.63672 33.4527 11.5473 42.3633 22.5 42.3633C33.4527 42.3633 42.3633 33.4527 42.3633 22.5C42.3633 11.5473 33.4527 2.63672 22.5 2.63672Z" fill="url(#paint0_linear)"/>
<path d="M22.5031 11.1093C22.1568 11.1093 21.8166 10.9686 21.5714 10.7234C21.3262 10.4782 21.1855 10.138 21.1855 9.79095C21.1855 9.44379 21.3262 9.10444 21.5714 8.85844C21.8166 8.61322 22.1567 8.4726 22.5031 8.4726C22.8502 8.4726 23.1903 8.61322 23.4355 8.85844C23.6808 9.10365 23.8215 9.44379 23.8215 9.79095C23.8215 10.138 23.6808 10.4782 23.4355 10.7234C23.1903 10.9687 22.8502 11.1093 22.5031 11.1093Z" fill="#363C46"/>
<path d="M22.5031 36.5273C22.1568 36.5273 21.8166 36.3867 21.5714 36.1415C21.3262 35.8963 21.1855 35.5561 21.1855 35.209C21.1855 34.8619 21.3262 34.5225 21.5714 34.2765C21.8166 34.0313 22.1567 33.8906 22.5031 33.8906C22.8502 33.8906 23.1903 34.0313 23.4355 34.2765C23.6808 34.5226 23.8215 34.8628 23.8215 35.209C23.8215 35.5561 23.6808 35.8955 23.4355 36.1415C23.1903 36.3867 22.8502 36.5273 22.5031 36.5273Z" fill="#363C46"/>
<path d="M16.1465 12.8117C15.8003 12.8117 15.4601 12.6711 15.2148 12.4259C14.9687 12.1807 14.8281 11.8406 14.8281 11.4943C14.8281 11.1471 14.9688 10.807 15.2148 10.5617C15.4601 10.3165 15.7993 10.1759 16.1465 10.1759C16.4937 10.1759 16.8338 10.3165 17.079 10.5617C17.3242 10.807 17.4648 11.1462 17.4648 11.4943C17.4648 11.8405 17.3242 12.1807 17.079 12.4259C16.8339 12.6711 16.4937 12.8117 16.1465 12.8117Z" fill="#363C46"/>
<path d="M28.8543 34.8247C28.5071 34.8247 28.167 34.684 27.9218 34.4387C27.6766 34.1935 27.5352 33.8534 27.5352 33.5063C27.5352 33.1591 27.6766 32.819 27.9218 32.5738C28.167 32.3286 28.5071 32.188 28.8543 32.188C29.2006 32.188 29.5406 32.3286 29.7859 32.5738C30.0312 32.8199 30.1727 33.1591 30.1727 33.5063C30.1727 33.8534 30.0312 34.1927 29.7859 34.4387C29.5406 34.6841 29.2006 34.8247 28.8543 34.8247Z" fill="#363C46"/>
<path d="M11.498 17.4637C11.151 17.4637 10.8108 17.323 10.5656 17.0777C10.3204 16.8325 10.1797 16.4925 10.1797 16.1453C10.1797 15.7981 10.3204 15.4588 10.5656 15.2137C10.8108 14.9676 11.151 14.827 11.498 14.827C11.8452 14.827 12.1846 14.9676 12.4298 15.2137C12.6759 15.4589 12.8164 15.7981 12.8164 16.1453C12.8164 16.4925 12.6758 16.8325 12.4298 17.0777C12.1846 17.323 11.8444 17.4637 11.498 17.4637Z" fill="#363C46"/>
<path d="M33.5059 30.1727C33.1587 30.1727 32.8194 30.0321 32.5742 29.7868C32.3281 29.5416 32.1875 29.2015 32.1875 28.8543C32.1875 28.5072 32.3282 28.1679 32.5742 27.9219C32.8194 27.6767 33.1586 27.536 33.5059 27.536C33.8531 27.536 34.1932 27.6766 34.4384 27.9219C34.6836 28.168 34.8242 28.5072 34.8242 28.8543C34.8242 29.2015 34.6836 29.5416 34.4384 29.7868C34.1923 30.0321 33.853 30.1727 33.5059 30.1727Z" fill="#363C46"/>
<path d="M9.79102 23.8181C9.44481 23.8181 9.10459 23.6775 8.85938 23.4323C8.61416 23.187 8.47266 22.8469 8.47266 22.4997C8.47266 22.1526 8.61416 21.8134 8.85938 21.5672C9.10459 21.322 9.44473 21.1814 9.79102 21.1814C10.1382 21.1814 10.4783 21.322 10.7235 21.5672C10.9688 21.8134 11.1102 22.1526 11.1102 22.4997C11.1102 22.8469 10.9688 23.187 10.7235 23.4323C10.4784 23.6775 10.1383 23.8181 9.79102 23.8181Z" fill="#363C46"/>
<path d="M35.207 23.8181C34.8607 23.8181 34.5206 23.6775 34.2754 23.4323C34.0302 23.187 33.8887 22.8469 33.8887 22.4997C33.8887 22.1526 34.0302 21.8134 34.2754 21.5672C34.5206 21.322 34.8607 21.1814 35.207 21.1814C35.5542 21.1814 35.8943 21.322 36.1395 21.5672C36.3848 21.8134 36.5254 22.1526 36.5254 22.4997C36.5254 22.8469 36.3848 23.187 36.1395 23.4323C35.8943 23.6775 35.5542 23.8181 35.207 23.8181Z" fill="#363C46"/>
<path d="M11.498 30.1727C11.151 30.1727 10.8116 30.0321 10.5656 29.7868C10.3204 29.5416 10.1797 29.2015 10.1797 28.8543C10.1797 28.5072 10.3204 28.1679 10.5656 27.9219C10.8108 27.6767 11.151 27.536 11.498 27.536C11.8452 27.536 12.1846 27.6766 12.4298 27.9219C12.6759 28.168 12.8164 28.5072 12.8164 28.8543C12.8164 29.2015 12.6758 29.5416 12.4298 29.7868C12.1846 30.0321 11.8444 30.1727 11.498 30.1727Z" fill="#363C46"/>
<path d="M33.5059 17.4637C33.1587 17.4637 32.8194 17.323 32.5733 17.0777C32.3282 16.8325 32.1875 16.4925 32.1875 16.1453C32.1875 15.7981 32.3282 15.4588 32.5733 15.2137C32.8195 14.9676 33.1587 14.827 33.5059 14.827C33.853 14.827 34.1923 14.9676 34.4384 15.2137C34.6836 15.4589 34.8242 15.7981 34.8242 16.1453C34.8242 16.4925 34.6836 16.8325 34.4384 17.0777C34.1923 17.323 33.853 17.4637 33.5059 17.4637Z" fill="#363C46"/>
<path d="M16.1465 34.8247C15.8003 34.8247 15.4601 34.684 15.2148 34.438C14.9687 34.1927 14.8281 33.8535 14.8281 33.5063C14.8281 33.1591 14.9688 32.819 15.2148 32.5738C15.4601 32.3286 15.8002 32.188 16.1465 32.188C16.4937 32.188 16.8338 32.3286 17.079 32.5738C17.3242 32.819 17.4648 33.1591 17.4648 33.5063C17.4648 33.8534 17.3242 34.1927 17.079 34.438C16.833 34.6841 16.4937 34.8247 16.1465 34.8247Z" fill="#363C46"/>
<path d="M28.8527 12.8118C28.5056 12.8118 28.1662 12.6712 27.921 12.4259C27.6758 12.1807 27.5352 11.8406 27.5352 11.4943C27.5352 11.1462 27.6758 10.807 27.921 10.5618C28.1662 10.3157 28.5063 10.175 28.8527 10.175C29.1999 10.175 29.5399 10.3158 29.7852 10.5618C30.0304 10.807 30.1711 11.1471 30.1711 11.4943C30.1711 11.8405 30.0304 12.1798 29.7852 12.4259C29.5399 12.6712 29.1999 12.8118 28.8527 12.8118Z" fill="#363C46"/>
<path d="M26.7343 23.8183H22.498C21.77 23.8183 21.1797 23.228 21.1797 22.4999V18.2636C21.1797 17.5355 21.77 16.9453 22.498 16.9453C23.2261 16.9453 23.8164 17.5355 23.8164 18.2636V21.1816H26.7343C27.4624 21.1816 28.0526 21.7719 28.0526 22.4999C28.0526 23.228 27.4624 23.8183 26.7343 23.8183Z" fill="#363C46"/>
<path d="M23.8159 9.79095C23.8159 9.44379 23.6752 9.10365 23.43 8.85844C23.1848 8.6134 22.845 8.47277 22.498 8.4726V11.1093C22.845 11.1091 23.1848 10.9685 23.43 10.7234C23.6752 10.4783 23.8159 10.1381 23.8159 9.79095Z" fill="#363C46"/>
<path d="M23.43 36.1415C23.6752 35.8954 23.8159 35.5561 23.8159 35.209C23.8159 34.8628 23.6752 34.5225 23.43 34.2765C23.1848 34.0314 22.845 33.8908 22.498 33.8906V36.5273C22.845 36.5271 23.1848 36.3865 23.43 36.1415Z" fill="#363C46"/>
<path d="M26.7341 21.1818H23.8162V18.2638C23.8162 17.5357 23.226 16.9456 22.498 16.9455V23.8185H26.7341C27.4622 23.8185 28.0525 23.2282 28.0525 22.5001C28.0525 21.772 27.4622 21.1818 26.7341 21.1818Z" fill="#363C46"/>
<path d="M44.9979 22.5C44.9979 16.49 42.6574 10.8398 38.4077 6.59004C34.1581 2.34044 28.5079 0 22.498 0V2.63672C33.4506 2.63681 42.3611 11.5473 42.3611 22.5C42.3611 33.4527 33.4506 42.3632 22.498 42.3633V45C28.5079 45 34.1581 42.6596 38.4077 38.4099C42.6574 34.1602 44.9979 28.51 44.9979 22.5Z" fill="#11A64D"/>
<defs>
<linearGradient id="paint0_linear" x1="0" y1="0" x2="49.1969" y2="5.18605" gradientUnits="userSpaceOnUse">
<stop stop-color="#00B047"/>
<stop offset="1" stop-color="#4CD784"/>
</linearGradient>
</defs>
</svg>
